<svg width="37" height="26" viewBox="0 0 37 26" fill="none" xmlns="http://www.w3.org/2000/svg">
<g filter="url(#filter0_dd_1_7947)">
<g clip-path="url(#clip0_1_7947)">
<rect x="3" y="1" width="31" height="21" rx="3" fill="white"/>
<path d="M34 1H3V22H34V1Z" fill="#B31942"/>
<path d="M3 3.42334H34H3ZM34 6.65411H3H34ZM3 9.88488H34H3ZM34 13.1156H3H34ZM3 16.3464H34H3ZM34 19.5772H3H34Z" fill="#1E1E1E"/>
<path d="M3 3.42334H34M34 6.65411H3M3 9.88488H34M34 13.1156H3M3 16.3464H34M34 19.5772H3" stroke="white" stroke-width="1.58195"/>
<path d="M18.6711 1H3V12.3077H18.6711V1Z" fill="#0A3161"/>
<path d="M4.30592 1.48486L4.67885 2.65377L3.70251 1.93134H4.90933L3.933 2.65377L4.30592 1.48486Z" fill="white"/>
<path d="M4.30589 3.74609L4.67882 4.915L3.70248 4.19258H4.9093L3.93297 4.915L4.30589 3.74609Z" fill="white"/>
<path d="M4.30589 6.00781L4.67882 7.17672L3.70248 6.45429H4.9093L3.93297 7.17672L4.30589 6.00781Z" fill="white"/>
<path d="M4.30589 8.26904L4.67882 9.43795L3.70248 8.71552H4.9093L3.93297 9.43795L4.30589 8.26904Z" fill="white"/>
<path d="M4.30589 10.5308L4.67882 11.6997L3.70248 10.9772H4.9093L3.93297 11.6997L4.30589 10.5308Z" fill="white"/>
<path d="M5.61174 2.61572L5.98466 3.78463L5.00833 3.0622H6.21514L5.23881 3.78463L5.61174 2.61572Z" fill="white"/>
<path d="M5.61174 4.87695L5.98466 6.04586L5.00833 5.32343H6.21514L5.23881 6.04586L5.61174 4.87695Z" fill="white"/>
<path d="M5.61174 7.13867L5.98466 8.30758L5.00833 7.58515H6.21514L5.23881 8.30758L5.61174 7.13867Z" fill="white"/>
<path d="M5.61174 9.3999L5.98466 10.5688L5.00833 9.84638H6.21514L5.23881 10.5688L5.61174 9.3999Z" fill="white"/>
<path d="M6.91769 1.48486L7.29062 2.65377L6.31429 1.93134H7.5211L6.54477 2.65377L6.91769 1.48486Z" fill="white"/>
<path d="M6.91772 3.74609L7.29065 4.915L6.31432 4.19258H7.52113L6.5448 4.915L6.91772 3.74609Z" fill="white"/>
<path d="M6.91772 6.00781L7.29065 7.17672L6.31432 6.45429H7.52113L6.5448 7.17672L6.91772 6.00781Z" fill="white"/>
<path d="M6.91772 8.26904L7.29065 9.43795L6.31432 8.71552H7.52113L6.5448 9.43795L6.91772 8.26904Z" fill="white"/>
<path d="M6.91772 10.5308L7.29065 11.6997L6.31432 10.9772H7.52113L6.5448 11.6997L6.91772 10.5308Z" fill="white"/>
<path d="M8.22375 2.61572L8.59668 3.78463L7.62035 3.0622H8.82716L7.85083 3.78463L8.22375 2.61572Z" fill="white"/>
<path d="M8.22375 4.87695L8.59668 6.04586L7.62035 5.32343H8.82716L7.85083 6.04586L8.22375 4.87695Z" fill="white"/>
<path d="M8.22375 7.13867L8.59668 8.30758L7.62035 7.58515H8.82716L7.85083 8.30758L8.22375 7.13867Z" fill="white"/>
<path d="M8.22375 9.40039L8.59668 10.5693L7.62035 9.84687H8.82716L7.85083 10.5693L8.22375 9.40039Z" fill="white"/>
<path d="M9.52968 1.48486L9.9026 2.65377L8.92627 1.93134H10.1331L9.15675 2.65377L9.52968 1.48486Z" fill="white"/>
<path d="M9.52957 3.74609L9.9025 4.915L8.92616 4.19258H10.133L9.15664 4.915L9.52957 3.74609Z" fill="white"/>
<path d="M9.52957 6.00781L9.9025 7.17672L8.92616 6.45429H10.133L9.15664 7.17672L9.52957 6.00781Z" fill="white"/>
<path d="M9.5296 8.26904L9.90253 9.43795L8.92619 8.71552H10.133L9.15667 9.43795L9.5296 8.26904Z" fill="white"/>
<path d="M9.5296 10.5308L9.90253 11.6997L8.92619 10.9772H10.133L9.15667 11.6997L9.5296 10.5308Z" fill="white"/>
<path d="M10.8357 2.61572L11.2086 3.78463L10.2323 3.0622H11.4391L10.4627 3.78463L10.8357 2.61572Z" fill="white"/>
<path d="M10.8357 4.87695L11.2086 6.04586L10.2323 5.32343H11.4391L10.4628 6.04586L10.8357 4.87695Z" fill="white"/>
<path d="M10.8357 7.13867L11.2086 8.30758L10.2323 7.58515H11.4391L10.4628 8.30758L10.8357 7.13867Z" fill="white"/>
<path d="M10.8357 9.40039L11.2086 10.5693L10.2323 9.84687H11.4391L10.4628 10.5693L10.8357 9.40039Z" fill="white"/>
<path d="M12.1417 1.48486L12.5146 2.65377L11.5383 1.93134H12.7451L11.7687 2.65377L12.1417 1.48486Z" fill="white"/>
<path d="M12.1414 3.74658L12.5144 4.91549L11.538 4.19306H12.7449L11.7685 4.91549L12.1414 3.74658Z" fill="white"/>
<path d="M12.1414 6.00781L12.5144 7.17672L11.538 6.45429H12.7449L11.7685 7.17672L12.1414 6.00781Z" fill="white"/>
<path d="M12.1414 8.26953L12.5144 9.43843L11.538 8.71601H12.7449L11.7685 9.43843L12.1414 8.26953Z" fill="white"/>
<path d="M12.1414 10.5308L12.5144 11.6997L11.538 10.9772H12.7449L11.7685 11.6997L12.1414 10.5308Z" fill="white"/>
<path d="M13.4474 2.61572L13.8204 3.78463L12.844 3.0622H14.0509L13.0745 3.78463L13.4474 2.61572Z" fill="white"/>
<path d="M13.4475 4.87695L13.8204 6.04586L12.8441 5.32343H14.0509L13.0746 6.04586L13.4475 4.87695Z" fill="white"/>
<path d="M13.4475 7.13867L13.8204 8.30758L12.8441 7.58515H14.0509L13.0746 8.30758L13.4475 7.13867Z" fill="white"/>
<path d="M13.4475 9.40039L13.8204 10.5693L12.8441 9.84687H14.0509L13.0746 10.5693L13.4475 9.40039Z" fill="white"/>
<path d="M14.7531 1.48486L15.1261 2.65377L14.1497 1.93134H15.3565L14.3802 2.65377L14.7531 1.48486Z" fill="white"/>
<path d="M14.7531 3.74609L15.126 4.915L14.1497 4.19258H15.3565L14.3802 4.915L14.7531 3.74609Z" fill="white"/>
<path d="M14.7531 6.00781L15.126 7.17672L14.1497 6.45429H15.3565L14.3802 7.17672L14.7531 6.00781Z" fill="white"/>
<path d="M14.7531 8.26904L15.126 9.43795L14.1497 8.71552H15.3565L14.3802 9.43795L14.7531 8.26904Z" fill="white"/>
<path d="M14.7532 10.5308L15.1261 11.6997L14.1498 10.9772H15.3566L14.3803 11.6997L14.7532 10.5308Z" fill="white"/>
<path d="M16.0591 2.61572L16.4321 3.78463L15.4557 3.0622H16.6625L15.6862 3.78463L16.0591 2.61572Z" fill="white"/>
<path d="M16.0591 4.87695L16.4321 6.04586L15.4557 5.32343H16.6625L15.6862 6.04586L16.0591 4.87695Z" fill="white"/>
<path d="M16.0591 7.13867L16.4321 8.30758L15.4557 7.58515H16.6625L15.6862 8.30758L16.0591 7.13867Z" fill="white"/>
<path d="M16.0591 9.40039L16.4321 10.5693L15.4557 9.84687H16.6625L15.6862 10.5693L16.0591 9.40039Z" fill="white"/>
<path d="M17.3652 1.48486L17.7381 2.65377L16.7618 1.93134H17.9686L16.9923 2.65377L17.3652 1.48486Z" fill="white"/>
<path d="M17.365 3.74658L17.738 4.91549L16.7616 4.19306H17.9685L16.9921 4.91549L17.365 3.74658Z" fill="white"/>
<path d="M17.365 6.00781L17.738 7.17672L16.7616 6.45429H17.9685L16.9921 7.17672L17.365 6.00781Z" fill="white"/>
<path d="M17.3651 8.26904L17.738 9.43795L16.7617 8.71552H17.9685L16.9922 9.43795L17.3651 8.26904Z" fill="white"/>
<path d="M17.3651 10.5308L17.7381 11.6997L16.7617 10.9772H17.9685L16.9922 11.6997L17.3651 10.5308Z" fill="white"/>
</g>
<rect x="3" y="1" width="31" height="21" rx="3" stroke="#A8B7D4" stroke-width="0.0881247" stroke-linejoin="round"/>
</g>
<defs>
<filter id="filter0_dd_1_7947" x="0.834253" y="0.248828" width="35.3315" height="25.3312" filterUnits="userSpaceOnUse" color-interpolation-filters="sRGB">
<feFlood flood-opacity="0" result="BackgroundImageFix"/>
<feColorMatrix in="SourceAlpha" type="matrix" values="0 0 0 0 0 0 0 0 0 0 0 0 0 0 0 0 0 0 127 0" result="hardAlpha"/>
<feOffset dy="1.41445"/>
<feGaussianBlur stdDeviation="1.06084"/>
<feComposite in2="hardAlpha" operator="out"/>
<feColorMatrix type="matrix" values="0 0 0 0 0.258824 0 0 0 0 0.278431 0 0 0 0 0.298039 0 0 0 0.08 0"/>
<feBlend mode="normal" in2="BackgroundImageFix" result="effect1_dropShadow_1_7947"/>
<feColorMatrix in="SourceAlpha" type="matrix" values="0 0 0 0 0 0 0 0 0 0 0 0 0 0 0 0 0 0 127 0" result="hardAlpha"/>
<feOffset/>
<feGaussianBlur stdDeviation="0.0884033"/>
<feComposite in2="hardAlpha" operator="out"/>
<feColorMatrix type="matrix" values="0 0 0 0 0.258824 0 0 0 0 0.278431 0 0 0 0 0.298039 0 0 0 0.32 0"/>
<feBlend mode="normal" in2="effect1_dropShadow_1_7947" result="effect2_dropShadow_1_7947"/>
<feBlend mode="normal" in="SourceGraphic" in2="effect2_dropShadow_1_7947" result="shape"/>
</filter>
<clipPath id="clip0_1_7947">
<rect x="3" y="1" width="31" height="21" rx="3" fill="white"/>
</clipPath>
</defs>
</svg>
