<svg width="35" height="25" viewBox="0 0 35 25" fill="none" xmlns="http://www.w3.org/2000/svg">
<g filter="url(#filter0_dd_1_8029)">
<g clip-path="url(#clip0_1_8029)">
<rect x="2" y="1" width="31" height="21" rx="3" fill="white"/>
<mask id="mask0_1_8029" style="mask-type:luminance" maskUnits="userSpaceOnUse" x="2" y="1" width="31" height="21">
<path d="M2.00143 1H32.9984V22H2.00143V1Z" fill="white"/>
</mask>
<g mask="url(#mask0_1_8029)">
<path fill-rule="evenodd" clip-rule="evenodd" d="M0.0621338 1H34.9371V22H0.0621338V1Z" fill="#165D31"/>
<path fill-rule="evenodd" clip-rule="evenodd" d="M9.82659 6.93872C9.79376 7.44031 9.74451 8.3181 10.1672 8.41006C10.6721 8.46022 10.393 7.54063 10.5777 7.37343C10.6105 7.28983 10.6721 7.28983 10.6762 7.39433V8.17598C10.6762 8.42678 10.8404 8.50202 10.9635 8.55218C11.0948 8.54382 11.1851 8.55218 11.2344 8.67758L11.3 10.0277C11.3 10.0277 11.6037 10.1197 11.6202 9.27113C11.6325 8.76954 11.5217 8.35572 11.5873 8.25958C11.5873 8.16344 11.7105 8.15926 11.7925 8.20524C11.9239 8.2972 11.9813 8.41424 12.1866 8.37244C12.4985 8.28048 12.6873 8.12582 12.6914 7.88339C12.6852 7.64514 12.6365 7.41002 12.5477 7.18952C12.5642 7.14772 12.4903 7.03486 12.5067 6.99306C12.56 7.08502 12.6462 7.07666 12.6627 6.99306C12.6093 6.8175 12.5272 6.64612 12.3959 6.57506C12.2851 6.47474 12.1209 6.49146 12.0675 6.70046C12.0347 6.93872 12.1496 7.21878 12.3179 7.45285C12.3548 7.54063 12.4041 7.69111 12.3836 7.82487C12.2933 7.87921 12.203 7.85413 12.125 7.77471C12.125 7.77471 11.8787 7.58661 11.8787 7.54063C11.9444 7.11428 11.891 7.06412 11.8541 6.9429C11.8295 6.77988 11.7515 6.72554 11.6899 6.61686C11.6284 6.54998 11.5463 6.54998 11.5052 6.61686C11.3944 6.80914 11.4478 7.22296 11.5258 7.41105C11.5832 7.58243 11.6694 7.69111 11.6284 7.69111C11.5955 7.78725 11.5258 7.76217 11.4724 7.64931C11.4123 7.4118 11.3834 7.16724 11.3862 6.922C11.3657 6.72972 11.3411 6.32009 11.2138 6.21141C11.14 6.11109 11.0291 6.16125 10.9881 6.25321C10.9773 6.43994 10.9814 6.62727 11.0004 6.81332C11.0825 7.12264 11.1112 7.39851 11.1523 7.71201C11.1646 8.13418 10.9142 7.89593 10.9265 7.68275C10.9804 7.41475 10.9762 7.13802 10.9142 6.87184C10.8732 6.76316 10.828 6.73808 10.7254 6.7548C10.6475 6.7548 10.4463 6.97634 10.3889 7.35253C10.3889 7.35253 10.3396 7.54481 10.3191 7.71619C10.2904 7.90847 10.1672 8.05059 10.077 7.69111C10.0031 7.42777 9.95382 6.78824 9.8307 6.93872H9.82659Z" fill="white"/>
<path fill-rule="evenodd" clip-rule="evenodd" d="M11.2017 8.99101L9.88831 9.63472C9.90062 9.32958 10.5081 8.78201 10.9267 8.77783C11.1935 8.78201 11.1278 8.88233 11.1976 8.99101H11.2017Z" fill="white"/>
<path fill-rule="evenodd" clip-rule="evenodd" d="M10.9677 9.40882C10.2782 11.2271 12.5889 11.4821 12.8475 9.48406C12.8721 9.40046 12.9706 9.32104 12.987 9.4548C12.9337 11.2647 11.1975 11.3859 10.902 10.8175C10.8325 10.6219 10.7978 10.4152 10.7994 10.2072C10.7584 9.85189 10.5737 9.98983 10.545 10.3409C10.5162 10.5374 10.5244 10.5917 10.5244 10.7798C10.6147 12.2094 12.8516 11.5949 13.2168 10.4162C13.4097 9.76411 13.184 9.28342 13.2866 9.28342C13.5083 9.52586 13.8202 9.31686 13.8899 9.23326C13.9187 9.19146 13.9926 9.1622 14.0418 9.21654C14.2142 9.34194 14.5179 9.28342 14.5836 9.06188C14.6205 8.84035 14.6492 8.61463 14.6575 8.38473C14.5138 8.42653 14.4112 8.45579 14.3989 8.51849L14.3702 8.71077C14.3578 8.77347 14.2388 8.77347 14.2306 8.69405C14.1773 8.44325 13.9556 8.41399 13.8202 8.79855C13.734 8.87379 13.5698 8.89051 13.5534 8.77765C13.5739 8.51849 13.4713 8.48505 13.2661 8.60627L13.0691 7.09313C13.1512 7.09313 13.2333 7.15583 13.3112 7.05551C13.2292 6.78381 13.0445 6.23206 12.9419 6.19026C12.8967 6.13174 12.8557 6.16936 12.79 6.18608C12.6833 6.21952 12.5848 6.31148 12.6176 6.4954C12.7407 7.28123 12.8228 7.87896 12.9501 8.66897C12.9706 8.75675 12.8967 8.87797 12.7982 8.86543C12.634 8.75257 12.593 8.52267 12.3057 8.53103C12.1005 8.53103 11.8706 8.76093 11.8419 8.97828C11.805 9.15384 11.7927 9.34194 11.8419 9.49242C11.9856 9.66798 12.1579 9.65126 12.3098 9.61364C12.4329 9.5593 12.5355 9.4339 12.5807 9.46316C12.6094 9.50078 12.5848 9.91877 11.9938 10.2364C11.6367 10.4036 11.3494 10.4371 11.1975 10.1403C11.1031 9.95221 11.2057 9.2458 10.9677 9.40882Z" fill="white"/>
<path fill-rule="evenodd" clip-rule="evenodd" d="M13.9106 7.56156C14.0461 7.5114 14.7028 6.74229 14.7028 6.74229L14.6043 6.65869C14.5673 6.62943 14.5714 6.59599 14.6043 6.56673C14.7684 6.46642 14.7151 6.25742 14.633 6.1571C14.5773 6.12943 14.516 6.1154 14.454 6.11613C14.392 6.11686 14.331 6.13232 14.2759 6.16128C14.161 6.27414 14.1364 6.45388 14.2267 6.56256C14.3129 6.60435 14.399 6.69631 14.3416 6.74647C14.0707 7.03907 13.336 7.54484 13.4222 7.56156C13.4386 7.58664 13.8942 7.58664 13.9065 7.56156H13.9106ZM9.92948 10.2785C9.68322 10.6798 9.6627 11.2775 9.79814 11.4573C9.87202 11.5409 9.99104 11.5785 10.0772 11.5492C10.2332 11.4824 10.303 11.1605 10.266 11.0476C10.2127 10.964 10.1716 10.9515 10.1183 11.0184C10.0116 11.2441 9.96641 11.0894 9.9541 10.964C9.94234 10.7517 9.95335 10.5386 9.98694 10.3287C10.0157 10.1531 9.98694 10.2033 9.92948 10.2785ZM20.4816 9.63899C20.2436 9.11232 19.9111 8.59401 19.8085 8.39755C19.4887 7.8826 19.1491 7.38062 18.7906 6.89277C18.5362 6.58345 19.2093 7.02235 18.7086 6.40372L18.3433 6.09022C18.2612 6.0317 18.0642 5.92302 18.0313 6.09858C18.0149 6.25742 18.0231 6.34102 18.0478 6.4706C18.0683 6.55419 18.1914 6.70049 18.253 6.78409C19.0944 7.91914 19.8334 9.12927 20.4611 10.3997C20.5678 10.3454 20.5432 9.72677 20.4816 9.63899Z" fill="white"/>
<path fill-rule="evenodd" clip-rule="evenodd" d="M19.4348 11.3862C19.3855 11.4405 19.5497 11.6704 19.7631 11.6704C20.1161 11.6286 20.428 11.428 20.7153 10.8929C20.8321 10.7149 20.9065 10.5117 20.9329 10.2994C20.9676 9.28466 20.8877 8.26924 20.6948 7.2731C20.6825 7.1895 20.6948 7.08918 20.703 7.0641C20.7276 7.03484 20.8056 7.0641 20.8467 6.99304C20.9082 6.93034 20.6825 6.40785 20.5594 6.21139C20.5183 6.11943 20.4978 6.06092 20.4239 6.21975C20.3348 6.39502 20.2923 6.59103 20.3008 6.78823C20.4691 7.97951 20.5224 9.02032 20.6291 10.2116C20.6415 10.3286 20.625 10.4958 20.5471 10.5627C20.2374 10.9139 19.8583 11.1945 19.4348 11.3862ZM24.2163 11.382C23.9618 11.5325 23.9618 11.7038 24.167 11.708C24.52 11.6662 24.9386 11.637 25.2259 11.1939C25.3274 10.9852 25.3861 10.7576 25.3983 10.5251C25.45 9.526 25.3852 8.52419 25.2054 7.54062C25.1972 7.45702 25.1603 7.26056 25.1726 7.23548C25.1972 7.17696 25.3121 7.23966 25.3532 7.17278C25.4106 7.11008 25.0536 6.64193 24.9263 6.44129C24.8853 6.34933 24.8689 6.29081 24.7909 6.44965C24.7082 6.62653 24.6824 6.82543 24.717 7.01812C24.9058 8.31391 25.0454 9.28365 25.0741 10.429C25.0577 10.5376 25.0536 10.5962 25.0043 10.7341C24.8935 10.8762 24.7704 11.0601 24.6554 11.1479C24.5405 11.2315 24.2943 11.3151 24.2163 11.382Z" fill="white"/>
<path fill-rule="evenodd" clip-rule="evenodd" d="M24.4049 10.224C24.4049 9.91888 24.409 9.65972 24.4008 9.42982C24.3981 9.23512 24.3562 9.04305 24.2776 8.86553C24.2038 8.69415 24.2489 8.55621 24.212 8.3723C24.1791 8.18838 24.1873 7.9125 24.1381 7.69933C24.1217 7.61573 24.0806 7.34403 24.0929 7.31477C24.1135 7.25625 24.1914 7.31477 24.2325 7.24789C24.2899 7.18519 24.0273 6.4955 23.8959 6.29904C23.8508 6.21126 23.7605 6.24052 23.6579 6.38264C23.5553 6.47878 23.5922 6.69196 23.6333 6.89678C23.8836 8.2469 24.0765 9.47162 24.0355 10.7549C24.0191 10.8635 24.4049 10.4288 24.4049 10.224ZM22.5292 8.55203C22.3691 8.54367 22.0367 8.23018 21.9382 8.05044C21.9221 8.00651 21.9152 7.95962 21.918 7.91281C21.9208 7.86601 21.9333 7.82033 21.9546 7.77874C22.0162 7.73694 22.1065 7.69515 22.1762 7.73694C22.1762 7.73694 22.246 7.83726 22.2337 7.8498C22.3158 7.8916 22.3568 7.8707 22.365 7.83308C22.3691 7.77038 22.3404 7.73276 22.3404 7.66589C22.3773 7.47361 22.5867 7.44435 22.6687 7.56557C22.7262 7.64081 22.7508 7.79546 22.7549 7.89996C22.7549 7.9543 22.6729 7.8916 22.6195 7.89996C22.5744 7.91668 22.562 7.9752 22.5579 8.02536C22.5497 8.1633 22.5333 8.38484 22.5292 8.54785V8.55203ZM19.5823 10.5584C19.6234 10.1488 19.5659 9.41728 19.5618 9.17485C19.5398 8.55135 19.4892 7.92925 19.4099 7.31059C19.3607 6.95947 19.5495 7.34821 19.5249 7.14339C19.4633 6.79646 19.2745 6.5582 19.0488 6.2447C18.979 6.14021 18.979 6.11931 18.8682 6.26978C18.745 6.54984 18.8518 6.7463 18.8846 6.96783C19.0447 7.68679 19.1391 8.34722 19.1842 9.00347C19.2315 9.68518 19.2369 10.3692 19.2006 11.0516C19.3238 11.0558 19.5126 10.8552 19.5823 10.5584Z" fill="white"/>
<path fill-rule="evenodd" clip-rule="evenodd" d="M24.9508 9.90214C24.6676 9.41726 24.2448 8.89895 24.1299 8.70249C23.7493 8.16122 23.3496 7.6342 22.9314 7.12247C22.5826 6.74628 23.0956 7.05977 22.8658 6.76718C22.6729 6.554 22.6195 6.48294 22.4512 6.35336C22.3692 6.29902 22.3199 6.19453 22.2871 6.37426C22.274 6.52995 22.2712 6.68636 22.2789 6.84242C22.2789 6.91348 22.3527 7.05141 22.4184 7.13501C23.268 8.2009 24.1997 9.28769 24.9466 10.6545C25.0534 10.6002 25.0164 9.98574 24.9466 9.90214H24.9508Z" fill="white"/>
<path fill-rule="evenodd" clip-rule="evenodd" d="M12.1703 9.01195C12.1497 9.04957 12.1046 9.09555 12.121 9.14153C12.1497 9.18333 12.1785 9.19587 12.2277 9.19587C12.2729 9.19587 12.3385 9.20841 12.3509 9.18333C12.3755 9.15407 12.3919 9.09973 12.3755 9.04539C12.3262 8.91999 12.1949 8.97015 12.1703 9.01195Z" fill="#165D31"/>
<path fill-rule="evenodd" clip-rule="evenodd" d="M21.6756 16.0259C22.0532 16.0426 22.2994 16.0468 22.6319 16.0844L23.0259 16.0426C23.4609 16.0008 23.4773 16.6737 23.4773 16.6737C23.4773 17.0708 23.3255 17.0917 23.1326 17.1335C23.0218 17.1503 22.9684 17.0667 22.9068 16.9831C22.814 17.0134 22.7152 17.0191 22.6195 16.9998C22.4595 16.9914 22.3035 16.9914 22.1475 16.9789C21.9834 16.9663 21.8931 16.9998 21.7248 16.9831C21.692 17.0374 21.6427 17.1126 21.5442 17.0917C21.4621 17.0792 21.3595 16.8409 21.3883 16.6528C21.4498 16.5191 21.4293 16.5651 21.4293 16.5066C19.8861 16.4648 18.3306 16.3937 16.8202 16.4146C15.6381 16.4188 14.4725 16.4689 13.3028 16.5191C12.679 16.5107 12.2029 16.4104 11.8745 15.9214C11.9073 15.9214 13.467 16.0091 13.9226 15.9799C14.7639 15.9715 15.5355 15.9005 16.3933 15.8754C18.0843 15.9046 19.763 15.9046 21.4539 16.0259C21.2898 15.913 21.2898 15.6497 21.536 15.5828C21.5565 15.5661 21.5688 15.7124 21.6058 15.7082C21.8069 15.6956 21.7166 15.9715 21.6756 16.0259ZM14.8789 6.52902C14.6244 7.27305 15.0266 8.09232 15.3057 8.0129C15.5109 8.0965 15.634 7.70358 15.7161 7.27723C15.7777 7.15601 15.8187 7.14347 15.8475 7.20617C15.8393 7.77464 15.8885 7.90422 16.0322 8.0756C16.3523 8.3264 16.6191 8.10904 16.6396 8.08814L16.8858 7.83316C16.9433 7.77046 17.0172 7.77046 17.0952 7.82062C17.1732 7.89168 17.1608 8.0129 17.325 8.0965C17.4646 8.15502 17.756 8.11322 17.8257 7.992C17.916 7.82898 17.9407 7.77464 17.9817 7.71612C18.0474 7.62835 18.1582 7.66597 18.1582 7.69522C18.1459 7.74538 18.0802 7.79136 18.1253 7.88332C18.2074 7.94184 18.2238 7.90422 18.269 7.89168C18.4332 7.80808 18.5563 7.44861 18.5563 7.44861C18.5604 7.31485 18.4865 7.32321 18.4373 7.35665L18.31 7.44443C18.228 7.45697 18.0761 7.51131 17.9981 7.39009C17.9201 7.24797 17.9201 7.04315 17.8627 6.89686C17.8627 6.8885 17.756 6.66696 17.8545 6.65442C17.9037 6.66278 18.0063 6.69204 18.0227 6.60426C18.072 6.51648 17.916 6.26986 17.8052 6.14446C17.7108 6.03997 17.5795 6.02743 17.4522 6.13611C17.3619 6.2197 17.3743 6.31166 17.3578 6.39944C17.3423 6.46235 17.3416 6.52812 17.3559 6.59134C17.3701 6.65456 17.3989 6.71343 17.4399 6.7631C17.5302 6.93865 17.6903 7.16855 17.6369 7.49459C17.6369 7.49459 17.5425 7.64507 17.3784 7.62417C17.3086 7.61163 17.1978 7.58237 17.1403 7.13093C17.0952 6.79654 17.1485 6.32002 17.009 6.09849C16.9556 5.96055 16.9187 5.83097 16.7956 6.06087C16.7627 6.15282 16.6191 6.29076 16.7217 6.57082C16.8188 6.82319 16.8471 7.09758 16.8038 7.36501C16.7422 7.45697 16.7299 7.48623 16.6519 7.57401C16.5452 7.6994 16.4262 7.66597 16.3359 7.61999C16.2538 7.56565 16.1881 7.53639 16.1471 7.34829C16.1553 7.05569 16.1717 6.575 16.1183 6.47468C16.0404 6.31584 15.9131 6.37436 15.8598 6.42452C15.6156 6.70075 15.4521 7.04098 15.3878 7.40681C15.3139 7.64925 15.2359 7.57819 15.1826 7.48205C15.0512 7.35665 15.0389 6.366 14.8789 6.52902Z" fill="white"/>
<path fill-rule="evenodd" clip-rule="evenodd" d="M15.6508 8.15072C15.7698 8.06713 15.7165 8.00861 15.8889 8.18416C16.1114 8.5851 16.2406 9.0327 16.2665 9.49249C16.2583 9.60117 16.3321 9.66804 16.3691 9.64297C16.3855 9.39217 16.9888 9.04105 17.5429 8.99089C17.625 8.96999 17.5839 8.80698 17.5963 8.72338C17.5634 8.40988 17.7686 8.12564 18.0559 8.10474C18.4499 8.16326 18.5813 8.37644 18.5895 8.6983C18.5443 9.32529 17.9041 9.42979 17.547 9.47995C17.4936 9.50085 17.469 9.52593 17.547 9.55519L19.0492 9.56355L19.1272 9.60535C19.1354 9.64714 19.1025 9.61371 19.0451 9.71402C18.9624 9.86187 18.9107 10.0255 18.8932 10.1947C18.4458 10.3452 17.9821 10.4037 17.5142 10.4664C17.35 10.55 17.2679 10.6629 17.3007 10.7883C17.3582 10.9262 17.7194 11.0683 17.7194 11.0725C17.7892 11.1143 17.8671 11.2188 17.6989 11.432C16.9683 11.3985 16.3978 11.0809 16.2008 10.6336C16.1433 10.5876 16.0777 10.6336 16.0366 10.6921C15.7493 11.0683 15.4702 11.4027 14.9818 11.5866C14.6945 11.6619 14.3949 11.5407 14.2554 11.3484C14.161 11.2355 14.1651 11.1143 14.1322 11.0892C13.9722 11.1603 12.6178 11.7455 12.7901 11.4696C13.1185 11.1143 13.6931 10.8468 14.1938 10.4957C14.2307 10.3745 14.2964 9.97318 14.4934 9.8436C14.5057 9.8436 14.4647 10.0777 14.4688 10.178C14.4688 10.2616 14.4606 10.2909 14.477 10.27C14.5139 10.2491 15.1214 9.76 15.1747 9.60953C15.2322 9.52593 15.187 9.30857 15.187 9.30021C15.0721 8.99925 14.9121 8.97417 14.8546 8.8237C14.8012 8.62724 14.8259 8.40152 14.9367 8.33464C15.0352 8.24686 15.1501 8.25522 15.2609 8.35554C15.384 8.4684 15.4908 8.68994 15.5236 8.85296C15.5031 8.91565 15.3594 8.81116 15.3184 8.84042C15.3974 8.93287 15.4499 9.04565 15.4702 9.16645C15.5523 9.50921 15.5277 9.64297 15.4456 9.8645C15.1747 10.4455 14.83 10.6169 14.5262 10.8342C14.518 10.8342 14.5139 10.9805 14.6248 11.06C14.6658 11.1018 14.8259 11.1227 15.0106 11.06C15.4051 10.8368 15.7242 10.4973 15.9258 10.086C15.9607 9.77311 15.927 9.4562 15.8273 9.15809C15.7083 8.87803 15.5687 8.48094 15.5687 8.47258C15.5646 8.29702 15.5769 8.2385 15.6508 8.15072ZM11.7189 6.53727C11.8913 6.62086 12.2196 6.58324 12.2032 6.29901L12.195 6.16943C12.1622 6.08583 12.0637 6.10673 12.0432 6.19033C12.0349 6.21959 12.0555 6.26557 12.0308 6.27811C12.0144 6.29483 11.9611 6.28647 11.9611 6.20705C11.9611 6.18197 11.9446 6.15689 11.9323 6.14017C11.9241 6.13181 11.9159 6.13181 11.8954 6.13181C11.8708 6.13181 11.8708 6.13599 11.8585 6.15689C11.8544 6.17779 11.8461 6.19869 11.8461 6.22377C11.8461 6.25303 11.8297 6.26139 11.8133 6.26557C11.7887 6.26557 11.7928 6.26557 11.7723 6.25721C11.7641 6.24467 11.7517 6.24049 11.7517 6.21541L11.7394 6.14853C11.7312 6.13599 11.7148 6.12763 11.6984 6.12345C11.604 6.12345 11.5958 6.23631 11.604 6.27811C11.5958 6.28647 11.5917 6.48293 11.7189 6.53727Z" fill="white"/>
<path fill-rule="evenodd" clip-rule="evenodd" d="M16.7873 8.71971C16.9597 8.80331 17.3742 8.75733 17.2716 8.48564L17.2634 8.35188C17.2265 8.26828 17.1321 8.28918 17.1115 8.37696C17.1033 8.40204 17.1238 8.44802 17.0951 8.46056C17.0828 8.47728 17.0253 8.46891 17.0294 8.39368C17.0294 8.3686 17.013 8.33934 17.0007 8.32262C16.9884 8.31844 16.9843 8.31426 16.9597 8.31426C16.9392 8.31426 16.9392 8.32262 16.9268 8.34352C16.9186 8.36442 16.9145 8.38532 16.9145 8.4104C16.9104 8.43548 16.8981 8.44384 16.8776 8.4522C16.8571 8.4522 16.8612 8.4522 16.8448 8.43966C16.8324 8.42712 16.8201 8.42294 16.8201 8.40204L16.8078 8.33516C16.7996 8.32262 16.7832 8.31426 16.7668 8.31008C16.6724 8.31008 16.6642 8.41876 16.6683 8.46056C16.6642 8.46892 16.6601 8.66955 16.7914 8.71971H16.7873ZM19.7424 7.81684C19.9148 7.90044 20.239 7.86282 20.2267 7.58277L20.2185 7.44901C20.1815 7.36541 20.0871 7.38631 20.0666 7.46991C20.0584 7.49917 20.0789 7.54515 20.0502 7.56187C20.0379 7.57441 19.9804 7.56605 19.9845 7.48663C19.9845 7.46155 19.9681 7.43647 19.9558 7.41975C19.9435 7.41139 19.9394 7.41139 19.9148 7.41139C19.8942 7.41139 19.8942 7.41975 19.8819 7.44065L19.8696 7.50335C19.8655 7.53261 19.8532 7.54515 19.8327 7.54515C19.8122 7.54515 19.8163 7.54515 19.7998 7.53679C19.7875 7.52425 19.7752 7.52007 19.7752 7.49917C19.7752 7.47827 19.7711 7.44483 19.7629 7.42811C19.7547 7.41557 19.7383 7.41139 19.7219 7.40721C19.6275 7.40721 19.6193 7.51589 19.6234 7.55769C19.6193 7.56605 19.6151 7.7625 19.7465 7.81684H19.7424ZM21.2733 10.0866C20.9737 10.4335 21.105 11.0061 21.1748 11.1315C21.2733 11.3322 21.3513 11.4618 21.5442 11.5621C21.7206 11.6917 21.8602 11.6122 21.9341 11.5203C22.1106 11.3322 22.1147 10.8515 22.1967 10.7595C22.2542 10.584 22.402 10.6132 22.4717 10.6926C22.537 10.787 22.6245 10.8632 22.7262 10.9142C22.8904 11.0605 23.0874 11.0897 23.2844 10.956C23.4157 10.8766 23.5019 10.7804 23.5799 10.584C23.662 10.3499 23.6209 9.26311 23.6004 8.61939L23.428 7.72071C23.428 7.71235 23.4075 7.29435 23.387 7.19821C23.387 7.15641 23.3747 7.14387 23.4157 7.14805C23.4609 7.18985 23.465 7.18985 23.4978 7.20239C23.5389 7.21075 23.5799 7.13133 23.5512 7.06445L23.1407 6.28698C23.1079 6.25354 23.0628 6.2201 23.0094 6.29534C22.9779 6.32437 22.9529 6.35987 22.9359 6.39951C22.9189 6.43914 22.9104 6.482 22.9109 6.52524C22.9232 6.70916 22.9519 6.89726 22.9643 7.08117L23.1284 8.02584C23.1818 8.69463 23.1941 9.24638 23.2474 9.91936C23.2392 10.2036 23.153 10.4502 23.071 10.4878C23.071 10.4878 22.9478 10.5589 22.8657 10.4795C22.8042 10.4544 22.562 10.0657 22.562 10.0657C22.4389 9.9528 22.3568 9.98206 22.2706 10.0657C22.0244 10.3081 21.9177 10.7512 21.7494 11.0605C21.7083 11.1315 21.5852 11.1859 21.4539 11.0563C21.1173 10.584 21.3143 9.91518 21.2733 10.0866ZM19.8204 6.16995C19.9763 6.23264 20.083 6.5545 20.0502 6.71334C20.0174 6.90144 19.9353 7.11043 19.8778 7.08535C19.8122 7.06027 19.9189 6.89308 19.8573 6.71752C19.8245 6.60048 19.611 6.39148 19.6357 6.33296C19.5946 6.20339 19.726 6.14487 19.8204 6.16577V6.16995Z" fill="white"/>
<path fill-rule="evenodd" clip-rule="evenodd" d="M21.7742 10.2784C21.8029 9.89382 21.7496 9.65974 21.7414 9.43403C21.7331 9.20831 21.491 7.48617 21.4417 7.31897C21.3802 6.99294 21.6757 7.27717 21.6429 7.0849C21.5402 6.85082 21.2899 6.50388 21.2119 6.29907C21.1627 6.21547 21.1832 6.13187 21.0765 6.27817C20.9846 6.53467 20.9523 6.80936 20.9821 7.08072C21.2365 8.43084 21.4951 9.55106 21.4541 10.8343C21.5772 10.8343 21.7126 10.5543 21.7742 10.2784ZM24.4174 6.71288C24.561 6.78394 24.6431 7.18521 24.6267 7.29807C24.5979 7.50707 24.5241 7.73279 24.4707 7.70353C24.4091 7.67845 24.483 7.39421 24.4543 7.30643C24.4215 7.18103 24.2286 6.95532 24.2491 6.88844C24.208 6.74632 24.3312 6.6878 24.4174 6.71288ZM13.9227 9.55106C14.0581 9.6054 14.1402 9.898 14.1279 9.9816C14.0951 10.1363 14.0253 10.3035 13.9719 10.2784C13.9186 10.2617 13.9842 10.0527 13.9596 9.98578C13.9473 9.83112 13.7585 9.74752 13.7626 9.68064C13.7298 9.55524 13.8447 9.53434 13.9268 9.55106H13.9227Z" fill="white"/>
<path fill-rule="evenodd" clip-rule="evenodd" d="M17.1898 9.9937C17.3622 10.0021 17.4483 10.1442 17.2883 10.2027C17.1241 10.257 16.9722 10.303 16.9681 10.5371C17.0297 10.8715 16.8861 10.7544 16.804 10.7126C16.7055 10.6374 16.4264 10.4618 16.3853 10.0857C16.3812 9.99788 16.451 9.91846 16.5618 9.91846C16.726 9.96444 16.9722 9.96862 17.1898 9.9937Z" fill="#165D31"/>
<path fill-rule="evenodd" clip-rule="evenodd" d="M10.3151 6.07295C10.5121 6.13147 10.5245 6.43243 10.5121 6.5202C10.4834 6.67904 10.4136 6.85042 10.3644 6.82952C10.3069 6.80862 10.3644 6.59126 10.3357 6.52438C10.3069 6.43242 10.1386 6.25687 10.1551 6.20671C10.1181 6.10221 10.2372 6.05205 10.3151 6.07295ZM14.2511 7.47741C14.0952 7.56101 14.0377 7.81181 14.1321 7.96229C14.2224 8.08768 14.362 8.0417 14.3784 8.0417C14.5302 8.05842 14.6205 7.75329 14.6205 7.75329C14.6205 7.75329 14.6246 7.66969 14.4482 7.83271C14.3702 7.84525 14.3661 7.81599 14.3455 7.77419C14.3268 7.69461 14.334 7.61096 14.3661 7.53593C14.3948 7.46069 14.3373 7.42725 14.2511 7.47741ZM15.4003 5.95591C15.3183 6.01025 15.1664 6.17327 15.1623 6.35719C15.1582 6.46168 15.1377 6.46168 15.2033 6.52438C15.2567 6.59962 15.3018 6.59544 15.4003 6.5411C15.4249 6.52537 15.446 6.50461 15.4622 6.48014C15.4785 6.45568 15.4895 6.42804 15.4947 6.39899C15.5194 6.28195 15.3716 6.4575 15.3552 6.32375C15.3224 6.19835 15.4168 6.14819 15.5071 6.03115C15.5071 5.94755 15.5071 5.89321 15.3962 5.95591H15.4003ZM16.3197 6.12311C16.2835 6.27532 16.2615 6.43066 16.254 6.58708C16.2294 6.70412 16.3772 6.75428 16.4387 6.6038C16.5372 6.33211 16.5372 6.21507 16.5454 6.10221C16.5167 5.92247 16.3977 5.92665 16.3197 6.12311ZM22.1478 9.14521C22.1642 9.12431 22.9687 8.5433 22.9687 8.5433C23.0507 8.51404 23.0302 8.84425 22.9933 8.84007C22.7438 9.08494 22.4569 9.28682 22.1437 9.43781C22.1027 9.46707 22.0657 9.21627 22.1437 9.14521H22.1478ZM22.8743 9.13685C23.0179 9.20791 23.0754 9.63008 23.059 9.74294C23.059 9.96866 22.9235 10.1442 22.8661 10.1191C22.8086 10.0899 22.8743 9.83908 22.8455 9.7513C22.8127 9.6259 22.6937 9.39601 22.7142 9.32913C22.6732 9.18701 22.7881 9.11177 22.8784 9.13685H22.8743ZM18.1133 10.9509C18.1799 10.8718 18.2573 10.8028 18.3431 10.7461C18.4252 10.7043 18.4991 10.7796 18.495 10.7754C18.5073 10.859 18.4457 10.93 18.4663 11.0387C18.4827 11.0805 18.495 11.1307 18.573 11.114C18.7002 11.0095 18.8192 11.0011 18.9424 10.9969C19.045 11.0011 19.0491 11.1725 18.9834 11.1725C18.7494 11.2226 18.6468 11.2895 18.4786 11.3522C18.3965 11.4024 18.3308 11.3397 18.3308 11.3355C18.3308 11.3313 18.2857 11.2895 18.3144 11.1808C18.3226 11.0972 18.2898 11.0471 18.2159 11.0554C18.1666 11.0889 18.1174 11.1056 18.0928 11.0429C18.0804 11.0011 18.0763 10.976 18.1133 10.9509ZM23.7197 11.1767C23.7526 11.2185 23.7772 11.2603 23.7156 11.3355L23.5638 11.4693C23.5392 11.5111 23.5227 11.5863 23.6048 11.6072C23.7526 11.649 24.0973 11.4191 24.0973 11.4149C24.1548 11.3731 24.1384 11.2895 24.1302 11.2895C24.0973 11.2519 24.0235 11.277 23.9742 11.2686C23.9496 11.2686 23.8716 11.2603 23.9085 11.185C23.9361 11.1481 23.9582 11.1073 23.9742 11.0638C23.9947 11.0136 23.9742 10.9802 23.8921 10.9509C23.8059 10.9342 23.769 10.9426 23.6746 10.9509C23.6253 10.9593 23.6089 10.9844 23.5966 11.0471C23.6007 11.1432 23.6582 11.139 23.7197 11.1725V11.1767Z" fill="white"/>
<path fill-rule="evenodd" clip-rule="evenodd" d="M18.1418 8.80298C18.1213 8.84478 18.0474 8.84478 17.9776 8.80298C17.9078 8.76118 17.8668 8.6943 17.8914 8.65668C17.9161 8.61906 17.9858 8.61906 18.0556 8.65668C18.1254 8.6943 18.1623 8.76536 18.1418 8.80298ZM14.489 6.56253C14.4479 6.57507 14.3905 6.53745 14.3658 6.47893C14.3412 6.42041 14.3535 6.37025 14.3946 6.35771C14.4356 6.34517 14.489 6.38697 14.5177 6.44131C14.5464 6.49565 14.53 6.55417 14.4849 6.56671L14.489 6.56253Z" fill="#165D31"/>
<path fill-rule="evenodd" clip-rule="evenodd" d="M21.7168 16.5483C22.1026 16.5651 22.4638 16.5483 22.8455 16.5692C22.9153 16.6319 22.866 16.7782 22.8209 16.7699L22.5007 16.7573C22.4966 16.6319 22.1847 16.6528 22.1929 16.7615C22.0246 16.7824 21.8728 16.7573 21.7004 16.749C21.6511 16.6863 21.6594 16.5734 21.7168 16.5483Z" fill="#165D31"/>
</g>
</g>
<rect x="2" y="1" width="31" height="21" rx="3" stroke="#A8B7D4" stroke-width="0.0697298" stroke-linejoin="round"/>
</g>
<defs>
<filter id="filter0_dd_1_8029" x="0.286342" y="0.40573" width="34.4273" height="24.427" filterUnits="userSpaceOnUse" color-interpolation-filters="sRGB">
<feFlood flood-opacity="0" result="BackgroundImageFix"/>
<feColorMatrix in="SourceAlpha" type="matrix" values="0 0 0 0 0 0 0 0 0 0 0 0 0 0 0 0 0 0 127 0" result="hardAlpha"/>
<feOffset dy="1.1192"/>
<feGaussianBlur stdDeviation="0.839404"/>
<feComposite in2="hardAlpha" operator="out"/>
<feColorMatrix type="matrix" values="0 0 0 0 0.258824 0 0 0 0 0.278431 0 0 0 0 0.298039 0 0 0 0.08 0"/>
<feBlend mode="normal" in2="BackgroundImageFix" result="effect1_dropShadow_1_8029"/>
<feColorMatrix in="SourceAlpha" type="matrix" values="0 0 0 0 0 0 0 0 0 0 0 0 0 0 0 0 0 0 127 0" result="hardAlpha"/>
<feOffset/>
<feGaussianBlur stdDeviation="0.0699503"/>
<feComposite in2="hardAlpha" operator="out"/>
<feColorMatrix type="matrix" values="0 0 0 0 0.258824 0 0 0 0 0.278431 0 0 0 0 0.298039 0 0 0 0.32 0"/>
<feBlend mode="normal" in2="effect1_dropShadow_1_8029" result="effect2_dropShadow_1_8029"/>
<feBlend mode="normal" in="SourceGraphic" in2="effect2_dropShadow_1_8029" result="shape"/>
</filter>
<clipPath id="clip0_1_8029">
<rect x="2" y="1" width="31" height="21" rx="3" fill="white"/>
</clipPath>
</defs>
</svg>
