<svg width="70" height="70" viewBox="0 0 70 70" fill="none" xmlns="http://www.w3.org/2000/svg">
<g clip-path="url(#clip0_1_7235)">
<path d="M33.5417 33.95C34.0571 34.4859 34.6024 34.9923 35.175 35.4667C36.0792 36.2833 36.9833 36.925 37.7708 37.7417C37.9215 37.9378 38.1419 38.0684 38.3862 38.1064C38.6306 38.1445 38.8802 38.0869 39.0833 37.9458C39.1869 37.8763 39.275 37.786 39.3419 37.6808C39.4089 37.5755 39.4534 37.4575 39.4726 37.3343C39.4918 37.211 39.4852 37.0851 39.4534 36.9644C39.4215 36.8438 39.3651 36.7311 39.2875 36.6333C38.7544 35.5423 38.13 34.4983 37.4208 33.5125C37.1121 33.0971 36.7707 32.707 36.4 32.3458C36.0363 31.9667 35.6357 31.6247 35.2042 31.325L34.4458 30.8875C36.3798 29.0625 37.8653 26.8149 38.7862 24.3204C39.7071 21.8259 40.0384 19.1522 39.7542 16.5083C39.1417 8.28333 33.5708 0.495832 23.6542 0.641665C12.1917 1.02083 5.83334 8.98333 5.57084 16.9458C5.4603 20.0872 6.33805 23.1841 8.08045 25.8004C9.82285 28.4166 12.3421 30.4203 15.2833 31.5292C12.6482 33.1107 10.1678 34.9368 7.87501 36.9833C5.98244 38.6121 4.31503 40.4855 2.91668 42.5542C1.67857 44.2945 0.796445 46.2622 0.320945 48.3444C-0.154556 50.4266 -0.214063 52.5822 0.145842 54.6875C0.172983 54.8158 0.226064 54.9372 0.301828 55.0443C0.377592 55.1514 0.47444 55.2418 0.586425 55.3101C0.69841 55.3784 0.823169 55.4231 0.953044 55.4414C1.08292 55.4597 1.21517 55.4513 1.34168 55.4167C1.58143 55.3738 1.79601 55.2416 1.94215 55.0467C2.08829 54.8519 2.15513 54.6088 2.12918 54.3667C1.98823 50.6839 3.21406 47.0792 5.57084 44.2458C6.90959 42.4279 8.38171 40.712 9.97501 39.1125C12.3398 36.7023 14.8531 34.4423 17.5 32.3458C19.2335 32.8148 21.014 33.0887 22.8083 33.1625C22.918 33.1704 23.0281 33.1561 23.1321 33.1204C23.236 33.0848 23.3317 33.0285 23.4134 32.955C23.4951 32.8814 23.5612 32.7922 23.6075 32.6925C23.6539 32.5928 23.6797 32.4849 23.6833 32.375C23.6919 32.1601 23.6182 31.9499 23.4774 31.7874C23.3365 31.6248 23.139 31.5221 22.925 31.5C12.775 30.6542 8.13751 24.1792 8.34168 17.5875H8.57501C9.98859 18.2423 11.5118 18.6281 13.0667 18.725C13.7258 18.7968 14.3908 18.7968 15.05 18.725C15.7045 18.6281 16.3488 18.4719 16.975 18.2583C18.4855 17.7192 19.8524 16.8412 20.9708 15.6917C21.0981 15.5364 21.17 15.3432 21.1752 15.1425C21.1805 14.9418 21.1189 14.7451 21 14.5833C21.7492 15.0355 22.5288 15.435 23.3333 15.7792C24.7406 16.4394 26.2181 16.9384 27.7375 17.2667C30.8534 17.862 34.046 17.9408 37.1875 17.5C37.625 25.6667 32.9292 31.4708 26.25 32.375C26.0317 32.4305 25.8409 32.5631 25.7127 32.7483C25.5845 32.9335 25.5276 33.1587 25.5525 33.3826C25.5773 33.6064 25.6823 33.8137 25.848 33.9663C26.0138 34.1188 26.229 34.2062 26.4542 34.2125C28.5056 34.0544 30.4971 33.447 32.2875 32.4333C32.6667 32.9583 33.075 33.4542 33.5417 33.95ZM19.6583 14.2917C18.7641 14.8234 17.7723 15.1705 16.7417 15.3125C16.2458 15.3125 15.75 15.3125 15.225 15.5458L12.95 15.8667C11.6608 16.0982 10.351 16.196 9.04168 16.1583C8.94691 16.1097 8.84194 16.0843 8.73543 16.0843C8.62892 16.0843 8.52394 16.1097 8.42918 16.1583C8.69201 14.2485 9.34565 12.4133 10.3493 10.7673C11.3529 9.12137 12.6851 7.6999 14.2625 6.59166C15.4986 9.14581 17.2458 11.4191 19.3958 13.2708C19.775 13.5917 20.1833 13.8542 20.5917 14.1458C20.4378 14.0817 20.2692 14.0614 20.1045 14.0872C19.9397 14.1129 19.7853 14.1837 19.6583 14.2917ZM28.4083 14.2917C27.1067 13.91 25.8386 13.4222 24.6167 12.8333C23.4058 12.2489 22.2449 11.5661 21.1458 10.7917C19.069 9.37258 17.2616 7.5948 15.8083 5.54166C18.2732 4.35769 20.9782 3.75881 23.7125 3.79166C31.4417 3.52916 35.9042 9.275 36.9833 15.6042C34.1091 15.6188 31.2486 15.206 28.4958 14.3792L28.4083 14.2917Z" fill="white"/>
<path d="M24.4708 38.675C24.4938 38.5528 24.4896 38.427 24.4584 38.3067C24.4273 38.1863 24.37 38.0743 24.2906 37.9786C24.2112 37.8829 24.1117 37.8059 23.9992 37.753C23.8867 37.7001 23.7639 37.6727 23.6396 37.6727C23.5152 37.6727 23.3924 37.7001 23.2799 37.753C23.1674 37.8059 23.0679 37.8829 22.9885 37.9786C22.9091 38.0743 22.8519 38.1863 22.8207 38.3067C22.7896 38.427 22.7853 38.5528 22.8083 38.675C22.5166 40.1625 22.1958 41.5916 22.0208 43.1666V45.1208V47.0458C22.1666 48.5625 22.4291 49.9625 22.6333 51.5375C22.6409 51.7954 22.7487 52.0402 22.9339 52.2199C23.119 52.3996 23.367 52.5001 23.625 52.5C23.8752 52.4924 24.1125 52.3876 24.2868 52.2079C24.461 52.0282 24.5584 51.7878 24.5583 51.5375C24.7041 50.0208 24.9083 48.6208 25.025 47.0458V45.15V43.225C24.9083 41.6208 24.6458 40.1625 24.4708 38.675Z" fill="white"/>
<path d="M67.0834 45.6458C67.55 45.3249 67.9584 44.975 68.075 44.8875C68.6898 44.3625 69.1888 43.7154 69.5402 42.9874C69.8917 42.2594 70.088 41.4662 70.1167 40.6583C70.2115 39.0764 69.7122 37.5162 68.7167 36.2833C68.3958 35.9143 68.0446 35.5728 67.6667 35.2625C67.2967 34.9641 66.9069 34.6913 66.5 34.4458C66.1421 34.2204 65.7607 34.0346 65.3625 33.8916C64.957 33.7405 64.5366 33.6329 64.1084 33.5708C63.4267 33.4056 62.7177 33.3878 62.0286 33.5186C61.3395 33.6494 60.6863 33.9257 60.1125 34.3291C59.5186 34.8703 59.0249 35.5121 58.6542 36.225C58.3843 36.7567 58.0406 37.2477 57.6334 37.6833C57.381 37.4845 57.1181 37.2995 56.8459 37.1291L52.5 32.8708C52.3428 32.721 52.1339 32.6375 51.9167 32.6375C51.6995 32.6375 51.4906 32.721 51.3334 32.8708C51.2546 32.9809 51.1863 33.0981 51.1292 33.2208C50.9806 33.1276 50.8088 33.0782 50.6334 33.0782C50.458 33.0782 50.2861 33.1276 50.1375 33.2208C49.4667 33.8041 47.0459 35.5833 45.7625 36.8958C45.2552 37.3506 44.882 37.9356 44.6834 38.5875C44.6534 38.8936 44.7252 39.2011 44.8875 39.4625C45.15 39.9291 46.0542 40.775 46.2292 41.0958C46.7249 41.9827 46.9289 43.0031 46.8125 44.0125C46.8034 44.414 46.6609 44.8012 46.4074 45.1128C46.1539 45.4244 45.8039 45.6427 45.4125 45.7333C44.9006 45.8197 44.3747 45.759 43.8959 45.5583C42.9905 45.1841 42.1375 44.6938 41.3584 44.1C40.832 43.6335 40.266 43.2139 39.6667 42.8458C39.2519 42.6072 38.7622 42.5342 38.2959 42.6416C37.0407 42.9722 35.8709 43.5675 34.8647 44.3875C33.8586 45.2075 33.0396 46.2332 32.4625 47.3958C31.8221 48.6806 31.572 50.1249 31.743 51.5503C31.9141 52.9757 32.4988 54.3198 33.425 55.4166C35.9168 58.8718 38.7613 62.0584 41.9125 64.9249C44.1385 66.8791 46.7527 68.3403 49.5834 69.2124C50.7575 69.5042 51.9988 69.3373 53.0542 68.7458C54.8599 67.6772 56.4843 66.3284 57.8667 64.75C58.5119 64.0263 59.1156 63.2668 59.675 62.4749C59.9134 62.1321 60.0236 61.7163 59.9862 61.3004C59.9489 60.8844 59.7665 60.4949 59.4709 60.1999C58.6685 59.539 58.0045 58.7262 57.5167 57.8083C57.3575 57.5284 57.2914 57.2052 57.3281 56.8853C57.3649 56.5655 57.5024 56.2656 57.7209 56.0291C57.9719 55.8059 58.2704 55.6426 58.5937 55.5517C58.9171 55.4607 59.2569 55.4445 59.5875 55.5041C60.5148 55.5926 61.4162 55.86 62.2417 56.2916C62.5917 56.4374 63.525 57.1958 64.0209 57.4C64.3305 57.5439 64.6724 57.6042 65.0125 57.5749C65.4924 57.4756 65.9302 57.2313 66.2667 56.8749C66.7167 56.366 67.1356 55.8303 67.5209 55.2708C68.5886 54.132 69.2278 52.6577 69.3292 51.1C69.2408 49.5644 68.6341 48.1043 67.6084 46.9583C67.5209 46.6666 67.2584 46.1416 67.0834 45.6458ZM63.9334 46.2291C64.4271 47.0554 64.9932 47.8362 65.625 48.5624C66.2541 49.255 66.6339 50.1378 66.7042 51.0708C66.5819 51.9829 66.137 52.821 65.45 53.4333L64.6625 54.3958C63.9348 53.6875 63.0634 53.1438 62.1073 52.8017C61.1512 52.4595 60.1327 52.3267 59.1209 52.4124C57.8035 52.4266 56.5453 52.9613 55.6209 53.8999C55.0713 54.4393 54.676 55.1159 54.476 55.8596C54.2759 56.6032 54.2785 57.3868 54.4834 58.1291C54.9144 59.4982 55.6757 60.7403 56.7 61.7458C56.3847 62.036 56.0537 62.3086 55.7084 62.5625C54.8872 63.5295 53.9685 64.4091 52.9667 65.1875C52.1792 65.7999 51.3625 66.4124 50.6042 66.1791C48.1645 65.4078 45.9173 64.1251 44.0125 62.4166C40.9775 59.7812 38.2125 56.85 35.7584 53.6666C35.1587 53.0137 34.7535 52.2062 34.5886 51.3352C34.4237 50.4642 34.5056 49.5644 34.825 48.7374C35.1924 47.9677 35.713 47.2809 36.3549 46.7193C36.9969 46.1576 37.7466 45.7328 38.5584 45.4708C39.9824 46.5215 41.5301 47.3933 43.1667 48.0666C44.0996 48.4148 45.1155 48.4758 46.0834 48.2416C46.7783 48.1054 47.4206 47.7759 47.9366 47.2909C48.4525 46.8059 48.8211 46.1851 49 45.5C49.4299 43.7365 49.158 41.8751 48.2417 40.3083C48.0959 40.075 47.3667 39.2583 47.0167 38.8791C47.4314 38.4276 47.8799 38.0083 48.3584 37.625C49.5834 36.5166 51.0417 35.35 51.5667 34.9125C51.7051 34.7987 51.8066 34.6465 51.8584 34.475L55.4167 38.3541C55.8256 38.8101 56.2641 39.2388 56.7292 39.6375C56.9032 39.7493 57.1057 39.8087 57.3125 39.8087C57.5194 39.8087 57.7218 39.7493 57.8959 39.6375C59.7917 38.5583 59.9959 36.7208 61.25 35.8166C61.6237 35.6065 62.0363 35.4748 62.4625 35.4297C62.8888 35.3845 63.3198 35.4269 63.7292 35.5541C64.0021 35.591 64.2677 35.6697 64.5167 35.7875C64.7806 35.8903 65.0344 36.0172 65.275 36.1666L66.15 36.8375L66.9084 37.625C67.5247 38.4638 67.7866 39.5114 67.6375 40.5416C67.6258 41.0036 67.5126 41.4573 67.306 41.8706C67.0993 42.284 66.8043 42.6468 66.4417 42.9333C65.8051 43.2228 65.1527 43.4759 64.4875 43.6916C64.2521 43.797 64.0434 43.9539 63.8768 44.1508C63.7102 44.3477 63.59 44.5795 63.525 44.8291C63.4772 45.3146 63.579 45.8031 63.8167 46.2291H63.9334Z" fill="white"/>
</g>
<defs>
<clipPath id="clip0_1_7235">
<rect width="70" height="70" fill="white"/>
</clipPath>
</defs>
</svg>
