<?xml version="1.0" encoding="UTF-8"?>
<!DOCTYPE svg PUBLIC "-//W3C//DTD SVG 1.1//EN" "http://www.w3.org/Graphics/SVG/1.1/DTD/svg11.dtd">
<!-- Creator: CorelDRAW 2020 (64-Bit) -->
<svg xmlns="http://www.w3.org/2000/svg" xml:space="preserve" width="284px" height="210px" version="1.1" style="shape-rendering:geometricPrecision; text-rendering:geometricPrecision; image-rendering:optimizeQuality; fill-rule:evenodd; clip-rule:evenodd"
viewBox="0 0 39.68 29.32"
 xmlns:xlink="http://www.w3.org/1999/xlink"
 xmlns:xodm="http://www.corel.com/coreldraw/odm/2003">
 <defs>
  <style type="text/css">
   <![CDATA[
    .fil1 {fill:#60B238}
    .fil2 {fill:#3B943D}
    .fil3 {fill:#68B54C;fill-rule:nonzero}
    .fil0 {fill:#3B943D;fill-rule:nonzero}
   ]]>
  </style>
 </defs>
 <g id="Слой_x0020_1">
  <metadata id="CorelCorpID_0Corel-Layer"/>
  <path class="fil0" d="M1.67 28.03l0 -0.56 1.45 0 0 1.33c-0.14,0.14 -0.34,0.26 -0.61,0.37 -0.27,0.1 -0.54,0.15 -0.81,0.15 -0.35,0 -0.66,-0.07 -0.92,-0.22 -0.26,-0.14 -0.45,-0.35 -0.58,-0.63 -0.13,-0.27 -0.2,-0.57 -0.2,-0.89 0,-0.35 0.07,-0.66 0.22,-0.93 0.15,-0.27 0.36,-0.48 0.64,-0.63 0.21,-0.11 0.48,-0.16 0.8,-0.16 0.41,0 0.74,0.09 0.97,0.26 0.24,0.18 0.39,0.42 0.45,0.72l-0.67 0.13c-0.05,-0.16 -0.14,-0.29 -0.27,-0.39 -0.12,-0.09 -0.29,-0.14 -0.48,-0.14 -0.3,0 -0.53,0.09 -0.7,0.28 -0.18,0.19 -0.26,0.46 -0.26,0.83 0,0.4 0.08,0.7 0.26,0.9 0.18,0.2 0.41,0.29 0.69,0.29 0.14,0 0.29,-0.02 0.43,-0.08 0.14,-0.05 0.26,-0.12 0.36,-0.2l0 -0.43 -0.77 0z"/>
  <polygon id="1" class="fil0" points="3.77,29.26 3.77,25.95 4.45,25.95 4.45,28.7 6.12,28.7 6.12,29.26 "/>
  <path id="2" class="fil0" d="M6.46 27.61c0,-0.34 0.05,-0.63 0.16,-0.86 0.07,-0.17 0.18,-0.32 0.31,-0.46 0.13,-0.13 0.27,-0.23 0.43,-0.3 0.21,-0.09 0.45,-0.13 0.72,-0.13 0.49,0 0.89,0.15 1.18,0.46 0.3,0.3 0.45,0.73 0.45,1.28 0,0.54 -0.15,0.96 -0.44,1.27 -0.3,0.3 -0.69,0.45 -1.18,0.45 -0.5,0 -0.89,-0.15 -1.19,-0.45 -0.29,-0.31 -0.44,-0.72 -0.44,-1.26zm0.7 -0.02c0,0.38 0.09,0.67 0.26,0.86 0.18,0.2 0.4,0.29 0.67,0.29 0.27,0 0.49,-0.09 0.66,-0.29 0.18,-0.19 0.26,-0.48 0.26,-0.87 0,-0.38 -0.08,-0.67 -0.25,-0.86 -0.17,-0.19 -0.39,-0.28 -0.67,-0.28 -0.28,0 -0.5,0.09 -0.68,0.28 -0.17,0.2 -0.25,0.48 -0.25,0.87z"/>
  <path id="3" class="fil0" d="M10.24 25.92l1.33 0c0.27,0 0.47,0.01 0.6,0.03 0.13,0.02 0.24,0.07 0.34,0.14 0.11,0.07 0.19,0.16 0.26,0.28 0.07,0.11 0.1,0.25 0.1,0.39 0,0.15 -0.04,0.3 -0.12,0.43 -0.09,0.13 -0.2,0.23 -0.34,0.29 0.2,0.06 0.35,0.16 0.46,0.31 0.11,0.14 0.17,0.31 0.17,0.5 0,0.15 -0.04,0.3 -0.11,0.45 -0.07,0.14 -0.17,0.26 -0.29,0.34 -0.12,0.09 -0.27,0.14 -0.45,0.16 -0.11,0.01 -0.39,0.02 -0.82,0.02l-1.13 0 0 -3.34zm0.67 0.55l0 0.78 0.45 0c0.26,0 0.42,-0.01 0.48,-0.02 0.12,-0.01 0.21,-0.05 0.28,-0.12 0.06,-0.06 0.1,-0.15 0.1,-0.26 0,-0.1 -0.03,-0.18 -0.09,-0.25 -0.06,-0.06 -0.14,-0.1 -0.25,-0.11 -0.07,-0.01 -0.26,-0.02 -0.58,-0.02l-0.39 0zm0 1.33l0 0.9 0.63 0c0.24,0 0.4,-0.01 0.46,-0.02 0.1,-0.02 0.18,-0.07 0.25,-0.14 0.06,-0.07 0.09,-0.16 0.09,-0.28 0,-0.1 -0.02,-0.19 -0.07,-0.26 -0.05,-0.07 -0.12,-0.12 -0.21,-0.15 -0.09,-0.03 -0.29,-0.05 -0.6,-0.05l-0.55 0z"/>
  <path id="4" class="fil0" d="M16.62 29.26l-0.73 0 -0.29 -0.76 -1.34 0 -0.28 0.76 -0.71 0 1.3 -3.34 0.71 0 1.34 3.34zm-1.24 -1.32l-0.46 -1.24 -0.45 1.24 0.91 0z"/>
  <polygon id="5" class="fil0" points="17,29.26 17,25.95 17.68,25.95 17.68,28.7 19.35,28.7 19.35,29.26 "/>
  <polygon id="6" class="fil0" points="21.8,29.26 21.8,26.48 20.81,26.48 20.81,25.92 23.46,25.92 23.46,26.48 22.48,26.48 22.48,29.26 "/>
  <polygon id="7" class="fil0" points="23.9,29.26 23.9,25.92 26.38,25.92 26.38,26.48 24.58,26.48 24.58,27.23 26.25,27.23 26.25,27.79 24.58,27.79 24.58,28.7 26.44,28.7 26.44,29.26 "/>
  <polygon id="8" class="fil0" points="26.68,29.26 27.83,27.52 26.78,25.92 27.57,25.92 28.23,26.91 28.89,25.92 29.68,25.92 28.63,27.52 29.78,29.26 28.97,29.26 28.23,28.13 27.49,29.26 "/>
  <polygon id="9" class="fil0" points="30.88,29.26 30.88,26.48 29.89,26.48 29.89,25.92 32.55,25.92 32.55,26.48 31.56,26.48 31.56,29.26 "/>
  <polygon id="10" class="fil0" points="32.96,29.26 32.96,25.92 33.64,25.92 33.64,29.26 "/>
  <polygon id="11" class="fil0" points="34.3,29.26 34.3,25.95 34.98,25.95 34.98,28.7 36.65,28.7 36.65,29.26 "/>
  <polygon id="12" class="fil0" points="37.13,29.26 37.13,25.92 39.61,25.92 39.61,26.48 37.81,26.48 37.81,27.23 39.48,27.23 39.48,27.79 37.81,27.79 37.81,28.7 39.68,28.7 39.68,29.26 "/>
  <path class="fil1" d="M19.13 23.32c0,-1.5 -0.77,-5.39 -2.26,-7.03 -3.7,-4.05 -9.36,-5.04 -9.08,-9.17 0,0 -3.16,3.25 0.61,7.71 1.21,1.42 2.31,2.01 3.44,2.71 2.47,1.53 4.75,2.41 6.11,5.28 0,0 -2.05,-2.11 -4.5,-2.98 -2.45,-0.88 -6.9,-2.69 -6.9,-6.81 0,0 -1.53,4.4 3.23,7.97 4.8,3.61 9.35,2.32 9.35,2.32zm0.85 0c0,-1.5 0.77,-5.39 2.26,-7.03 3.7,-4.05 9.36,-5.04 9.08,-9.17 0,0 3.16,3.25 -0.61,7.71 -1.21,1.42 -2.31,2.01 -3.45,2.71 -2.47,1.53 -4.75,2.41 -6.1,5.28 0,0 2.05,-2.11 4.5,-2.98 2.45,-0.88 6.9,-2.69 6.9,-6.81 0,0 1.53,4.4 -3.23,7.97 -4.8,3.61 -9.35,2.32 -9.35,2.32z"/>
  <path class="fil2" d="M21.56 7.16c-0.06,-0.04 -0.12,-0.07 -0.09,-0.13 0.02,-0.07 0.07,-0.12 0.13,-0.17 0,0 0.02,0 0.03,0.01 0.01,0.01 0,0.03 -0.01,0.05 -0.04,0.07 -0.07,0.14 -0.06,0.24zm-1.98 0.11c0,0.02 0,0.01 0.01,0.03 0.01,0.02 0.02,0.04 0.02,0.06l0 0 0.07 0c0.08,0.01 0.14,0.06 0.18,0.11 0.09,0.12 0.21,0.11 0.33,0.09 0.21,-0.04 0.28,0.03 0.37,0.22 0.04,0.07 0.09,0.21 0.23,0.2 0.03,0 0.05,0.01 0.06,0.03 0.06,0.09 0.1,0.07 0.12,-0.03 0.01,-0.04 0.03,-0.06 0.06,-0.08 0.08,-0.05 0.15,-0.11 0.22,-0.16 0.03,0.03 -0.01,0.04 -0.01,0.06 -0.02,0.03 -0.09,0.05 -0.04,0.1 0.03,0.03 0.09,0.1 0.15,0.02 0.02,-0.03 0.05,-0.02 0.07,0 0.01,0.01 0.02,0.02 0.03,0.03 0.04,0.03 0.11,-0.02 0.13,0.05 0,0.03 -0.17,0.13 -0.22,0.12 -0.05,0 -0.1,-0.02 -0.15,-0.03 -0.01,-0.03 0.05,-0.05 0.01,-0.09 -0.04,-0.03 -0.05,0.02 -0.08,0.03 -0.08,0.02 -0.12,0.08 -0.15,0.15 -0.02,0.05 -0.04,0.08 -0.1,0.08 -0.09,0.01 -0.08,0.06 -0.03,0.1 0.11,0.09 0.11,0.19 0.06,0.3 -0.02,0.04 -0.02,0.1 -0.09,0.07 -0.05,-0.02 -0.15,0.01 -0.13,-0.1 0.01,-0.05 -0.02,-0.07 -0.06,-0.09 -0.15,-0.08 -0.31,-0.17 -0.46,-0.25 -0.09,-0.04 -0.15,-0.09 -0.18,-0.18 -0.02,-0.08 -0.07,-0.11 -0.15,-0.11 -0.08,0.01 -0.13,-0.01 -0.14,-0.1 -0.01,-0.09 -0.19,-0.22 -0.25,-0.19 -0.07,0.06 -0.18,0.08 -0.22,0.18 -0.02,0.05 -0.04,0.08 -0.09,0.07 -0.05,-0.02 -0.05,-0.06 -0.05,-0.1 0.03,-0.15 0.02,-0.31 0.03,-0.47 0,-0.04 0.01,-0.06 0.05,-0.08 0.1,-0.03 0.2,-0.1 0.31,-0.1 0,0 0.01,0.01 0.01,0.01l0 0.01c0.01,0.02 0.02,0.03 0.03,0.04 0.01,0 0.03,0 0.05,0zm-2.93 -0.49c0.1,-0.02 0.12,0.07 0.13,0.11 0,0.07 -0.07,0.11 -0.14,0.13 -0.07,0.01 -0.22,-0.08 -0.2,-0.12 0.03,-0.11 0.12,-0.12 0.21,-0.12zm0.1 1.05c-0.16,-0.02 -0.31,-0.05 -0.42,-0.19 -0.14,-0.16 -0.29,-0.19 -0.53,-0.08 -0.15,0.07 -0.27,0 -0.4,-0.04 -0.07,-0.02 -0.08,-0.23 -0.02,-0.27 0.09,-0.06 0.16,-0.14 0.21,-0.24 0.04,-0.07 0.14,-0.07 0.19,-0.14 0.01,-0.01 0.04,-0.01 0.05,-0.03 0.1,-0.15 0.22,-0.04 0.33,-0.03 0.02,0 0.04,0.02 0.03,0.03 0,0.03 -0.03,0.03 -0.05,0.04 -0.09,0.03 -0.09,0.03 -0.02,0.09 0.02,0.02 0,0.04 0.01,0.07 0,0.1 0.07,0.16 0.15,0.11 0.19,-0.12 0.32,-0.06 0.45,0.09 0.09,0.1 0.19,0.18 0.29,0.27 0.06,0.06 0.01,0.25 -0.09,0.29 -0.05,0.02 -0.11,0.03 -0.18,0.03zm-2.18 -0.35c0.05,0 0.04,0.03 0.06,0.04 0.02,0.02 0.01,0.07 0.07,0.06 0.04,-0.01 0.04,-0.04 0.03,-0.07 0,-0.04 0.03,-0.03 0.06,-0.03 0.07,-0.02 0.11,0.03 0.17,0.05 0.08,0.04 0.09,0.07 0.01,0.14 -0.05,0.04 -0.16,0.11 -0.04,0.21 0.01,0 0.01,0.01 0.01,0.01 -0.16,0.12 0.09,0.24 -0.02,0.36 0.02,0.01 0.02,0.06 0.05,0.05 0.1,-0.01 0.12,0.06 0.17,0.12 0.08,0.09 0.1,0.09 0.18,0 0.05,-0.05 0.09,-0.02 0.13,0.02 0.07,0.08 0.14,0.19 0.27,0.15 0.11,-0.04 0.21,-0.07 0.32,-0.02 -0.03,0.34 -0.22,0.61 -0.44,0.86 -0.07,0.08 -0.29,0.05 -0.34,-0.02 -0.04,-0.07 -0.12,-0.08 -0.17,-0.05 -0.21,0.11 -0.38,0.05 -0.54,-0.09 -0.02,-0.02 -0.05,-0.03 -0.08,-0.04 -0.16,-0.08 -0.29,-0.18 -0.39,-0.33 -0.05,-0.07 -0.12,-0.13 -0.23,-0.1 -0.12,0.04 -0.21,0.08 -0.24,0.22 -0.02,0.1 -0.18,0.13 -0.25,0.05 -0.07,-0.08 -0.14,-0.15 -0.22,-0.21 -0.04,-0.03 -0.05,-0.07 -0.05,-0.11 0.02,-0.17 -0.1,-0.25 -0.22,-0.31 -0.13,-0.07 -0.17,-0.2 -0.21,-0.31 -0.03,-0.06 0.03,-0.1 0.08,-0.12 0.09,-0.04 0.15,-0.1 0.12,-0.2 -0.01,-0.05 0.02,-0.09 0.06,-0.12 0.03,-0.03 0.01,-0.05 0.01,-0.08 -0.01,-0.14 -0.11,-0.11 -0.19,-0.11 -0.04,0 -0.08,0 -0.11,-0.04 -0.05,-0.05 -0.09,-0.08 -0.16,-0.05 -0.03,0 -0.06,0 -0.09,-0.03 -0.15,-0.17 -0.36,-0.19 -0.56,-0.14 -0.14,0.03 -0.19,-0.09 -0.27,-0.14 -0.03,-0.02 -0.02,-0.09 0.02,-0.14 0.04,-0.05 0.07,-0.03 0.11,0 0.06,0.05 0.13,0.1 0.2,0.01 0.15,0.05 0.19,-0.12 0.3,-0.15 0.02,-0.01 0.03,-0.02 0.04,-0.04 0.04,-0.24 0.23,-0.28 0.43,-0.31 0.07,-0.01 0.11,-0.02 0.14,-0.09 0.05,-0.12 0.21,-0.13 0.29,-0.03 0.02,0.04 0.05,0.05 0.09,0.04 0.07,-0.03 0.14,-0.04 0.21,-0.06 0.11,-0.03 0.21,0.04 0.16,0.14 -0.1,0.25 0.03,0.44 0.12,0.64 0.06,0.12 0.1,0.24 0.05,0.37 -0.03,0.09 -0.07,0.13 -0.17,0.1 -0.08,-0.02 -0.15,-0.04 -0.23,-0.06 -0.03,0 -0.06,-0.02 -0.09,0.01 -0.02,0.04 -0.01,0.07 0.01,0.1 0.01,0.01 0.02,0.03 0.03,0.04 0.04,0.05 0.07,0.13 0.12,0.14 0.07,0.03 0.08,-0.09 0.14,-0.11 0.09,-0.03 0.16,-0.11 0.25,-0.15 0.04,-0.02 0.07,-0.03 0.06,-0.07 -0.02,-0.08 -0.01,-0.16 0.07,-0.18 0.08,-0.02 0.1,0.07 0.13,0.13 0.04,-0.03 0.03,-0.06 0.01,-0.09 -0.04,-0.06 -0.07,-0.13 -0.11,-0.2 -0.01,-0.02 -0.04,-0.05 -0.02,-0.08 0.03,-0.06 0.02,-0.08 -0.03,-0.11 -0.05,-0.02 -0.05,-0.07 -0.04,-0.12 0,-0.1 0.01,-0.21 -0.03,-0.31 -0.03,-0.09 0.03,-0.17 0.08,-0.23 0.02,-0.02 0.08,-0.03 0.12,-0.02 0.06,0.02 0,0.07 0,0.1 0,0.02 -0.01,0.05 0.01,0.05 0.14,-0.03 0.07,0.08 0.06,0.11 -0.04,0.17 0.08,0.29 0.15,0.41 0.09,0.13 0.1,0.18 0.01,0.32 -0.05,0.07 -0.07,0.14 -0.05,0.23 0.02,0.14 0.06,0.28 -0.01,0.43 -0.04,0.09 0.03,0.16 0.07,0.24 0.01,0.01 0.05,0.01 0.08,0.01 0.03,-0.01 0.03,-0.05 0.03,-0.07 -0.03,-0.09 0.1,-0.07 0.1,-0.15 0,-0.01 0.04,0.05 0.08,0.03 0.06,-0.03 0.11,-0.09 0.06,-0.15 -0.09,-0.12 -0.01,-0.23 -0.03,-0.35zm0.79 2.66c0.05,-0.02 0.07,0.04 0.1,0.02 0.11,-0.08 0.14,0 0.17,0.08 0.07,0.2 0.18,0.38 0.19,0.6 0,0.03 0.01,0.06 0.04,0.08 0.17,0.14 0.2,0.34 0.18,0.55 -0.01,0.06 0.01,0.12 0.05,0.16 0.24,0.22 0.31,0.53 0.45,0.81 0.01,0.01 0.01,0.04 0,0.05 -0.06,0.24 0.02,0.46 0.07,0.68 0.01,0.02 0.01,0.04 0.01,0.08 -0.11,-0.13 -0.2,-0.24 -0.29,-0.35 -0.03,-0.05 -0.08,-0.09 -0.13,-0.12 -0.12,-0.06 -0.21,-0.15 -0.23,-0.29 -0.02,-0.1 -0.05,-0.2 -0.07,-0.3 -0.02,-0.07 -0.06,-0.12 -0.11,-0.16 -0.07,-0.06 -0.1,-0.13 -0.09,-0.22 0.01,-0.1 0,-0.21 0.02,-0.31 0.02,-0.12 -0.04,-0.22 -0.13,-0.31 -0.07,-0.07 -0.1,-0.15 -0.05,-0.25 0.01,-0.03 0,-0.05 -0.01,-0.07 -0.11,-0.23 -0.1,-0.48 -0.17,-0.73zm-0.96 -6.3c-0.05,0.03 -0.18,0.01 -0.07,0.13 0.02,0.04 -0.03,0.05 -0.05,0.06 -0.2,0.08 -0.25,0.26 -0.29,0.44 -0.01,0.05 -0.05,0.08 -0.09,0.11 -0.04,0.04 -0.08,0.07 -0.01,0.13 0.08,0.07 -0.03,0.1 -0.06,0.14l0 0c-0.03,0.01 -0.06,0.01 -0.08,0.03 -0.03,0.04 -0.02,0.12 -0.12,0.09 -0.06,-0.01 -0.11,-0.05 -0.17,-0.07 -0.01,0.01 -0.01,0.01 -0.02,0 -0.04,-0.05 -0.09,-0.07 -0.14,-0.03 -0.06,0.03 -0.09,0 -0.14,-0.04 0.08,-0.03 0.14,-0.07 0.22,-0.07 0.08,0.01 0.06,-0.03 0.04,-0.07 -0.01,-0.06 -0.01,-0.12 0.08,-0.12 0.04,0 0.08,-0.01 0.09,-0.06 0,-0.04 0.04,-0.03 0.07,-0.03 0.08,0 0.24,-0.13 0.24,-0.2 0,-0.05 -0.05,-0.06 -0.08,-0.05 -0.08,0.02 -0.18,0.01 -0.23,0.09 -0.03,0.04 -0.07,0.05 -0.09,0.08 -0.08,0.14 -0.2,0.09 -0.31,0.07 -0.05,-0.01 -0.05,-0.04 -0.02,-0.08 0.02,-0.01 0.04,-0.01 0.05,-0.03 0.07,-0.05 0.2,-0.03 0.21,-0.17 0,0 0.07,-0.1 0.15,-0.05 0.01,0.01 0.04,0 0.06,-0.02 0.05,-0.06 0.09,-0.08 0.16,-0.01 0.04,0.04 0.18,0 0.2,-0.07 0.03,-0.12 0.18,-0.15 0.18,-0.3 0.07,0.09 0.07,0.09 0.16,0.05 0.03,-0.02 0.05,-0.03 0.08,0 0.02,0.02 0,0.04 -0.02,0.05zm13.34 1.34c0.09,0.09 0.21,0.16 0.27,0.28 0.1,0.18 0.23,0.35 0.35,0.53 0.03,0.05 0.03,0.15 0.04,0.19 0.06,0.11 -0.03,0.22 0.03,0.32 0.05,0.09 -0.04,0.17 -0.03,0.26 0,0.14 -0.02,0.28 0.05,0.42 0.01,0.01 0.02,0.03 0.02,0.04 0,0.04 0.05,0.09 0,0.11 -0.06,0.02 -0.06,-0.05 -0.08,-0.08 -0.02,-0.06 -0.04,-0.12 -0.11,-0.13 -0.03,-0.01 -0.06,-0.06 -0.06,-0.08 0.02,-0.17 -0.09,-0.32 -0.07,-0.49 0,-0.07 0.03,-0.12 0.06,-0.17 0.03,-0.05 0.05,-0.09 0.02,-0.15 -0.06,-0.09 -0.09,-0.19 -0.1,-0.31 -0.01,-0.17 -0.11,-0.33 -0.23,-0.46 -0.08,-0.08 -0.15,-0.16 -0.16,-0.28zm-8.31 -1.91c-0.1,0 -0.16,-0.02 -0.24,-0.06 -0.14,-0.08 -0.02,-0.13 -0.02,-0.18 0,-0.01 0.02,-0.03 0.03,-0.04 0.1,-0.06 0.14,-0.17 0.22,-0.26 0.06,-0.07 0.16,-0.11 0.25,-0.14 0.08,-0.01 0.15,-0.01 0.22,-0.05 0.03,-0.01 0.05,-0.01 0.06,0.02 0.01,0.03 -0.02,0.03 -0.04,0.04 -0.12,0.06 -0.27,0.08 -0.37,0.19 -0.07,0.08 -0.15,0.14 -0.21,0.22 -0.04,0.05 -0.04,0.11 0.01,0.16 0.02,0.03 0.05,0.05 0.09,0.1zm-1.2 -1.2c-0.02,0.05 -0.03,0.11 -0.04,0.16 -0.01,0.05 -0.05,0.06 -0.08,0.05 -0.04,-0.01 -0.02,-0.04 -0.01,-0.06 0.01,-0.05 -0.04,-0.04 -0.06,-0.03 -0.05,0.02 -0.09,0.05 -0.14,0.07 -0.02,0.01 -0.04,0.03 -0.06,0.01 -0.03,-0.02 -0.01,-0.05 0,-0.07 0.06,-0.07 0.12,-0.16 0.19,-0.21 0.07,-0.04 0.15,-0.02 0.2,0.06 0.01,0 0.01,0.01 0.01,0.01 -0.01,0.01 -0.01,0.01 -0.01,0.01zm9.34 3.01c-0.04,-0.06 -0.09,-0.12 -0.11,-0.21 -0.02,-0.08 -0.11,-0.15 -0.17,-0.22 -0.01,-0.01 -0.03,-0.02 -0.03,-0.04 0.05,-0.03 0.18,0.13 0.16,-0.07 0.12,0.1 0.12,0.27 0.21,0.38 0.01,0.01 0.01,0.03 0,0.03 -0.09,0.02 -0.05,0.09 -0.06,0.13l0 0zm0.12 5.5c0,0.04 0,0.08 -0.01,0.11 -0.02,0.06 -0.03,0.14 -0.1,0.16 -0.06,0.01 -0.07,-0.06 -0.1,-0.1 -0.04,-0.07 -0.02,-0.13 0.03,-0.19 0.01,-0.02 0.04,-0.03 0.07,-0.05 0.03,-0.01 0.05,-0.06 0.09,-0.04 0.04,0.03 0.01,0.07 0.02,0.11zm1.1 -0.16c-0.02,-0.07 -0.04,-0.14 -0.06,-0.21 -0.02,-0.05 0,-0.08 0.05,-0.1 0.06,-0.03 0.08,-0.02 0.1,0.04 0.03,0.05 0.04,0.11 0.04,0.15 -0.04,0.04 -0.09,0.08 -0.13,0.12zm-0.28 -0.96c-0.15,-0.12 -0.19,-0.31 -0.12,-0.58 0.07,0.2 0.08,0.38 0.12,0.58zm-7.62 -7.37c-0.11,0.07 -0.21,0 -0.31,-0.01 -0.05,0 -0.06,-0.07 -0.04,-0.11 0.01,-0.04 0.06,-0.03 0.08,-0.01 0.08,0.07 0.21,0.01 0.27,0.13zm1.41 -0.25c-0.06,0 -0.12,-0.01 -0.14,-0.07 -0.01,-0.05 0.03,-0.07 0.08,-0.09 0.04,-0.01 0.05,-0.06 0.1,-0.07 0.02,-0.01 0.04,0 0.05,0.02 0.01,0.02 -0.02,0.02 -0.03,0.03 -0.07,0.02 -0.03,0.05 -0.01,0.08 0.04,0.06 0.03,0.1 -0.05,0.1zm1.11 12.09c0,-0.04 0,-0.08 0.01,-0.12 0,-0.05 -0.03,-0.14 0.02,-0.14 0.06,0 0.11,0.08 0.15,0.13 0.02,0.02 0.01,0.04 -0.02,0.05 -0.05,0.03 -0.09,0.07 -0.16,0.08zm-5.18 -11.86c0,-0.01 0,-0.01 0,-0.02 0.07,-0.09 0.15,-0.04 0.24,-0.03 0.01,0.01 0.02,0.03 0.02,0.04 0,0.02 -0.02,0.02 -0.04,0.03 -0.08,0.05 -0.15,0 -0.22,-0.02zm2.79 -0.02c0.03,0 0.07,0.01 0.07,0.04 0,0.03 -0.02,0.07 -0.05,0.07 -0.04,0 -0.05,-0.04 -0.06,-0.08 -0.02,-0.03 0.01,-0.03 0.04,-0.03zm5.86 2.19c0.07,0.04 0.11,0.07 0.15,0.09 0.01,0.01 0.04,0.02 0.02,0.04 -0.01,0.02 -0.03,0.01 -0.05,0 -0.04,-0.03 -0.08,-0.05 -0.12,-0.13zm-0.18 -0.14c0.01,0 0.02,-0.01 0.03,-0.01 0.05,0.03 0.07,0.07 0.12,0.13 -0.09,-0.03 -0.12,-0.07 -0.15,-0.12zm0.87 0.98c0.01,0 0.02,0 0.04,0 0.03,0.01 0.06,0.01 0.06,0.05 0,0.01 -0.01,0.03 -0.01,0.03 -0.03,0 -0.05,-0.02 -0.07,-0.04 -0.01,-0.01 -0.01,-0.03 -0.02,-0.04 0,0 0,0 0,0zm2.55 3.92c-0.43,-2.11 -1.48,-4 -2.94,-5.46 -0.93,-0.93 -2.02,-1.69 -3.23,-2.23 -0.11,-0.03 -0.23,-0.06 -0.35,-0.09 -0.02,-0.01 -0.04,-0.01 -0.07,0 -0.02,0 -0.05,-0.02 -0.06,0.02 0,0.03 0.02,0.04 0.04,0.06 0.08,0.05 0.18,0.08 0.28,0.09 0.08,0.01 0.15,0.05 0.22,0.1 0.13,0.09 0.27,0.17 0.41,0.24 0.77,0.37 0.26,0.4 0.26,0.4 -0.01,0.02 -0.01,0.04 0.01,0.06 0.12,0.11 0.24,0.22 0.4,0.28 0.04,0.01 0.06,0.03 0.08,0.07 0.02,0.05 -0.03,0.04 -0.05,0.05 -0.02,0.02 -0.04,0.06 -0.02,0.07 0.05,0.05 0.03,0.1 0.02,0.14 -0.02,0.13 0.04,0.21 0.12,0.3 0.14,0.17 0.3,0.33 0.38,0.54 0.02,0.04 0.04,0.11 0.1,0.09 0.05,-0.02 0.15,0.02 0.15,-0.09 0,-0.02 0.01,-0.03 0.02,-0.03 0.1,0.03 0.2,-0.03 0.29,0.04 0.15,0.11 0.31,0.21 0.47,0.3 0.07,0.03 0.04,0.1 0.08,0.14 -0.01,0.01 -0.02,0.02 -0.03,0.01 -0.09,-0.08 -0.18,-0.15 -0.27,-0.23 -0.03,-0.03 -0.07,-0.05 -0.1,-0.02 -0.03,0.04 0.02,0.07 0.04,0.08 0.25,0.19 0.44,0.43 0.6,0.7 0.1,0.17 0.2,0.35 0.3,0.53 0.03,0.06 0.02,0.13 0.03,0.19 0.01,0.02 0.01,0.06 -0.03,0.05 -0.12,0 -0.06,0.06 -0.04,0.12 0.04,0.12 0.06,0.24 0.15,0.35 0.05,0.05 0.03,0.17 0.03,0.25 0,0.08 0.04,0.12 0.11,0.15 0.22,0.1 0.39,0.26 0.46,0.49 0.02,0.08 0,0.19 -0.05,0.29 -0.05,-0.06 -0.1,-0.12 -0.12,-0.2 -0.01,-0.04 -0.04,-0.08 -0.08,-0.1 -0.04,-0.04 -0.08,-0.08 -0.09,-0.15 -0.01,-0.07 -0.07,-0.12 -0.14,-0.07 -0.06,0.04 -0.08,0.03 -0.1,-0.03 -0.01,-0.05 -0.03,-0.09 -0.05,-0.14 -0.02,-0.04 -0.03,-0.1 -0.09,-0.07 -0.06,0.01 -0.12,0.02 -0.12,0.11 0,0.04 0.03,0.12 -0.03,0.13 -0.08,0.01 -0.06,-0.08 -0.08,-0.12 0,-0.01 -0.01,-0.03 -0.01,-0.05 0,-0.05 -0.04,-0.1 -0.09,-0.09 -0.06,0 -0.04,0.07 -0.04,0.11 0,0.2 0.15,0.32 0.24,0.47 0.01,0.04 0.04,0.02 0.06,0 0.02,-0.03 0.06,-0.04 0.09,-0.05 0.04,0 0.07,-0.03 0.1,0.02 0.03,0.04 -0.01,0.06 -0.03,0.08 -0.06,0.08 -0.02,0.17 -0.01,0.25 0.02,0.11 0.07,0.2 0.16,0.28 0.11,0.09 0.22,0.21 0.3,0.32 0.14,0.17 0.31,0.37 0.31,0.61 -0.01,0.13 0.05,0.26 0.02,0.39 -0.02,0.04 -0.01,0.11 0.01,0.14 0.06,0.11 -0.02,0.22 0,0.32 0.02,0.13 -0.09,0.23 -0.07,0.35 0.02,0.06 -0.03,0.11 -0.08,0.13 -0.07,0.03 -0.09,0.13 -0.19,0.12 0,0 -0.01,0.01 -0.01,0.02 0.04,0.19 -0.15,0.26 -0.22,0.4 -0.01,0.04 -0.01,0.06 -0.01,0.1 -0.01,0.03 0.03,0.07 -0.01,0.11 -0.04,-0.02 -0.04,-0.06 -0.05,-0.09 -0.01,-0.03 0.01,-0.1 -0.04,-0.1 -0.06,0 -0.13,0 -0.18,0.06 -0.14,0.16 -0.18,0.35 -0.18,0.55 0,0.04 0,0.08 0.03,0.11 0.11,0.12 0.19,0.27 0.37,0.32 0.01,0 0.03,0.02 0.04,0.03 -0.22,0.15 -0.44,0.29 -0.64,0.42 -0.22,0.14 -0.45,0.29 -0.67,0.43 -0.05,-0.09 -0.06,-0.2 -0.08,-0.3 -0.01,-0.07 -0.05,-0.1 -0.1,-0.13 -0.02,-0.02 -0.05,-0.02 -0.06,0 -0.03,0.09 -0.12,0.11 -0.16,0.19 -0.03,0.08 -0.11,0.07 -0.17,0.06 -0.04,0 -0.02,-0.07 -0.02,-0.1 0,-0.13 0,-0.25 -0.07,-0.36 -0.02,-0.01 -0.02,-0.04 -0.04,-0.05 -0.05,-0.02 -0.12,-0.02 -0.06,-0.11 0.02,-0.03 -0.02,-0.08 -0.07,-0.08 -0.11,0 -0.17,-0.07 -0.22,-0.15 -0.05,-0.08 -0.11,-0.14 -0.15,-0.22 -0.03,-0.05 -0.07,-0.06 -0.12,-0.05 -0.05,0 -0.03,0.05 -0.04,0.08 -0.01,0.04 -0.05,0.06 -0.09,0.09 -0.04,0.03 -0.11,0.02 -0.11,0.08 0,0.03 -0.02,0.02 -0.03,0.02 -0.17,-0.04 -0.29,0.07 -0.29,0.24 0,0.08 -0.05,0.15 -0.11,0.2 -0.11,0.08 -0.2,0.17 -0.25,0.3 -0.02,0.07 -0.09,0.11 -0.14,0.17 -0.06,0.07 -0.15,0.13 -0.15,0.24 0,0.01 -0.01,0.03 -0.02,0.03 -0.13,0.03 -0.16,0.18 -0.29,0.22 -0.06,0.02 -0.05,0.1 -0.04,0.15 0,0.06 0.02,0.12 0.04,0.18 0.02,0.08 0.03,0.16 0,0.24 -0.04,0.12 -0.04,0.25 -0.02,0.37 0.01,0.05 0.01,0.09 -0.06,0.11 -0.06,0.02 -0.09,0.09 -0.08,0.15 0,0.04 -0.01,0.06 -0.05,0.08 -0.03,0.01 -0.06,0.02 -0.07,0.06 -0.02,0.06 -0.05,0.15 -0.12,0.13 -0.08,-0.02 -0.17,-0.06 -0.21,-0.16 -0.05,-0.14 -0.09,-0.28 -0.16,-0.41 -0.14,-0.26 -0.3,-0.52 -0.43,-0.79 -0.11,-0.23 -0.17,-0.47 -0.2,-0.72 -0.02,-0.11 0,-0.23 -0.06,-0.34 -0.01,-0.02 -0.02,-0.04 -0.04,-0.08 -0.04,0.07 -0.02,0.13 -0.08,0.17 -0.14,0.1 -0.16,0.1 -0.3,0 -0.06,-0.05 -0.13,-0.1 -0.19,-0.16 0.04,-0.04 0.1,-0.05 0.14,-0.07 0.03,-0.01 0.06,-0.02 0.05,-0.06 -0.01,-0.03 -0.05,-0.03 -0.06,-0.02 -0.11,0.06 -0.18,-0.02 -0.25,-0.08 -0.05,-0.04 -0.07,-0.13 -0.16,-0.09 -0.01,0 -0.02,-0.01 -0.03,-0.02 -0.02,-0.08 -0.03,-0.16 -0.15,-0.16 0,0 -0.01,-0.01 -0.01,-0.02 -0.01,-0.17 -0.13,-0.09 -0.21,-0.08 -0.17,0.03 -0.34,0.07 -0.51,0.1 -0.08,0.01 -0.16,0 -0.24,0 -0.13,-0.05 -0.26,-0.06 -0.39,-0.08 -0.17,-0.02 -0.32,-0.04 -0.34,-0.25 0,-0.06 -0.05,-0.07 -0.1,-0.04 -0.2,0.13 -0.37,0.11 -0.54,-0.05 -0.06,-0.06 -0.13,-0.11 -0.22,-0.13 -0.05,-0.01 -0.07,-0.04 -0.09,-0.09 -0.03,-0.09 -0.07,-0.18 -0.11,-0.27 -0.02,-0.06 -0.04,-0.09 -0.12,-0.1 -0.08,-0.01 -0.14,0 -0.21,0 -0.06,0 -0.08,0.02 -0.07,0.07 0.04,0.2 0.06,0.4 0.23,0.53 0.05,0.04 0.08,0.09 0.05,0.16 -0.03,0.08 0.04,0.14 0.07,0.2 0.02,0.02 0.05,0.03 0.06,-0.01 0.01,-0.03 0.02,-0.06 0.03,-0.09 0.01,-0.03 0.03,-0.04 0.07,-0.03 0.03,0.01 0.02,0.04 0.02,0.06 -0.01,0.04 -0.02,0.09 -0.03,0.13 -0.01,0.05 -0.04,0.1 0.01,0.13 0.05,0.03 0.1,0.1 0.18,0.04 0.03,-0.03 0.06,-0.02 0.1,-0.01 0.11,0.02 0.22,0.02 0.3,-0.1 0.07,-0.09 0.15,-0.16 0.25,-0.26 0.01,0 0.01,0 0.02,0 0.01,0.08 0.01,0.14 0.01,0.19 0,0.09 0.05,0.16 0.11,0.21 0.06,0.05 0.14,0.05 0.21,0.07 0.08,0.02 0.28,0.23 0.25,0.29 -0.06,0.1 -0.11,0.26 -0.21,0.29 -0.14,0.05 -0.13,0.12 -0.12,0.22 0,0.07 -0.02,0.09 -0.09,0.11 -0.05,0.01 -0.13,0.02 -0.14,0.1 -0.01,0.07 -0.07,0.08 -0.13,0.09 -0.03,0.01 -0.1,-0.03 -0.1,0.05 -0.05,0.1 -0.12,0.14 -0.22,0.15 -0.07,0 -0.14,0.03 -0.21,0.04 -0.08,0 -0.13,0.02 -0.13,0.11 0,0.05 -0.05,0.07 -0.09,0.08 -0.14,0.04 -0.27,0.09 -0.41,0.12 -0.11,0.03 -0.18,0.14 -0.3,0.14 -0.1,0 -0.19,0.02 -0.28,0.04 -0.08,0.01 -0.17,0.01 -0.24,0.09 -0.06,0.07 -0.15,0.05 -0.23,0.04 -0.04,0 -0.1,-0.02 -0.1,0.01 0,0.06 -0.05,0.11 -0.01,0.17 0.06,0.08 0.12,0.15 0.18,0.22 0.02,0.04 0.06,0.03 0.09,0.02 0.08,-0.03 0.16,-0.05 0.25,-0.02 0.03,0.01 0.07,0 0.1,-0.01 0.09,-0.05 0.19,-0.06 0.29,-0.05 0.13,0.01 0.26,-0.02 0.38,-0.08 0.04,-0.02 0.09,-0.03 0.12,0 0.04,0.03 0.01,0.07 0,0.11 -0.02,0.29 -0.19,0.51 -0.33,0.74 -0.18,0.29 -0.36,0.57 -0.63,0.78 -0.1,0.07 -0.13,0.1 -0.19,0.07 -1.41,-1.38 -3.02,-2.4 -4.68,-3.48 -0.89,-0.58 -2.08,-1.34 -2.85,-2.24 0,-0.02 0.01,-0.03 0.01,-0.04 0.07,-0.23 0.16,-0.45 0.18,-0.7 0.01,-0.05 0.04,-0.1 0.07,-0.14 0.13,-0.2 0.3,-0.36 0.44,-0.55 0.05,-0.07 0.14,-0.13 0.21,-0.2 0.01,-0.02 0.03,-0.02 0.05,-0.02 0.18,0.04 0.28,-0.08 0.34,-0.22 0.09,-0.2 0.22,-0.35 0.44,-0.4 0.17,-0.05 0.24,-0.21 0.37,-0.3 0.04,-0.02 0.02,-0.11 0.04,-0.17 0.03,-0.09 -0.03,-0.11 -0.09,-0.13 -0.06,-0.04 -0.01,-0.07 0.01,-0.11 0.11,-0.26 0.34,-0.43 0.51,-0.64 0.03,-0.05 0.07,-0.09 0.08,-0.14 0.01,-0.06 0.04,-0.1 0.11,-0.1 0.06,-0.01 0.09,0.01 0.13,0.07 0.07,0.09 0.17,0.16 0.27,0.24 0.02,0.02 0.05,0.01 0.07,-0.02 0.1,-0.11 0.24,-0.21 0.29,-0.34 0.04,-0.1 0.17,-0.22 0.03,-0.36 -0.05,-0.05 0.04,-0.09 0.06,-0.15 0.06,-0.04 0.12,-0.02 0.17,0.03 0.02,0.02 0.03,0.05 0.06,0.02 0.01,-0.01 0.01,-0.02 0.02,-0.03 0.04,-0.06 0.07,-0.11 0.14,-0.02 0.06,0.09 0.14,0.04 0.2,0 0.07,-0.06 0.13,-0.1 0.22,-0.08 0.05,0.01 0.1,-0.02 0.13,-0.04 0.17,-0.14 0.35,-0.18 0.56,-0.14 0.05,0.01 0.08,-0.03 0.09,-0.07 0.06,-0.15 0.22,-0.23 0.32,-0.35 0.01,-0.02 0.04,-0.03 0.07,-0.03 0.06,-0.01 0.14,-0.05 0.17,0 0.04,0.06 -0.05,0.08 -0.07,0.13 -0.04,0.09 -0.11,0.13 -0.21,0.14 -0.08,0.01 -0.11,0.07 -0.1,0.14 0,0.08 0.06,0.1 0.13,0.1 0.05,0 0.12,-0.01 0.11,0.08 0,0.04 0.04,0.03 0.07,0.03 0.13,-0.03 0.25,-0.04 0.37,0.05 0.05,0.04 0.23,-0.06 0.29,-0.15 0.04,-0.05 0.07,-0.1 0.12,-0.14 0.09,-0.08 0.14,-0.09 0.23,-0.02 0.08,0.05 0.09,0.01 0.1,-0.05 0.04,-0.2 0.17,-0.28 0.36,-0.2 0.08,0.03 0.15,0.02 0.23,0 -0.03,-0.04 -0.08,-0.03 -0.12,-0.04 -0.08,0 -0.16,0 -0.25,0.01 -0.08,0 -0.12,-0.03 -0.16,-0.1 -0.03,-0.08 0,-0.13 0.04,-0.18 0.02,-0.01 0.05,-0.03 0.05,-0.06 0.04,-0.17 0.18,-0.22 0.33,-0.27 0.08,-0.03 0.15,-0.06 0.23,-0.1 0.03,-0.01 0.05,-0.03 0.04,-0.07 -0.01,-0.03 -0.05,-0.03 -0.07,-0.03 -0.04,0.01 -0.09,0.02 -0.11,0.05 -0.11,0.14 -0.26,0.18 -0.41,0.22 -0.19,0.04 -0.3,0.16 -0.32,0.35 0,0.08 -0.12,0.19 -0.22,0.19 -0.1,0.01 -0.15,0.06 -0.21,0.14 -0.07,0.1 -0.18,0.16 -0.31,0.2 -0.12,0.04 -0.25,0 -0.36,0.06 -0.02,0.01 -0.14,-0.09 -0.14,-0.12 -0.01,-0.05 0.03,-0.08 0.07,-0.09 0.05,-0.01 0.1,-0.02 0.16,-0.02 0.06,0.01 0.11,-0.02 0.13,-0.08 0.03,-0.09 0.06,-0.18 0.1,-0.26 0.01,-0.02 0.03,-0.04 0.01,-0.05 -0.01,-0.03 -0.04,-0.02 -0.06,-0.01 -0.04,0.02 -0.08,0.04 -0.12,0.05 -0.05,0.01 -0.11,0.01 -0.14,-0.04 -0.03,-0.06 -0.03,-0.11 0.02,-0.16 0.07,-0.08 0.13,-0.17 0.22,-0.23 0.05,-0.05 0.12,-0.08 0.16,-0.14 0.06,-0.07 0.15,-0.04 0.22,-0.06 0.32,-0.05 0.6,-0.19 0.88,-0.34 0.08,-0.05 0.19,-0.03 0.25,-0.12 0.02,-0.03 0.05,-0.04 0.05,-0.07 0.01,-0.03 0.04,-0.05 0.05,-0.04 0.12,0.08 0.23,-0.04 0.35,-0.02 0.11,0.02 0.23,0.03 0.34,-0.04 0.06,-0.04 0.26,0.03 0.29,0.09 0.04,0.06 0.04,0.06 -0.02,0.09 0.18,0.12 0.39,0.2 0.48,0.41 0.04,0.07 0.01,0.09 -0.04,0.12 -0.11,0.08 -0.2,0.09 -0.31,0.01 -0.06,-0.05 -0.14,-0.07 -0.23,-0.12 0.02,0.06 -0.01,0.11 0.05,0.15 0.02,0.02 0,0.03 -0.02,0.04 -0.08,0.11 -0.07,0.17 0.04,0.25 0.02,0.02 0.04,0.02 0.06,0.01 0.02,-0.02 0.02,-0.03 0.01,-0.05 -0.03,-0.03 -0.05,-0.07 -0.01,-0.1 0.04,-0.04 0.07,0.01 0.1,0.03 0.03,0.01 0.05,0.03 0.08,0.04 0.05,0.03 0.07,0.02 0.08,-0.04 0.01,-0.12 0.2,-0.19 0.29,-0.12 0.04,0.03 0.07,0.04 0.09,-0.02 0.03,-0.09 0.08,-0.17 0.09,-0.27 0.04,0.01 0.07,0.02 0.1,0.04 0.02,0 0.03,0.01 0.04,0.03 0,0.03 -0.03,0.03 -0.04,0.04 -0.03,0.02 -0.08,0 -0.07,0.05 0,0.02 0,0.06 0.04,0.06 0.04,0 0.1,0.03 0.13,-0.02 0.08,-0.13 0.23,-0.12 0.35,-0.16 0.02,-0.01 0.07,-0.02 0.09,0.02 0.02,0.03 0.06,0.03 0.08,0.02 0.13,-0.05 0.26,-0.07 0.4,-0.07 0.06,0 0.05,-0.04 0.03,-0.08 -0.02,-0.06 -0.09,-0.07 -0.12,-0.11 0.19,0.08 0.4,0.08 0.57,0.2 0.03,0.02 0.07,0.06 0.11,0.02 0.02,-0.02 0.04,-0.06 0.02,-0.09 -0.01,-0.04 -0.04,-0.06 -0.09,-0.07 -0.08,0 -0.15,-0.15 -0.09,-0.21 0.05,-0.04 0.06,-0.08 0.06,-0.14 -0.01,-0.08 0.04,-0.11 0.11,-0.1 0.05,0.01 0.12,0.02 0.09,0.11 0,0.02 0,0.05 0.01,0.08 0,0.02 0.02,0.04 0.04,0.04 0.03,0.01 0.04,-0.01 0.05,-0.04 0.02,-0.06 0.06,-0.1 0.14,-0.08 0.07,0.01 0.13,-0.08 0.21,-0.07 0.02,0 0.02,-0.04 0,-0.07 -0.02,-0.02 -0.04,-0.05 -0.06,-0.09 0.06,-0.02 0.12,-0.04 0.18,-0.06 0.07,-0.02 0.1,-0.05 0.02,-0.1 -0.05,-0.04 -0.05,-0.07 0.01,-0.1 0.09,-0.05 0.13,-0.19 0.27,-0.16 0.01,-0.06 0.11,-0.09 0.04,-0.17 -0.02,-0.02 -0.03,-0.04 0,-0.07 0.02,-0.02 0.05,-0.01 0.07,0 0.08,0.04 0.15,0.06 0.24,0 0.12,-0.07 0.32,0.07 0.31,0.22 0,0.01 0,0.03 0,0.05 0.01,0.04 0,0.08 0.04,0.09 0.05,0 0.06,-0.03 0.05,-0.08 -0.01,-0.1 0.06,-0.06 0.1,-0.05 0.05,0.01 0.08,0.04 0.11,-0.04 0.02,-0.05 0.08,-0.05 0.14,-0.03 0.05,0.02 0.1,0.02 0.14,-0.02 0.04,-0.05 -0.02,-0.07 -0.03,-0.1 0.12,-0.06 0.23,-0.07 0.33,0.02 0.03,0.03 0.09,0.03 0.13,0.03 0.05,0.01 0.1,0 0.04,-0.06 -0.04,-0.05 0.02,-0.04 0.03,-0.06 0.08,-0.1 0.07,-0.13 -0.04,-0.17 -0.05,-0.02 -0.09,-0.06 -0.07,-0.09 0.03,-0.06 0.07,-0.12 0.15,-0.11 0.16,0.02 0.16,0.02 0.14,-0.12 -0.01,-0.08 0.05,-0.06 0.08,-0.05 0.11,0.02 0.1,-0.02 0.07,-0.1 -0.03,-0.08 -0.04,-0.15 -0.16,-0.15 -0.08,-0.01 -0.15,-0.15 -0.15,-0.25 0.01,-0.05 -0.03,-0.12 -0.07,-0.14 -0.11,-0.05 -0.24,-0.12 -0.36,-0.12 -0.13,0.01 -0.24,-0.02 -0.36,-0.05 -0.25,-0.04 -0.5,-0.1 -0.75,-0.17 -0.03,-0.01 -0.06,-0.01 -0.1,-0.02 -0.01,-0.06 0.03,-0.06 0.07,-0.07 0.05,0.01 0.1,0.01 0.15,0.02 -0.63,-0.12 -1.29,-0.18 -1.96,-0.18 -0.04,0 -0.08,0 -0.13,0 0.04,0.05 0.11,0.07 0.17,0.1 -0.03,0.06 -0.1,0.04 -0.12,0.09 -0.05,0 -0.09,0 -0.14,0 -0.09,-0.05 -0.18,-0.05 -0.27,-0.02 -0.09,0.02 -0.18,0.03 -0.27,-0.02 -0.07,-0.04 -0.17,-0.02 -0.25,-0.05 -0.03,0 -0.05,0.04 -0.06,0.07 0,0.04 0.03,0.04 0.05,0.04 0.04,0 0.08,0 0.12,0 0,0.01 -0.01,0.02 -0.01,0.02 -0.03,0.03 -0.11,-0.03 -0.1,0.05 0,0.05 0.08,0.01 0.12,0.02 0.01,0.01 0.01,0.02 0.01,0.02 0,0.01 0,0.01 0,0.01 0,0.02 -0.01,0.04 0.02,0.05 0.11,0 0.1,0.02 0.03,0.1 -0.12,0.16 -0.29,0.18 -0.47,0.22 -0.06,0.01 -0.1,0.08 -0.05,0.13 0.04,0.03 0.1,0.07 0.08,0.11 -0.04,0.07 -0.12,0.1 -0.19,0.12 -0.01,0 -0.01,-0.01 -0.01,-0.01 -0.05,0 -0.09,0.02 -0.11,0.05 -0.04,0.05 0.06,0.04 0.04,0.1 -0.31,0.02 -0.64,-0.01 -0.92,0.18 -0.03,-0.07 -0.08,-0.08 -0.14,-0.03 -0.04,0.03 -0.08,0.07 -0.13,0.1 -0.02,0.02 -0.03,0.05 -0.06,0.03 -0.05,-0.03 -0.08,-0.01 -0.12,0.01 -0.06,0.01 -0.12,0.04 -0.18,0.04 -0.13,-0.02 -0.24,0.04 -0.35,0.09 0,0.01 0.01,0.01 0.02,0.01l-0.01 0.01c-0.01,0 -0.02,0.01 -0.02,0.01 -0.01,0 -0.01,-0.01 -0.02,-0.02 -0.09,0.03 -0.18,0.07 -0.27,0.08 -0.12,0.02 -0.26,0.04 -0.37,-0.06 -0.05,-0.05 -0.1,-0.05 -0.16,-0.04 -0.09,0.01 -0.2,0.05 -0.27,-0.06 -0.01,-0.02 -0.03,-0.01 -0.05,0 -0.19,0.07 -0.39,0.08 -0.58,0.16 -0.01,0 -0.01,0 -0.02,0 -0.02,-0.01 -0.03,-0.03 -0.02,-0.04 0.01,-0.02 0.02,-0.02 0.04,-0.03 0.06,-0.11 0.16,-0.15 0.27,-0.2 0.21,-0.1 0.41,-0.21 0.63,-0.28 0.16,-0.06 0.31,-0.13 0.47,-0.14 0.09,0 0.18,0.04 0.24,-0.06 0.01,-0.02 0.04,-0.04 0.07,-0.03 0.12,0.02 0.24,-0.02 0.35,-0.08 0,0 0.01,0 0.02,0 0.24,-0.04 0.48,-0.07 0.72,-0.14 0.06,-0.03 0.14,-0.02 0.19,-0.07 0.04,-0.06 0.09,-0.06 0.15,-0.07 0.1,-0.02 0.21,0 0.31,-0.04 0.03,-0.01 0.05,-0.01 0.06,0.03 0.03,0.09 0.11,0.11 0.19,0.05 0.04,-0.03 0.02,-0.08 -0.02,-0.09 -0.1,-0.02 -0.18,-0.11 -0.29,-0.1 -0.06,0 -0.09,-0.09 -0.15,-0.06 -0.14,0.07 -0.28,0.08 -0.42,0.09 -0.21,0.02 -0.4,0.11 -0.6,0.16 -0.23,0.05 -0.46,0.09 -0.68,0.19 -0.17,0.09 -0.37,0.02 -0.54,0.12 -0.03,-0.03 -0.05,-0.04 -0.08,-0.04 -1.25,0.55 -2.38,1.32 -3.34,2.28 -1.46,1.46 -2.51,3.35 -2.94,5.46 -0.07,-0.12 -0.14,-0.24 -0.19,-0.36 -0.03,-0.06 -0.05,-0.12 -0.08,-0.18 0.5,-2 1.53,-3.78 2.94,-5.19 2.02,-2.02 4.81,-3.27 7.89,-3.27 3.09,0 5.88,1.25 7.89,3.27 1.41,1.41 2.45,3.19 2.94,5.19 -0.02,0.06 -0.04,0.12 -0.07,0.18 -0.05,0.12 -0.12,0.24 -0.19,0.36zm-15.36 -6.4c0.01,0 0.02,0 0.03,0 0.07,-0.04 0.12,-0.11 0.21,-0.14 0.07,-0.03 0.06,-0.06 0.13,-0.07 -0.05,0.13 0.06,0.15 0.13,0.2 -0.12,0.15 -0.24,0.26 -0.44,0.19 -0.08,-0.02 -0.12,-0.04 -0.06,-0.11 0.01,-0.03 0.01,-0.05 0,-0.07 0,0 0,0 0,0z"/>
  <path class="fil3" d="M19.63 7.33l0.06 0c0.08,0.01 0.15,0.06 0.2,0.13 0.08,0.1 0.18,0.09 0.3,0.07 0.23,-0.04 0.31,0.04 0.41,0.24 0.04,0.08 0.08,0.19 0.2,0.19 0.03,-0.01 0.07,0 0.09,0.04 0,0.01 0.02,0.03 0.03,0.04 0.01,-0.01 0.02,-0.05 0.02,-0.06 0.01,-0.05 0.04,-0.08 0.08,-0.11 0.07,-0.05 0.15,-0.1 0.22,-0.15 0.01,-0.01 0.03,-0.01 0.04,0 0.05,0.05 0.02,0.07 -0.01,0.1 -0.01,0.02 -0.04,0.04 -0.05,0.05 0.01,0 0.01,0.01 0.01,0.01 0.04,0.03 0.06,0.07 0.1,0.02 0.04,-0.04 0.08,-0.03 0.12,0 0.01,0.01 0.03,0.02 0.04,0.03 0.01,0.01 0.11,-0.03 0.13,0.07 0.01,0.07 -0.2,0.17 -0.26,0.16 -0.05,0 -0.1,-0.02 -0.15,-0.03 -0.01,0 -0.02,-0.01 -0.02,-0.02 -0.01,-0.04 0.01,-0.05 0.02,-0.07 0,0 0,0 0,0 0,0 0,0 0,0 -0.02,0 -0.02,0.02 -0.05,0.03 -0.07,0.01 -0.1,0.07 -0.13,0.13 -0.03,0.07 -0.06,0.1 -0.13,0.11 -0.01,0 -0.03,0 -0.03,0 0,0.01 0.02,0.03 0.02,0.03 0.12,0.1 0.12,0.21 0.07,0.34 -0.03,0.06 -0.04,0.13 -0.14,0.09 -0.01,0 -0.03,0 -0.04,-0.01 -0.08,-0.01 -0.12,-0.04 -0.11,-0.13 0.01,-0.03 -0.01,-0.04 -0.04,-0.05 -0.15,-0.08 -0.3,-0.17 -0.46,-0.25 -0.1,-0.04 -0.16,-0.11 -0.19,-0.2 -0.02,-0.07 -0.06,-0.09 -0.12,-0.09 -0.11,0.01 -0.17,-0.03 -0.18,-0.13 -0.01,-0.06 -0.15,-0.18 -0.2,-0.16 -0.07,0.04 -0.17,0.08 -0.21,0.16 -0.02,0.06 -0.06,0.1 -0.13,0.08 -0.07,-0.01 -0.08,-0.06 -0.07,-0.13 0.02,-0.15 0.02,-0.31 0.02,-0.46 0,-0.06 0.02,-0.1 0.08,-0.12 0.11,-0.03 0.2,-0.1 0.32,-0.1 0.02,0 0.03,0 0.03,0.02l0.01 0.02c0.04,0.04 0.07,0.06 0.1,0.11z"/>
 </g>
</svg>
