<svg xmlns="http://www.w3.org/2000/svg" xml:space="preserve" width="284" height="210" style="shape-rendering:geometricPrecision;text-rendering:geometricPrecision;image-rendering:optimizeQuality;fill-rule:evenodd;clip-rule:evenodd" viewBox="0 0 39.68 29.32"><defs><style>.fil0{fill:#3b943d;fill-rule:nonzero}</style></defs><g id="Слой_x0020_1"><path d="M1.67 28.03v-.56h1.45v1.33c-.14.14-.34.26-.61.37-.27.1-.54.15-.81.15-.35 0-.66-.07-.92-.22-.26-.14-.45-.35-.58-.63-.13-.27-.2-.57-.2-.89 0-.35.07-.66.22-.93s.36-.48.64-.63c.21-.11.48-.16.8-.16.41 0 .74.09.97.26.24.18.39.42.45.72l-.67.13a.77.77 0 0 0-.27-.39.803.803 0 0 0-.48-.14c-.3 0-.53.09-.7.28-.18.19-.26.46-.26.83 0 .4.08.7.26.9.18.2.41.29.69.29.14 0 .29-.02.43-.08.14-.05.26-.12.36-.2v-.43h-.77z" class="fil0"/><path id="1" d="M3.77 29.26v-3.31h.68v2.75h1.67v.56z" class="fil0"/><path id="2" d="M6.46 27.61c0-.34.05-.63.16-.86.07-.17.18-.32.31-.46.13-.13.27-.23.43-.3.21-.09.45-.13.72-.13.49 0 .89.15 1.18.46.3.3.45.73.45 1.28 0 .54-.15.96-.44 1.27-.3.3-.69.45-1.18.45-.5 0-.89-.15-1.19-.45-.29-.31-.44-.72-.44-1.26zm.7-.02c0 .38.09.67.26.86.18.2.4.29.67.29s.49-.09.66-.29c.18-.19.26-.48.26-.87 0-.38-.08-.67-.25-.86-.17-.19-.39-.28-.67-.28s-.5.09-.68.28c-.17.2-.25.48-.25.87z" class="fil0"/><path id="3" d="M10.24 25.92h1.33c.27 0 .47.01.6.03.13.02.24.07.34.14.11.07.19.16.26.28.07.11.1.25.1.39 0 .15-.04.3-.12.43-.09.13-.2.23-.34.29.2.06.35.16.46.31.11.14.17.31.17.5 0 .15-.04.3-.11.45a.897.897 0 0 1-.74.5c-.11.01-.39.02-.82.02h-1.13v-3.34zm.67.55v.78h.45c.26 0 .42-.01.48-.02.12-.01.21-.05.28-.12.06-.06.1-.15.1-.26 0-.1-.03-.18-.09-.25a.388.388 0 0 0-.25-.11 5.41 5.41 0 0 0-.58-.02h-.39zm0 1.33v.9h.63c.24 0 .4-.01.46-.02.1-.02.18-.07.25-.14a.41.41 0 0 0 .09-.28c0-.1-.02-.19-.07-.26a.408.408 0 0 0-.21-.15c-.09-.03-.29-.05-.6-.05h-.55z" class="fil0"/><path id="4" d="M16.62 29.26h-.73l-.29-.76h-1.34l-.28.76h-.71l1.3-3.34h.71l1.34 3.34zm-1.24-1.32-.46-1.24-.45 1.24h.91z" class="fil0"/><path id="5" d="M17 29.26v-3.31h.68v2.75h1.67v.56z" class="fil0"/><path id="6" d="M21.8 29.26v-2.78h-.99v-.56h2.65v.56h-.98v2.78z" class="fil0"/><path id="7" d="M23.9 29.26v-3.34h2.48v.56h-1.8v.75h1.67v.56h-1.67v.91h1.86v.56z" class="fil0"/><path id="8" d="m26.68 29.26 1.15-1.74-1.05-1.6h.79l.66.99.66-.99h.79l-1.05 1.6 1.15 1.74h-.81l-.74-1.13-.74 1.13z" class="fil0"/><path id="9" d="M30.88 29.26v-2.78h-.99v-.56h2.66v.56h-.99v2.78z" class="fil0"/><path id="10" d="M32.96 29.26v-3.34h.68v3.34z" class="fil0"/><path id="11" d="M34.3 29.26v-3.31h.68v2.75h1.67v.56z" class="fil0"/><path id="12" d="M37.13 29.26v-3.34h2.48v.56h-1.8v.75h1.67v.56h-1.67v.91h1.87v.56z" class="fil0"/><path d="M19.13 23.32c0-1.5-.77-5.39-2.26-7.03-3.7-4.05-9.36-5.04-9.08-9.17 0 0-3.16 3.25.61 7.71 1.21 1.42 2.31 2.01 3.44 2.71 2.47 1.53 4.75 2.41 6.11 5.28 0 0-2.05-2.11-4.5-2.98-2.45-.88-6.9-2.69-6.9-6.81 0 0-1.53 4.4 3.23 7.97 4.8 3.61 9.35 2.32 9.35 2.32zm.85 0c0-1.5.77-5.39 2.26-7.03 3.7-4.05 9.36-5.04 9.08-9.17 0 0 3.16 3.25-.61 7.71-1.21 1.42-2.31 2.01-3.45 2.71-2.47 1.53-4.75 2.41-6.1 5.28 0 0 2.05-2.11 4.5-2.98 2.45-.88 6.9-2.69 6.9-6.81 0 0 1.53 4.4-3.23 7.97-4.8 3.61-9.35 2.32-9.35 2.32z" style="fill:#60b238"/><path d="M21.56 7.16c-.06-.04-.12-.07-.09-.13.02-.07.07-.12.13-.17 0 0 .02 0 .03.01.01.01 0 .03-.01.05-.04.07-.07.14-.06.24zm-1.98.11c0 .02 0 .01.01.03.01.02.02.04.02.06h.07c.08.01.14.06.18.11.09.12.21.11.33.09.21-.04.28.03.37.22.04.07.09.21.23.2.03 0 .05.01.06.03.06.09.1.07.12-.03.01-.04.03-.06.06-.08.08-.05.15-.11.22-.16.03.03-.01.04-.01.06-.02.03-.09.05-.04.1.03.03.09.1.15.02.02-.03.05-.02.07 0l.03.03c.04.03.11-.02.13.05 0 .03-.17.13-.22.12-.05 0-.1-.02-.15-.03-.01-.03.05-.05.01-.09-.04-.03-.05.02-.08.03-.08.02-.12.08-.15.15-.02.05-.04.08-.1.08-.09.01-.08.06-.03.1.11.09.11.19.06.3-.02.04-.02.1-.09.07-.05-.02-.15.01-.13-.1.01-.05-.02-.07-.06-.09-.15-.08-.31-.17-.46-.25-.09-.04-.15-.09-.18-.18-.02-.08-.07-.11-.15-.11-.08.01-.13-.01-.14-.1-.01-.09-.19-.22-.25-.19-.07.06-.18.08-.22.18-.02.05-.04.08-.09.07-.05-.02-.05-.06-.05-.1.03-.15.02-.31.03-.47 0-.04.01-.06.05-.08.1-.03.2-.1.31-.1l.01.01v.01c.01.02.02.03.03.04h.05zm-2.93-.49c.1-.02.12.07.13.11 0 .07-.07.11-.14.13-.07.01-.22-.08-.2-.12.03-.11.12-.12.21-.12zm.1 1.05c-.16-.02-.31-.05-.42-.19-.14-.16-.29-.19-.53-.08-.15.07-.27 0-.4-.04-.07-.02-.08-.23-.02-.27.09-.06.16-.14.21-.24.04-.07.14-.07.19-.14.01-.01.04-.01.05-.03.1-.15.22-.04.33-.03.02 0 .04.02.03.03 0 .03-.03.03-.05.04-.09.03-.09.03-.02.09.02.02 0 .04.01.07 0 .1.07.16.15.11.19-.12.32-.06.45.09.09.1.19.18.29.27.06.06.01.25-.09.29-.05.02-.11.03-.18.03zm-2.18-.35c.05 0 .04.03.06.04.02.02.01.07.07.06.04-.01.04-.04.03-.07 0-.04.03-.03.06-.03.07-.02.11.03.17.05.08.04.09.07.01.14-.05.04-.16.11-.04.21.01 0 .01.01.01.01-.16.12.09.24-.02.36.02.01.02.06.05.05.1-.01.12.06.17.12.08.09.1.09.18 0 .05-.05.09-.02.13.02.07.08.14.19.27.15.11-.04.21-.07.32-.02-.03.34-.22.61-.44.86-.07.08-.29.05-.34-.02a.124.124 0 0 0-.17-.05c-.21.11-.38.05-.54-.09-.02-.02-.05-.03-.08-.04a.961.961 0 0 1-.39-.33c-.05-.07-.12-.13-.23-.1-.12.04-.21.08-.24.22-.02.1-.18.13-.25.05s-.14-.15-.22-.21c-.04-.03-.05-.07-.05-.11.02-.17-.1-.25-.22-.31-.13-.07-.17-.2-.21-.31-.03-.06.03-.1.08-.12.09-.04.15-.1.12-.2-.01-.05.02-.09.06-.12.03-.03.01-.05.01-.08-.01-.14-.11-.11-.19-.11-.04 0-.08 0-.11-.04-.05-.05-.09-.08-.16-.05-.03 0-.06 0-.09-.03-.15-.17-.36-.19-.56-.14-.14.03-.19-.09-.27-.14-.03-.02-.02-.09.02-.14.04-.05.07-.03.11 0 .06.05.13.1.2.01.15.05.19-.12.3-.15.02-.01.03-.02.04-.04.04-.24.23-.28.43-.31.07-.01.11-.02.14-.09.05-.12.21-.13.29-.03.02.04.05.05.09.04.07-.03.14-.04.21-.06.11-.03.21.04.16.14-.1.25.03.44.12.64.06.12.1.24.05.37-.03.09-.07.13-.17.1l-.23-.06c-.03 0-.06-.02-.09.01-.02.04-.01.07.01.1.01.01.02.03.03.04.04.05.07.13.12.14.07.03.08-.09.14-.11.09-.03.16-.11.25-.15.04-.02.07-.03.06-.07-.02-.08-.01-.16.07-.18.08-.02.1.07.13.13.04-.03.03-.06.01-.09-.04-.06-.07-.13-.11-.2-.01-.02-.04-.05-.02-.08.03-.06.02-.08-.03-.11-.05-.02-.05-.07-.04-.12 0-.1.01-.21-.03-.31-.03-.09.03-.17.08-.23.02-.02.08-.03.12-.02.06.02 0 .07 0 .1 0 .02-.01.05.01.05.14-.03.07.08.06.11-.04.17.08.29.15.41.09.13.1.18.01.32-.05.07-.07.14-.05.23.02.14.06.28-.01.43-.04.09.03.16.07.24.01.01.05.01.08.01.03-.01.03-.05.03-.07-.03-.09.1-.07.1-.15 0-.01.04.05.08.03.06-.03.11-.09.06-.15-.09-.12-.01-.23-.03-.35zm.79 2.66c.05-.02.07.04.1.02.11-.08.14 0 .17.08.07.2.18.38.19.6 0 .03.01.06.04.08.17.14.2.34.18.55-.01.06.01.12.05.16.24.22.31.53.45.81.01.01.01.04 0 .05-.06.24.02.46.07.68.01.02.01.04.01.08-.11-.13-.2-.24-.29-.35a.374.374 0 0 0-.13-.12c-.12-.06-.21-.15-.23-.29-.02-.1-.05-.2-.07-.3a.309.309 0 0 0-.11-.16.237.237 0 0 1-.09-.22c.01-.1 0-.21.02-.31.02-.12-.04-.22-.13-.31-.07-.07-.1-.15-.05-.25.01-.03 0-.05-.01-.07-.11-.23-.1-.48-.17-.73zm-.96-6.3c-.05.03-.18.01-.07.13.02.04-.03.05-.05.06-.2.08-.25.26-.29.44-.01.05-.05.08-.09.11-.04.04-.08.07-.01.13.08.07-.03.1-.06.14-.03.01-.06.01-.08.03-.03.04-.02.12-.12.09-.06-.01-.11-.05-.17-.07-.01.01-.01.01-.02 0-.04-.05-.09-.07-.14-.03-.06.03-.09 0-.14-.04.08-.03.14-.07.22-.07.08.01.06-.03.04-.07-.01-.06-.01-.12.08-.12.04 0 .08-.01.09-.06 0-.04.04-.03.07-.03.08 0 .24-.13.24-.2 0-.05-.05-.06-.08-.05-.08.02-.18.01-.23.09-.03.04-.07.05-.09.08-.08.14-.2.09-.31.07-.05-.01-.05-.04-.02-.08.02-.01.04-.01.05-.03.07-.05.2-.03.21-.17 0 0 .07-.1.15-.05.01.01.04 0 .06-.02.05-.06.09-.08.16-.01.04.04.18 0 .2-.07.03-.12.18-.15.18-.3.07.09.07.09.16.05.03-.02.05-.03.08 0 .02.02 0 .04-.02.05zm13.34 1.34c.09.09.21.16.27.28.1.18.23.35.35.53.03.05.03.15.04.19.06.11-.03.22.03.32.05.09-.04.17-.03.26 0 .14-.02.28.05.42.01.01.02.03.02.04 0 .04.05.09 0 .11-.06.02-.06-.05-.08-.08-.02-.06-.04-.12-.11-.13-.03-.01-.06-.06-.06-.08.02-.17-.09-.32-.07-.49 0-.07.03-.12.06-.17.03-.05.05-.09.02-.15a.633.633 0 0 1-.1-.31c-.01-.17-.11-.33-.23-.46-.08-.08-.15-.16-.16-.28zm-8.31-1.91c-.1 0-.16-.02-.24-.06-.14-.08-.02-.13-.02-.18 0-.01.02-.03.03-.04.1-.06.14-.17.22-.26.06-.07.16-.11.25-.14.08-.01.15-.01.22-.05.03-.01.05-.01.06.02.01.03-.02.03-.04.04-.12.06-.27.08-.37.19-.07.08-.15.14-.21.22-.04.05-.04.11.01.16.02.03.05.05.09.1zm-1.2-1.2c-.02.05-.03.11-.04.16-.01.05-.05.06-.08.05-.04-.01-.02-.04-.01-.06.01-.05-.04-.04-.06-.03-.05.02-.09.05-.14.07-.02.01-.04.03-.06.01-.03-.02-.01-.05 0-.07.06-.07.12-.16.19-.21.07-.04.15-.02.2.06.01 0 .01.01.01.01l-.01.01zm9.34 3.01c-.04-.06-.09-.12-.11-.21-.02-.08-.11-.15-.17-.22-.01-.01-.03-.02-.03-.04.05-.03.18.13.16-.07.12.1.12.27.21.38.01.01.01.03 0 .03-.09.02-.05.09-.06.13zm.12 5.5c0 .04 0 .08-.01.11-.02.06-.03.14-.1.16-.06.01-.07-.06-.1-.1-.04-.07-.02-.13.03-.19.01-.02.04-.03.07-.05.03-.01.05-.06.09-.04.04.03.01.07.02.11zm1.1-.16-.06-.21c-.02-.05 0-.08.05-.1.06-.03.08-.02.1.04.03.05.04.11.04.15-.04.04-.09.08-.13.12zm-.28-.96c-.15-.12-.19-.31-.12-.58.07.2.08.38.12.58zm-7.62-7.37c-.11.07-.21 0-.31-.01-.05 0-.06-.07-.04-.11.01-.04.06-.03.08-.01.08.07.21.01.27.13zm1.41-.25c-.06 0-.12-.01-.14-.07-.01-.05.03-.07.08-.09.04-.01.05-.06.1-.07.02-.01.04 0 .05.02.01.02-.02.02-.03.03-.07.02-.03.05-.01.08.04.06.03.1-.05.1zm1.11 12.09c0-.04 0-.08.01-.12 0-.05-.03-.14.02-.14.06 0 .11.08.15.13.02.02.01.04-.02.05-.05.03-.09.07-.16.08zM18.23 2.07v-.02c.07-.09.15-.04.24-.03.01.01.02.03.02.04 0 .02-.02.02-.04.03-.08.05-.15 0-.22-.02zm2.79-.02c.03 0 .07.01.07.04s-.02.07-.05.07c-.04 0-.05-.04-.06-.08-.02-.03.01-.03.04-.03zm5.86 2.19c.07.04.11.07.15.09.01.01.04.02.02.04-.01.02-.03.01-.05 0-.04-.03-.08-.05-.12-.13zm-.18-.14c.01 0 .02-.01.03-.01.05.03.07.07.12.13a.238.238 0 0 1-.15-.12zm.87.98h.04c.03.01.06.01.06.05 0 .01-.01.03-.01.03-.03 0-.05-.02-.07-.04-.01-.01-.01-.03-.02-.04zM30.12 9c-.43-2.11-1.48-4-2.94-5.46-.93-.93-2.02-1.69-3.23-2.23-.11-.03-.23-.06-.35-.09-.02-.01-.04-.01-.07 0-.02 0-.05-.02-.06.02 0 .03.02.04.04.06.08.05.18.08.28.09.08.01.15.05.22.1.13.09.27.17.41.24.77.37.26.4.26.4-.01.02-.01.04.01.06.12.11.24.22.4.28.04.01.06.03.08.07.02.05-.03.04-.05.05-.02.02-.04.06-.02.07.05.05.03.1.02.14-.02.13.04.21.12.3.14.17.3.33.38.54.02.04.04.11.1.09.05-.02.15.02.15-.09 0-.02.01-.03.02-.03.1.03.2-.03.29.04.15.11.31.21.47.3.07.03.04.1.08.14-.01.01-.02.02-.03.01-.09-.08-.18-.15-.27-.23-.03-.03-.07-.05-.1-.02-.03.04.02.07.04.08.25.19.44.43.6.7.1.17.2.35.3.53.03.06.02.13.03.19.01.02.01.06-.03.05-.12 0-.06.06-.04.12.04.12.06.24.15.35.05.05.03.17.03.25 0 .08.04.12.11.15.22.1.39.26.46.49.02.08 0 .19-.05.29a.51.51 0 0 1-.12-.2.159.159 0 0 0-.08-.1c-.04-.04-.08-.08-.09-.15-.01-.07-.07-.12-.14-.07-.06.04-.08.03-.1-.03-.01-.05-.03-.09-.05-.14-.02-.04-.03-.1-.09-.07-.06.01-.12.02-.12.11 0 .04.03.12-.03.13-.08.01-.06-.08-.08-.12 0-.01-.01-.03-.01-.05 0-.05-.04-.1-.09-.09-.06 0-.04.07-.04.11 0 .2.15.32.24.47.01.04.04.02.06 0 .02-.03.06-.04.09-.05.04 0 .07-.03.1.02.03.04-.01.06-.03.08-.06.08-.02.17-.01.25.02.11.07.2.16.28.11.09.22.21.3.32.14.17.31.37.31.61-.01.13.05.26.02.39a.17.17 0 0 0 .01.14c.06.11-.02.22 0 .32.02.13-.09.23-.07.35.02.06-.03.11-.08.13-.07.03-.09.13-.19.12 0 0-.01.01-.01.02.04.19-.15.26-.22.4-.01.04-.01.06-.01.1-.01.03.03.07-.01.11-.04-.02-.04-.06-.05-.09-.01-.03.01-.1-.04-.1-.06 0-.13 0-.18.06-.14.16-.18.35-.18.55 0 .04 0 .08.03.11.11.12.19.27.37.32.01 0 .03.02.04.03-.22.15-.44.29-.64.42-.22.14-.45.29-.67.43-.05-.09-.06-.2-.08-.3-.01-.07-.05-.1-.1-.13-.02-.02-.05-.02-.06 0-.03.09-.12.11-.16.19-.03.08-.11.07-.17.06-.04 0-.02-.07-.02-.1 0-.13 0-.25-.07-.36-.02-.01-.02-.04-.04-.05-.05-.02-.12-.02-.06-.11.02-.03-.02-.08-.07-.08-.11 0-.17-.07-.22-.15-.05-.08-.11-.14-.15-.22-.03-.05-.07-.06-.12-.05-.05 0-.03.05-.04.08-.01.04-.05.06-.09.09-.04.03-.11.02-.11.08 0 .03-.02.02-.03.02-.17-.04-.29.07-.29.24 0 .08-.05.15-.11.2-.11.08-.2.17-.25.3-.02.07-.09.11-.14.17-.06.07-.15.13-.15.24 0 .01-.01.03-.02.03-.13.03-.16.18-.29.22-.06.02-.05.1-.04.15 0 .06.02.12.04.18.02.08.03.16 0 .24-.04.12-.04.25-.02.37.01.05.01.09-.06.11-.06.02-.09.09-.08.15 0 .04-.01.06-.05.08-.03.01-.06.02-.07.06-.02.06-.05.15-.12.13-.08-.02-.17-.06-.21-.16-.05-.14-.09-.28-.16-.41-.14-.26-.3-.52-.43-.79-.11-.23-.17-.47-.2-.72-.02-.11 0-.23-.06-.34l-.04-.08c-.04.07-.02.13-.08.17-.14.1-.16.1-.3 0-.06-.05-.13-.1-.19-.16.04-.04.1-.05.14-.07.03-.01.06-.02.05-.06-.01-.03-.05-.03-.06-.02-.11.06-.18-.02-.25-.08-.05-.04-.07-.13-.16-.09-.01 0-.02-.01-.03-.02-.02-.08-.03-.16-.15-.16 0 0-.01-.01-.01-.02-.01-.17-.13-.09-.21-.08-.17.03-.34.07-.51.1-.08.01-.16 0-.24 0-.13-.05-.26-.06-.39-.08-.17-.02-.32-.04-.34-.25 0-.06-.05-.07-.1-.04-.2.13-.37.11-.54-.05a.447.447 0 0 0-.22-.13c-.05-.01-.07-.04-.09-.09-.03-.09-.07-.18-.11-.27-.02-.06-.04-.09-.12-.1-.08-.01-.14 0-.21 0-.06 0-.08.02-.07.07.04.2.06.4.23.53.05.04.08.09.05.16-.03.08.04.14.07.2.02.02.05.03.06-.01l.03-.09c.01-.03.03-.04.07-.03.03.01.02.04.02.06l-.03.13c-.01.05-.04.1.01.13s.1.1.18.04c.03-.03.06-.02.1-.01.11.02.22.02.3-.1.07-.09.15-.16.25-.26h.02c.01.08.01.14.01.19 0 .09.05.16.11.21.06.05.14.05.21.07.08.02.28.23.25.29-.06.1-.11.26-.21.29-.14.05-.13.12-.12.22 0 .07-.02.09-.09.11-.05.01-.13.02-.14.1-.01.07-.07.08-.13.09-.03.01-.1-.03-.1.05a.25.25 0 0 1-.22.15c-.07 0-.14.03-.21.04-.08 0-.13.02-.13.11 0 .05-.05.07-.09.08-.14.04-.27.09-.41.12-.11.03-.18.14-.3.14-.1 0-.19.02-.28.04-.08.01-.17.01-.24.09-.06.07-.15.05-.23.04-.04 0-.1-.02-.1.01 0 .06-.05.11-.01.17.06.08.12.15.18.22.02.04.06.03.09.02.08-.03.16-.05.25-.02.03.01.07 0 .1-.01.09-.05.19-.06.29-.05.13.01.26-.02.38-.08.04-.02.09-.03.12 0 .04.03.01.07 0 .11-.02.29-.19.51-.33.74-.18.29-.36.57-.63.78-.1.07-.13.1-.19.07-1.41-1.38-3.02-2.4-4.68-3.48-.89-.58-2.08-1.34-2.85-2.24 0-.02.01-.03.01-.04.07-.23.16-.45.18-.7.01-.05.04-.1.07-.14.13-.2.3-.36.44-.55.05-.07.14-.13.21-.2.01-.02.03-.02.05-.02.18.04.28-.08.34-.22.09-.2.22-.35.44-.4.17-.05.24-.21.37-.3.04-.02.02-.11.04-.17.03-.09-.03-.11-.09-.13-.06-.04-.01-.07.01-.11.11-.26.34-.43.51-.64.03-.05.07-.09.08-.14.01-.06.04-.1.11-.1.06-.01.09.01.13.07.07.09.17.16.27.24.02.02.05.01.07-.02.1-.11.24-.21.29-.34.04-.1.17-.22.03-.36-.05-.05.04-.09.06-.15.06-.04.12-.02.17.03.02.02.03.05.06.02.01-.01.01-.02.02-.03.04-.06.07-.11.14-.02.06.09.14.04.2 0 .07-.06.13-.1.22-.08.05.01.1-.02.13-.04.17-.14.35-.18.56-.14.05.01.08-.03.09-.07.06-.15.22-.23.32-.35.01-.02.04-.03.07-.03.06-.01.14-.05.17 0 .04.06-.05.08-.07.13-.04.09-.11.13-.21.14-.08.01-.11.07-.1.14 0 .08.06.1.13.1.05 0 .12-.01.11.08 0 .04.04.03.07.03.13-.03.25-.04.37.05.05.04.23-.06.29-.15.04-.05.07-.1.12-.14.09-.08.14-.09.23-.02.08.05.09.01.1-.05.04-.2.17-.28.36-.2.08.03.15.02.23 0-.03-.04-.08-.03-.12-.04-.08 0-.16 0-.25.01-.08 0-.12-.03-.16-.1-.03-.08 0-.13.04-.18.02-.01.05-.03.05-.06.04-.17.18-.22.33-.27.08-.03.15-.06.23-.1.03-.01.05-.03.04-.07-.01-.03-.05-.03-.07-.03-.04.01-.09.02-.11.05-.11.14-.26.18-.41.22-.19.04-.3.16-.32.35 0 .08-.12.19-.22.19-.1.01-.15.06-.21.14-.07.1-.18.16-.31.2-.12.04-.25 0-.36.06-.02.01-.14-.09-.14-.12-.01-.05.03-.08.07-.09.05-.01.1-.02.16-.02.06.01.11-.02.13-.08.03-.09.06-.18.1-.26.01-.02.03-.04.01-.05-.01-.03-.04-.02-.06-.01-.04.02-.08.04-.12.05-.05.01-.11.01-.14-.04-.03-.06-.03-.11.02-.16.07-.08.13-.17.22-.23.05-.05.12-.08.16-.14.06-.07.15-.04.22-.06.32-.05.6-.19.88-.34.08-.05.19-.03.25-.12.02-.03.05-.04.05-.07.01-.03.04-.05.05-.04.12.08.23-.04.35-.02.11.02.23.03.34-.04.06-.04.26.03.29.09.04.06.04.06-.02.09.18.12.39.2.48.41.04.07.01.09-.04.12-.11.08-.2.09-.31.01-.06-.05-.14-.07-.23-.12.02.06-.01.11.05.15.02.02 0 .03-.02.04-.08.11-.07.17.04.25.02.02.04.02.06.01.02-.02.02-.03.01-.05-.03-.03-.05-.07-.01-.1.04-.04.07.01.1.03.03.01.05.03.08.04.05.03.07.02.08-.04.01-.12.2-.19.29-.12.04.03.07.04.09-.02.03-.09.08-.17.09-.27a.3.3 0 0 1 .1.04c.02 0 .03.01.04.03 0 .03-.03.03-.04.04-.03.02-.08 0-.07.05 0 .02 0 .06.04.06s.1.03.13-.02c.08-.13.23-.12.35-.16.02-.01.07-.02.09.02.02.03.06.03.08.02.13-.05.26-.07.4-.07.06 0 .05-.04.03-.08-.02-.06-.09-.07-.12-.11.19.08.4.08.57.2.03.02.07.06.11.02.02-.02.04-.06.02-.09-.01-.04-.04-.06-.09-.07-.08 0-.15-.15-.09-.21.05-.04.06-.08.06-.14-.01-.08.04-.11.11-.1.05.01.12.02.09.11 0 .02 0 .05.01.08 0 .02.02.04.04.04.03.01.04-.01.05-.04.02-.06.06-.1.14-.08.07.01.13-.08.21-.07.02 0 .02-.04 0-.07a.349.349 0 0 1-.06-.09l.18-.06c.07-.02.1-.05.02-.1-.05-.04-.05-.07.01-.1.09-.05.13-.19.27-.16.01-.06.11-.09.04-.17-.02-.02-.03-.04 0-.07.02-.02.05-.01.07 0 .08.04.15.06.24 0 .12-.07.32.07.31.22v.05c.01.04 0 .08.04.09.05 0 .06-.03.05-.08-.01-.1.06-.06.1-.05.05.01.08.04.11-.04.02-.05.08-.05.14-.03.05.02.1.02.14-.02.04-.05-.02-.07-.03-.1.12-.06.23-.07.33.02.03.03.09.03.13.03.05.01.1 0 .04-.06-.04-.05.02-.04.03-.06.08-.1.07-.13-.04-.17-.05-.02-.09-.06-.07-.09.03-.06.07-.12.15-.11.16.02.16.02.14-.12-.01-.08.05-.06.08-.05.11.02.1-.02.07-.1s-.04-.15-.16-.15c-.08-.01-.15-.15-.15-.25.01-.05-.03-.12-.07-.14-.11-.05-.24-.12-.36-.12-.13.01-.24-.02-.36-.05-.25-.04-.5-.1-.75-.17-.03-.01-.06-.01-.1-.02-.01-.06.03-.06.07-.07.05.01.1.01.15.02-.63-.12-1.29-.18-1.96-.18h-.13c.04.05.11.07.17.1-.03.06-.1.04-.12.09h-.14a.321.321 0 0 0-.27-.02c-.09.02-.18.03-.27-.02-.07-.04-.17-.02-.25-.05-.03 0-.05.04-.06.07 0 .04.03.04.05.04h.12c0 .01-.01.02-.01.02-.03.03-.11-.03-.1.05 0 .05.08.01.12.02.01.01.01.02.01.02v.01c0 .02-.01.04.02.05.11 0 .1.02.03.1-.12.16-.29.18-.47.22-.06.01-.1.08-.05.13.04.03.1.07.08.11-.04.07-.12.1-.19.12-.01 0-.01-.01-.01-.01-.05 0-.09.02-.11.05-.04.05.06.04.04.1-.31.02-.64-.01-.92.18-.03-.07-.08-.08-.14-.03-.04.03-.08.07-.13.1-.02.02-.03.05-.06.03-.05-.03-.08-.01-.12.01-.06.01-.12.04-.18.04-.13-.02-.24.04-.35.09 0 .01.01.01.02.01l-.01.01c-.01 0-.02.01-.02.01-.01 0-.01-.01-.02-.02-.09.03-.18.07-.27.08-.12.02-.26.04-.37-.06-.05-.05-.1-.05-.16-.04-.09.01-.2.05-.27-.06-.01-.02-.03-.01-.05 0-.19.07-.39.08-.58.16h-.02c-.02-.01-.03-.03-.02-.04.01-.02.02-.02.04-.03.06-.11.16-.15.27-.2.21-.1.41-.21.63-.28.16-.06.31-.13.47-.14.09 0 .18.04.24-.06.01-.02.04-.04.07-.03.12.02.24-.02.35-.08h.02c.24-.04.48-.07.72-.14.06-.03.14-.02.19-.07.04-.06.09-.06.15-.07.1-.02.21 0 .31-.04.03-.01.05-.01.06.03.03.09.11.11.19.05.04-.03.02-.08-.02-.09-.1-.02-.18-.11-.29-.1-.06 0-.09-.09-.15-.06-.14.07-.28.08-.42.09-.21.02-.4.11-.6.16-.23.05-.46.09-.68.19-.17.09-.37.02-.54.12-.03-.03-.05-.04-.08-.04a10.95 10.95 0 0 0-3.34 2.28A10.776 10.776 0 0 0 8.99 9c-.07-.12-.14-.24-.19-.36-.03-.06-.05-.12-.08-.18.5-2 1.53-3.78 2.94-5.19C13.68 1.25 16.47 0 19.55 0c3.09 0 5.88 1.25 7.89 3.27 1.41 1.41 2.45 3.19 2.94 5.19-.02.06-.04.12-.07.18-.05.12-.12.24-.19.36zM14.76 2.6h.03c.07-.04.12-.11.21-.14.07-.03.06-.06.13-.07-.05.13.06.15.13.2-.12.15-.24.26-.44.19-.08-.02-.12-.04-.06-.11.01-.03.01-.05 0-.07z" style="fill:#3b943d"/><path d="M19.63 7.33h.06c.08.01.15.06.2.13.08.1.18.09.3.07.23-.04.31.04.41.24.04.08.08.19.2.19.03-.01.07 0 .09.04 0 .01.02.03.03.04.01-.01.02-.05.02-.06.01-.05.04-.08.08-.11.07-.05.15-.1.22-.15a.03.03 0 0 1 .04 0c.05.05.02.07-.01.1-.01.02-.04.04-.05.05.01 0 .01.01.01.01.04.03.06.07.1.02.04-.04.08-.03.12 0 .01.01.03.02.04.03.01.01.11-.03.13.07.01.07-.2.17-.26.16-.05 0-.1-.02-.15-.03-.01 0-.02-.01-.02-.02-.01-.04.01-.05.02-.07-.02 0-.02.02-.05.03-.07.01-.1.07-.13.13-.03.07-.06.1-.13.11h-.03c0 .01.02.03.02.03.12.1.12.21.07.34-.03.06-.04.13-.14.09-.01 0-.03 0-.04-.01-.08-.01-.12-.04-.11-.13.01-.03-.01-.04-.04-.05-.15-.08-.3-.17-.46-.25a.313.313 0 0 1-.19-.2c-.02-.07-.06-.09-.12-.09-.11.01-.17-.03-.18-.13-.01-.06-.15-.18-.2-.16-.07.04-.17.08-.21.16-.02.06-.06.1-.13.08-.07-.01-.08-.06-.07-.13.02-.15.02-.31.02-.46 0-.06.02-.1.08-.12.11-.03.2-.1.32-.1.02 0 .03 0 .03.02l.01.02c.04.04.07.06.1.11z" style="fill:#68b54c;fill-rule:nonzero"/></g></svg>