<svg xmlns="http://www.w3.org/2000/svg" width="22" height="23" fill="none"><g stroke="#3660E6" stroke-linecap="round" stroke-linejoin="round" stroke-width="1.833" clip-path="url(#a)"><path d="M2.75 8.75a1.833 1.833 0 0 1 1.833-1.833h12.834A1.833 1.833 0 0 1 19.25 8.75V17a1.833 1.833 0 0 1-1.833 1.833H4.583A1.833 1.833 0 0 1 2.75 17V8.75ZM7.333 6.917V5.083A1.833 1.833 0 0 1 9.167 3.25h3.666a1.833 1.833 0 0 1 1.834 1.833v1.834M11 11.5v.01"/><path d="M2.75 12.417a18.333 18.333 0 0 0 16.5 0"/></g><defs><clipPath id="a"><path fill="#fff" d="M0 .5h22v22H0z"/></clipPath></defs></svg>