<svg width="70" height="70" viewBox="0 0 70 70" fill="none" xmlns="http://www.w3.org/2000/svg">
<path fill-rule="evenodd" clip-rule="evenodd" d="M61.25 60.6959C62.671 59.8663 63.8796 58.7177 64.7806 57.3409C65.6816 55.9641 66.2503 54.3968 66.4417 52.7625C66.8385 49.5613 66.2483 46.3151 64.75 43.4584C63.3651 40.8241 61.2075 38.6766 58.5667 37.3042C55.854 35.9643 52.7558 35.6235 49.8167 36.3417C47.3927 36.8596 45.0683 37.7657 42.9333 39.025C41.4465 39.922 40.1406 41.0893 39.0833 42.4667C38.0049 44.0449 37.2555 45.8242 36.8796 47.6983C36.5038 49.5724 36.5093 51.5031 36.8958 53.375C37.1795 55.247 37.873 57.0333 38.9267 58.6063C39.9805 60.1794 41.3685 61.5004 42.9917 62.475C44.7916 63.4205 46.7919 63.9206 48.825 63.9334C51.6801 63.9479 54.5213 63.535 57.2542 62.7084C57.3541 62.6911 57.4485 62.6503 57.5296 62.5895C57.6107 62.5286 57.6762 62.4494 57.7208 62.3584C58.1 63.2042 58.45 64.0209 58.9167 64.8375C59.1539 65.2932 59.4373 65.7232 59.7625 66.1209C60.0542 66.5 60.4042 66.8792 60.7542 67.2584C61.5708 68.1042 62.475 68.8625 63.3792 69.6792C63.5525 69.8433 63.7821 69.9348 64.0208 69.9348C64.2595 69.9348 64.4892 69.8433 64.6625 69.6792C64.7516 69.5947 64.8226 69.493 64.8712 69.3801C64.9197 69.2673 64.9447 69.1458 64.9447 69.023C64.9447 68.9001 64.9197 68.7786 64.8712 68.6658C64.8226 68.553 64.7516 68.4512 64.6625 68.3667C64.0792 67.3459 63.5542 66.3542 62.9417 65.45C62.7083 65.0417 62.4167 64.6334 62.125 64.225C61.8388 63.8261 61.5271 63.4461 61.1917 63.0875C60.6375 62.5042 60.0833 61.9792 59.5 61.4542C60.1109 61.2704 60.6982 61.0159 61.25 60.6959ZM48.825 61.95C47.1521 61.8423 45.5259 61.3534 44.0708 60.5209C42.8124 59.6562 41.7583 58.5268 40.9824 57.2118C40.2065 55.8968 39.7275 54.428 39.5792 52.9084C39.3178 51.4209 39.356 49.8963 39.6916 48.4238C40.0271 46.9514 40.6533 45.5607 41.5333 44.3334C42.5842 42.9969 43.9192 41.911 45.4417 41.1542C47.0578 40.3575 48.7609 39.7507 50.5167 39.3459C52.7655 38.7614 55.1476 38.978 57.2542 39.9584C59.4264 40.9863 61.2217 42.6694 62.3875 44.7709C63.7913 47.0909 64.4148 49.7997 64.1667 52.5C64.0745 53.8122 63.6754 55.0844 63.0017 56.2141C62.3279 57.3438 61.3982 58.2995 60.2875 59.0042C59.7856 59.3214 59.2469 59.576 58.6833 59.7625C55.4167 60.8417 54.8042 62.4167 48.8833 61.95H48.825Z" fill="white"/>
<path fill-rule="evenodd" clip-rule="evenodd" d="M36.3417 60.4333C35 60.4333 32.2875 60.6083 29.3125 60.6083H18.725L12.8917 60.4625L9.82917 60.0833C7.35 59.5875 6.41667 58.5958 6.41667 57.1667C7.08073 53.835 8.05727 50.5734 9.33334 47.425C9.77084 45.6167 10.15 43.8083 10.4417 41.9708C10.7333 40.1333 10.9667 38.2958 11.1125 36.4583C11.4625 32.4409 11.4625 28.4007 11.1125 24.3833C10.5583 18.55 9.50834 12.5417 8.60417 6.67917C8.5693 6.52029 8.48609 6.37612 8.36597 6.26644C8.24585 6.15677 8.09472 6.08698 7.93334 6.06667C13.1833 5.39583 18.5208 4.4625 23.8875 3.85C27.5724 3.3842 31.2866 3.18923 35 3.26667C35.7875 3.26667 37.9167 3.09167 39.9583 3.12083C40.9208 3.12083 41.7958 3.12083 42.1458 3.35417C44.4792 5.27917 46.9583 7.46667 49.2625 9.77083C50.724 11.3036 52.1063 12.9098 53.4042 14.5833C53.5792 14.7875 53.4042 15.2833 53.4042 15.75V17.8208L53.2292 31.4708C53.2677 31.6864 53.3809 31.8816 53.5489 32.0222C53.7168 32.1628 53.9289 32.2398 54.1479 32.2398C54.367 32.2398 54.579 32.1628 54.747 32.0222C54.9149 31.8816 55.0281 31.6864 55.0667 31.4708L55.8542 17.85C55.9055 16.8785 55.9055 15.9049 55.8542 14.9333C55.9227 14.1959 55.7705 13.4548 55.4167 12.8042C53.7483 10.606 51.936 8.52084 49.9917 6.5625C48.0958 4.55 46.025 2.65417 44.0417 0.9625C43.0824 0.349793 41.9714 0.0164955 40.8333 0C38.7042 0 35.9042 0.175 35 0C32.0679 0.0684999 29.1441 0.341384 26.25 0.816667C19.5417 1.72083 12.8917 3.4125 6.41667 4.52083C6.22729 4.58613 6.06605 4.71443 5.95988 4.8843C5.85371 5.05417 5.80904 5.25533 5.83334 5.45417C5.86929 5.66836 5.98625 5.86052 6.16 5.99083C6.33376 6.12115 6.55098 6.17963 6.76667 6.15417H7.35C7.19704 6.21666 7.06868 6.32741 6.98445 6.46956C6.90021 6.61171 6.86471 6.77749 6.88334 6.94167C7.525 12.775 8.3125 18.6083 8.575 24.4417C8.78784 28.3342 8.66097 32.2379 8.19584 36.1083C7.99167 37.8875 7.72917 39.6667 7.40834 41.4167C7.0875 43.1667 6.62084 44.9167 6.2125 46.6667C5.3375 50.3125 3.29584 54.2208 3.29584 57.1667C3.29584 60.1125 4.66667 62.125 9.12917 63L12.7167 63.2625H18.55C20.4167 63.2625 25.025 63.0875 29.1958 62.9125C32.1125 62.9125 35.0292 62.65 36.3417 62.475C36.4632 62.4677 36.5819 62.436 36.6909 62.3818C36.7998 62.3275 36.8967 62.2518 36.9757 62.1592C37.0546 62.0666 37.1141 61.959 37.1505 61.8429C37.1869 61.7267 37.1995 61.6045 37.1875 61.4833C37.2037 61.3584 37.1945 61.2315 37.1603 61.1102C37.1261 60.9889 37.0678 60.8759 36.9888 60.7778C36.9097 60.6796 36.8117 60.5985 36.7004 60.5394C36.5892 60.4802 36.4672 60.4441 36.3417 60.4333Z" fill="white"/>
<path fill-rule="evenodd" clip-rule="evenodd" d="M45.2083 33.3084C45.4314 33.2962 45.6428 33.2043 45.8039 33.0496C45.965 32.8948 46.0653 32.6873 46.0865 32.4649C46.1077 32.2425 46.0484 32.0199 45.9193 31.8375C45.7903 31.655 45.6001 31.525 45.3834 31.4709C43.8083 31.2375 42.2333 31.1209 40.6583 31.0334H40.0458C40.0232 29.8106 39.8468 28.5955 39.5208 27.4167C39.3625 26.8801 39.1474 26.3619 38.8792 25.8709C38.6306 25.3584 38.3061 24.8864 37.9167 24.4709C37.4121 24.0374 36.8649 23.6563 36.2833 23.3334C36.9383 22.5813 37.4379 21.707 37.7533 20.7609C38.0687 19.8147 38.1936 18.8155 38.1208 17.8209C38.1403 16.9009 37.9758 15.9863 37.6371 15.1308C37.2984 14.2752 36.7923 13.4959 36.1485 12.8385C35.5047 12.181 34.7361 11.6588 33.8878 11.3023C33.0395 10.9458 32.1285 10.7623 31.2083 10.7625C29.2522 10.7069 27.3524 11.4215 25.9178 12.7524C24.4832 14.0834 23.6285 15.9244 23.5375 17.8792C23.5135 19.0204 23.7958 20.1471 24.3549 21.1422C24.914 22.1374 25.7295 22.9645 26.7167 23.5375C25.9612 23.9077 25.2474 24.3574 24.5875 24.8792C23.7922 25.4976 23.1195 26.2593 22.6042 27.125C21.6798 28.6015 21.366 30.3797 21.7292 32.0834C20.2125 32.375 18.8125 32.725 17.2375 33.1334C17.1333 33.1508 17.0336 33.1891 16.9445 33.2459C16.8553 33.3027 16.7786 33.3768 16.7187 33.4639C16.6588 33.551 16.6171 33.6493 16.596 33.7528C16.5749 33.8564 16.5748 33.9631 16.5958 34.0667C16.6382 34.2678 16.7548 34.4455 16.9224 34.5645C17.0899 34.6834 17.2962 34.7348 17.5 34.7084C19.1042 34.5042 20.7083 34.3875 22.3417 34.2709C23.975 34.1542 26.1042 34.2709 28 34.2709C29.8958 34.2709 31.7917 34.0959 33.8333 34.0667C36.4875 33.8625 39.2 33.5709 41.8833 33.4542C42.9886 33.3502 44.0983 33.3015 45.2083 33.3084ZM31.2667 13.8834C32.3708 13.8597 33.4399 14.2719 34.2423 15.0307C35.0448 15.7895 35.5161 16.8338 35.5542 17.9375C36.5167 25.8125 25.6667 23.7709 26.1917 17.9375C26.359 16.7411 26.9782 15.6541 27.9221 14.9001C28.866 14.1461 30.0628 13.7822 31.2667 13.8834ZM33.6583 30.8584C31.4708 30.8584 29.2542 30.8584 27.0667 31.2084C25.9292 31.2084 24.7917 31.5292 23.6833 31.7042C23.7952 30.9382 24.0849 30.209 24.5292 29.575C24.7917 29.225 25.0833 28.9042 25.375 28.5542L26.7167 26.95C27.5333 26.0459 28.2625 25.1417 28.9625 24.3834C33.0167 25.2 33.0458 25.1417 34.4167 24.5292C34.7375 24.9959 35.0583 25.4334 35.3208 25.9C35.5833 26.3667 35.6125 26.4834 35.7875 26.7459C35.9625 27.0084 36.2542 27.5917 36.5167 28C37.0751 28.9391 37.5719 29.9133 38.0042 30.9167L33.6583 30.8584Z" fill="white"/>
<path fill-rule="evenodd" clip-rule="evenodd" d="M35.1458 39.3459C35.1497 39.2247 35.1292 39.104 35.0856 38.9909C35.0419 38.8778 34.9759 38.7747 34.8915 38.6876C34.8072 38.6005 34.7062 38.5313 34.5945 38.4841C34.4829 38.4368 34.3629 38.4125 34.2417 38.4126C32.4917 38.2084 30.8292 37.9751 29.1083 37.8292H26.8333C25.4042 37.8292 23.9167 37.9751 22.5458 38.1792C20.4458 38.5001 18.4333 39.0542 16.3333 39.3167C16.1167 39.3167 15.909 39.4028 15.7559 39.5559C15.6027 39.7091 15.5167 39.9168 15.5167 40.1334C15.5167 40.35 15.6027 40.5577 15.7559 40.7109C15.909 40.864 16.1167 40.9501 16.3333 40.9501C18.4761 41.1443 20.6279 41.2222 22.7792 41.1834C24.1792 41.1834 25.6958 40.9501 26.95 40.8917L34.1542 40.3667C34.2905 40.3812 34.4284 40.3646 34.5573 40.3179C34.6862 40.2713 34.8029 40.196 34.8984 40.0977C34.994 39.9993 35.0659 39.8805 35.1088 39.7503C35.1516 39.62 35.1643 39.4818 35.1458 39.3459Z" fill="white"/>
<path fill-rule="evenodd" clip-rule="evenodd" d="M25.3458 44.7125H23.0708C22.3275 44.7568 21.5873 44.8445 20.8542 44.975C19.1333 45.2959 17.5292 45.7917 15.8667 46.1417C15.6527 46.1638 15.4552 46.2665 15.3143 46.4291C15.1734 46.5916 15.0998 46.8018 15.1083 47.0167C15.1157 47.124 15.1443 47.2289 15.1923 47.3251C15.2403 47.4214 15.3069 47.5073 15.3882 47.5777C15.4695 47.6482 15.564 47.7019 15.6661 47.7358C15.7682 47.7696 15.876 47.783 15.9833 47.775C17.9083 47.775 19.8625 48.0084 21.8167 47.9209C22.925 47.9209 24.0625 47.7459 25.1708 47.6875C26.8287 47.5128 28.5004 47.5128 30.1583 47.6875C30.3973 47.7324 30.6445 47.6852 30.8501 47.5554C31.0557 47.4255 31.2045 47.2226 31.2667 46.9875C31.2967 46.8686 31.3023 46.7449 31.283 46.6238C31.2637 46.5027 31.22 46.3868 31.1545 46.2831C31.0891 46.1795 31.0032 46.0902 30.9021 46.0207C30.8011 45.9513 30.6869 45.9031 30.5667 45.8792C28.8866 45.258 27.1305 44.8656 25.3458 44.7125Z" fill="white"/>
</svg>
