<svg width="70" height="70" viewBox="0 0 70 70" fill="none" xmlns="http://www.w3.org/2000/svg">
<g clip-path="url(#clip0_1_7224)">
<path fill-rule="evenodd" clip-rule="evenodd" d="M48.5333 55.7667C47.8327 55.3172 47.0904 54.9362 46.3166 54.6292C41.1833 52.5875 41.7375 54.1334 44.3625 52.1209C51.975 46.2875 50.925 31.9667 40.9208 30.0125C40.6621 29.9598 40.393 30.0093 40.17 30.1507C39.9471 30.2921 39.7875 30.5144 39.725 30.7709C39.3458 32.5792 42.175 31.325 44.975 34.8834C49.3208 40.4542 46.2 54.3084 31.85 51.0125C20.7958 48.7375 22.2541 29.4584 37.275 30.5959C37.507 30.6191 37.7388 30.5491 37.9193 30.4015C38.0998 30.2538 38.2143 30.0404 38.2375 29.8084C38.2607 29.5763 38.1908 29.3445 38.0431 29.164C37.8954 28.9835 37.682 28.8691 37.45 28.8459C20.3583 26.6875 16.7708 48.1542 28.7 53.6084C21.7 56.525 16.0708 62.0084 17.0333 69.2709C17.0333 69.5029 17.1255 69.7255 17.2896 69.8896C17.4537 70.0537 17.6762 70.1459 17.9083 70.1459C18.1404 70.1459 18.3629 70.0537 18.527 69.8896C18.6911 69.7255 18.7833 69.5029 18.7833 69.2709C19.0472 67.1273 19.9174 65.1036 21.2916 63.4375C23.3272 60.8133 25.7005 58.4694 28.35 56.4667C31.4416 54.6 31.2666 54.775 31.2666 54.4834C32.3439 54.7002 33.4358 54.8366 34.5333 54.8917C33.5622 58.7063 33.4229 62.6852 34.125 66.5584C34.125 67.1417 34.125 68.5125 35.4083 68.1917C36.6916 67.8709 36.3125 67.2 36.3125 66.2959C36.3125 65.975 37.0125 61.3084 37.0708 60.4625C37.0651 58.509 36.9091 56.5588 36.6041 54.6292C37.7599 54.5634 38.9046 54.3677 40.0166 54.0459C40.2791 54.6584 41.0083 54.5709 44.3041 56.5834C48.3635 59.654 51.3617 63.9166 52.8791 68.775C52.9333 69.0342 53.0882 69.2612 53.3097 69.4061C53.5312 69.5511 53.8013 69.6021 54.0604 69.548C54.3195 69.4938 54.5466 69.3389 54.6915 69.1174C54.8364 68.8959 54.8875 68.6258 54.8333 68.3667C54.4444 63.5093 52.1859 58.9923 48.5333 55.7667Z" fill="white"/>
<path fill-rule="evenodd" clip-rule="evenodd" d="M34.125 38.5875C31.841 39.9624 29.2057 40.6415 26.5417 40.5417C26.3096 40.5417 26.087 40.6339 25.9229 40.798C25.7588 40.9621 25.6667 41.1846 25.6667 41.4167C25.6667 41.6488 25.7588 41.8713 25.9229 42.0354C26.087 42.1995 26.3096 42.2917 26.5417 42.2917C29.6317 43.0762 32.8951 42.8094 35.8167 41.5334C37.279 40.5339 38.8091 39.6373 40.3958 38.85C42.7292 41.125 44.1292 43.2834 45.2083 42.0875C45.3887 41.8933 45.489 41.638 45.489 41.373C45.489 41.1079 45.3887 40.8526 45.2083 40.6584C42.6708 38.0625 42.2917 34.825 39.6083 35.6125C37.7148 36.478 35.8828 37.472 34.125 38.5875Z" fill="white"/>
<path fill-rule="evenodd" clip-rule="evenodd" d="M33.8333 22.6333C34.2708 23.5667 34.7375 24.9083 35.7875 24.2667C35.9529 24.1906 36.0915 24.0664 36.1852 23.9103C36.2789 23.7542 36.3232 23.5734 36.3125 23.3917C36.3125 23.0708 33.0458 14.2042 32.6666 13.1833C39.9875 12.9208 39.5208 13.65 37.8583 0.816672C37.8362 0.587223 37.7272 0.374898 37.5537 0.223102C37.3802 0.0713062 37.1553 -0.00849725 36.925 5.5125e-06C35.35 5.5125e-06 36.5166 2.21667 35.8458 9.74167C35.1166 9.74167 30.5958 9.88751 30.0125 9.97501C29.7336 9.9759 29.4599 10.0508 29.2194 10.1922C28.979 10.3335 28.7804 10.5362 28.6439 10.7794C28.5074 11.0227 28.438 11.2978 28.4428 11.5767C28.4475 11.8556 28.5262 12.1282 28.6708 12.3667C29.8083 14.2042 32.6375 20.125 33.8333 22.6333Z" fill="white"/>
<path fill-rule="evenodd" clip-rule="evenodd" d="M18.7833 33.8334C19.0167 32.7834 17.9375 32.55 16.975 31.9959C14.8458 30.8584 10.5583 28.4667 7.67082 26.95C10.9958 23.8292 12.3375 22.6042 11.8125 21.2917C9.23869 18.1033 6.30223 15.2256 3.06249 12.7167C2.98727 12.6164 2.89138 12.5335 2.78131 12.4734C2.67124 12.4134 2.54956 12.3778 2.42452 12.3689C2.29947 12.36 2.17397 12.3781 2.05652 12.4219C1.93907 12.4658 1.83241 12.5343 1.74377 12.623C1.65512 12.7116 1.58656 12.8183 1.54273 12.9357C1.49889 13.0532 1.4808 13.1787 1.48969 13.3037C1.49858 13.4288 1.53423 13.5505 1.59423 13.6605C1.65424 13.7706 1.7372 13.8665 1.83749 13.9417C3.17915 15.4875 6.85415 19.775 8.34165 21.7C7.64165 22.2834 3.93749 25.8417 3.61665 26.25C3.40881 26.439 3.25424 26.6793 3.1684 26.9467C3.08256 27.2142 3.06847 27.4996 3.12753 27.7742C3.18659 28.0488 3.31674 28.3031 3.50495 28.5117C3.69315 28.7202 3.93283 28.8757 4.19999 28.9625C6.64999 29.8084 13.8833 33.0167 17.4708 34.5334C17.6028 34.578 17.7426 34.5952 17.8815 34.5838C18.0204 34.5724 18.1554 34.5327 18.2784 34.4671C18.4014 34.4015 18.5096 34.3115 18.5964 34.2025C18.6833 34.0935 18.7469 33.9679 18.7833 33.8334Z" fill="white"/>
<path fill-rule="evenodd" clip-rule="evenodd" d="M66.85 12.3375C58.5666 19.7458 57.6333 20.6208 58.1 22.1958C59.3059 23.8005 60.6743 25.2764 62.1833 26.6C59.2666 28.1167 55.0083 30.4792 52.8791 31.6458C49.7 33.3667 52.0042 34.3292 52.5875 34.0667C53.8417 33.5708 63 29.5167 65.6541 28.5542C65.8915 28.4381 66.0995 28.2698 66.2626 28.062C66.4256 27.8541 66.5394 27.6119 66.5956 27.3538C66.6517 27.0956 66.6486 26.8281 66.5866 26.5712C66.5246 26.3144 66.4052 26.075 66.2375 25.8708C65.7708 25.3458 62.1541 21.875 61.425 21.35C62.9125 19.2792 66.5875 15.1375 67.9291 13.5917C68.0587 13.5401 68.174 13.4584 68.2655 13.3533C68.3571 13.2482 68.4221 13.1227 68.4554 12.9873C68.4886 12.852 68.489 12.7106 68.4566 12.575C68.4242 12.4395 68.3598 12.3136 68.2689 12.208C68.178 12.1023 68.0631 12.0199 67.9339 11.9676C67.8047 11.9153 67.6649 11.8946 67.5261 11.9073C67.3873 11.92 67.2535 11.9656 67.1359 12.0405C67.0183 12.1153 66.9203 12.2171 66.85 12.3375Z" fill="white"/>
</g>
<defs>
<clipPath id="clip0_1_7224">
<rect width="70" height="70" fill="white"/>
</clipPath>
</defs>
</svg>
