<svg width="23" height="23" viewBox="0 0 23 23" fill="none" xmlns="http://www.w3.org/2000/svg">
<g clip-path="url(#clip0_1_7258)">
<path d="M15.1667 17.0001C15.6529 17.0001 16.1192 17.1932 16.463 17.5371C16.8068 17.8809 17 18.3472 17 18.8334C17 18.3472 17.1932 17.8809 17.537 17.5371C17.8808 17.1932 18.3471 17.0001 18.8333 17.0001C18.3471 17.0001 17.8808 16.8069 17.537 16.4631C17.1932 16.1193 17 15.653 17 15.1667C17 15.653 16.8068 16.1193 16.463 16.4631C16.1192 16.8069 15.6529 17.0001 15.1667 17.0001ZM15.1667 6.00008C15.6529 6.00008 16.1192 6.19324 16.463 6.53705C16.8068 6.88087 17 7.34718 17 7.83341C17 7.34718 17.1932 6.88087 17.537 6.53705C17.8808 6.19324 18.3471 6.00008 18.8333 6.00008C18.3471 6.00008 17.8808 5.80693 17.537 5.46311C17.1932 5.11929 17 4.65298 17 4.16675C17 4.65298 16.8068 5.11929 16.463 5.46311C16.1192 5.80693 15.6529 6.00008 15.1667 6.00008ZM8.75 17.0001C8.75 15.5414 9.32946 14.1424 10.3609 13.111C11.3924 12.0795 12.7913 11.5001 14.25 11.5001C12.7913 11.5001 11.3924 10.9206 10.3609 9.88917C9.32946 8.85772 8.75 7.45877 8.75 6.00008C8.75 7.45877 8.17054 8.85772 7.13909 9.88917C6.10764 10.9206 4.70869 11.5001 3.25 11.5001C4.70869 11.5001 6.10764 12.0795 7.13909 13.111C8.17054 14.1424 8.75 15.5414 8.75 17.0001Z" stroke="#3660E6" stroke-width="1.83333" stroke-linecap="round" stroke-linejoin="round"/>
</g>
<defs>
<clipPath id="clip0_1_7258">
<rect width="22" height="22" fill="white" transform="translate(0.5 0.5)"/>
</clipPath>
</defs>
</svg>
