<svg xmlns="http://www.w3.org/2000/svg" width="23" height="23" fill="none"><g clip-path="url(#a)"><path stroke="#3660E6" stroke-linecap="round" stroke-linejoin="round" stroke-width="1.833" d="M15.167 17A1.833 1.833 0 0 1 17 18.833 1.833 1.833 0 0 1 18.833 17 1.833 1.833 0 0 1 17 15.167 1.833 1.833 0 0 1 15.167 17Zm0-11A1.833 1.833 0 0 1 17 7.833 1.833 1.833 0 0 1 18.833 6 1.833 1.833 0 0 1 17 4.167 1.833 1.833 0 0 1 15.167 6ZM8.75 17a5.5 5.5 0 0 1 5.5-5.5A5.5 5.5 0 0 1 8.75 6a5.5 5.5 0 0 1-5.5 5.5 5.5 5.5 0 0 1 5.5 5.5Z"/></g><defs><clipPath id="a"><path fill="#fff" d="M.5.5h22v22H.5z"/></clipPath></defs></svg>