<svg width="70" height="70" viewBox="0 0 70 70" fill="none" xmlns="http://www.w3.org/2000/svg">
<path fill-rule="evenodd" clip-rule="evenodd" d="M68.7167 45.1791C67.3863 42.0939 65.0673 39.5388 62.125 37.9166C59.2452 36.2543 55.9708 35.3979 52.6459 35.4375C49.0161 35.5131 45.4451 36.3686 42.175 37.9458C38.8205 39.5629 36.0417 42.1687 34.2125 45.4125C32.3305 49.3692 31.9169 53.8663 33.0459 58.1C33.4685 60.2325 34.3535 62.2465 35.6385 64.0001C36.9235 65.7538 38.5772 67.2044 40.4834 68.25C42.1476 69.0427 43.9313 69.5552 45.7625 69.7666C47.5623 70.0151 49.3877 70.0151 51.1875 69.7666C51.2952 69.7524 51.399 69.7168 51.4928 69.6619C51.5866 69.607 51.6684 69.534 51.7336 69.447C51.7988 69.3601 51.846 69.2611 51.8724 69.1557C51.8989 69.0503 51.904 68.9407 51.8875 68.8333C51.8773 68.7239 51.8443 68.6178 51.7906 68.5219C51.737 68.4261 51.6639 68.3425 51.5759 68.2765C51.488 68.2106 51.3873 68.1638 51.2802 68.1391C51.1732 68.1145 51.0621 68.1125 50.9542 68.1333C49.3119 68.3015 47.6545 68.2525 46.025 67.9875C44.4087 67.7306 42.8433 67.2187 41.3875 66.4708C39.8344 65.4927 38.5098 64.1922 37.5033 62.6573C36.4968 61.1225 35.8321 59.3892 35.5542 57.575C34.712 53.961 35.1878 50.1651 36.8959 46.8708C38.4481 44.2191 40.7805 42.1107 43.575 40.8333C46.4382 39.4668 49.5613 38.7307 52.7334 38.675C55.4848 38.6205 58.2016 39.2947 60.6084 40.6291C63.0326 41.9207 64.9683 43.9691 66.1209 46.4625C67.6647 49.8794 67.8009 53.7667 66.5 57.2833C65.1707 60.8361 62.6017 63.7884 59.2667 65.5958C58.3353 66.127 57.3594 66.5759 56.35 66.9375C55.7195 67.15 55.061 67.2679 54.3959 67.2875C54.2575 67.2631 54.1154 67.2693 53.9797 67.3057C53.8439 67.3421 53.7178 67.4078 53.6102 67.4981C53.5025 67.5885 53.416 67.7013 53.3566 67.8287C53.2972 67.956 53.2665 68.0949 53.2665 68.2354C53.2665 68.3759 53.2972 68.5147 53.3566 68.6421C53.416 68.7695 53.5025 68.8823 53.6102 68.9726C53.7178 69.063 53.8439 69.1287 53.9797 69.165C54.1154 69.2014 54.2575 69.2077 54.3959 69.1833C55.2477 69.1734 56.0932 69.0358 56.9042 68.775C58.0606 68.3315 59.1656 67.7643 60.2 67.0833C64.0933 65.1401 67.1427 61.8418 68.775 57.8083C70.402 53.7518 70.381 49.2204 68.7167 45.1791Z" fill="white"/>
<path fill-rule="evenodd" clip-rule="evenodd" d="M53.1417 43.3999C53.1881 43.1872 53.1481 42.9647 53.0305 42.7815C52.9129 42.5982 52.7273 42.4692 52.5146 42.4228C52.3019 42.3764 52.0794 42.4164 51.8962 42.534C51.713 42.6516 51.5839 42.8372 51.5375 43.0499C50.7758 45.1931 50.1236 47.3737 49.5834 49.5832C49.2625 51.0416 49.0292 52.4999 48.6792 53.9291C48.6792 53.9291 48.6792 55.7666 50.1667 55.854H50.7792L53.375 55.6499L59.8792 54.8041C60.1295 54.8042 60.37 54.7068 60.5497 54.5325C60.7294 54.3583 60.8341 54.1209 60.8417 53.8707C60.8417 53.6232 60.7434 53.3858 60.5683 53.2108C60.3933 53.0357 60.1559 52.9374 59.9084 52.9374L53.2292 52.7916H52.1209C52.1209 52.2374 52.2959 51.7124 52.3542 51.1874C52.7917 48.6499 52.7917 46.0249 53.1417 43.3999Z" fill="white"/>
<path fill-rule="evenodd" clip-rule="evenodd" d="M12.9792 4.46241C12.5269 4.23423 12.0274 4.11536 11.5208 4.11536C11.0143 4.11536 10.5148 4.23423 10.0625 4.46241C9.56665 4.84158 8.19582 8.22491 6.44582 20.8832C5.86249 24.8207 4.81249 28.4374 4.11249 31.9082C3.26665 35.7291 2.59582 39.3749 1.83749 42.8166C1.07916 45.3561 0.465673 47.9366 -1.27219e-05 50.5457C-0.0805841 50.9677 -0.0474076 51.4036 0.0961111 51.8085C0.23963 52.2134 0.48832 52.5729 0.816654 52.8499C3.48826 53.8795 6.25224 54.651 9.07082 55.1541C16.3917 56.7582 26.25 58.3332 27.825 58.7416C28.0721 58.7845 28.3262 58.7293 28.5333 58.5877C28.7403 58.446 28.8838 58.2291 28.9333 57.9832C28.9757 57.7396 28.9196 57.4891 28.7774 57.2868C28.6352 57.0844 28.4186 56.9468 28.175 56.9041C26.5417 56.5249 16.9167 54.4249 9.74165 52.5291C6.82499 51.7707 4.43332 51.0999 3.12082 50.5749C3.47082 48.4166 4.84165 43.8082 4.92915 43.4874C5.42499 41.1249 5.94999 38.6749 6.38749 36.0791C7.87499 27.6499 9.07082 17.9957 11.375 6.47491V6.32908C11.6966 6.51175 12.0276 6.67726 12.3667 6.82491C12.6942 6.95634 13.0599 6.95634 13.3875 6.82491C13.5781 6.67156 13.7241 6.46999 13.8106 6.24114C13.897 6.01229 13.9206 5.76449 13.8789 5.52344C13.8372 5.28239 13.7318 5.05688 13.5736 4.87031C13.4154 4.68374 13.2102 4.5429 12.9792 4.46241Z" fill="white"/>
<path fill-rule="evenodd" clip-rule="evenodd" d="M52.0624 26.5124C52.2958 25.5207 52.4708 24.5582 52.6458 23.5957C52.8208 22.6332 52.9083 21.6416 53.0249 20.6791C53.2583 18.5791 53.4041 16.3624 53.6083 13.7374C53.6516 13.575 53.6516 13.404 53.6083 13.2416C53.6083 13.2416 53.8416 13.0082 53.8708 12.8624C53.905 12.7296 53.9105 12.5911 53.8868 12.456C53.8631 12.321 53.8109 12.1925 53.7336 12.0793C53.6562 11.9661 53.5556 11.8707 53.4384 11.7995C53.3213 11.7283 53.1902 11.683 53.0541 11.6666C52.2958 11.3166 51.8583 11.2582 51.0708 10.9666C50.5875 10.8925 50.0957 10.8925 49.6124 10.9666C48.8833 10.9666 47.8916 13.0082 48.5916 13.1541C49.6249 13.3327 50.6665 13.4592 51.7124 13.5332C51.0999 16.0416 50.5458 18.1416 50.0791 20.1249C49.8749 21.1166 49.6708 22.0791 49.4958 23.0416C49.3208 24.0041 49.1749 24.9666 49.0874 25.9582C48.8541 28.0291 48.7666 30.2457 48.5916 32.8999C48.5706 33.0073 48.5715 33.1178 48.5941 33.2249C48.6167 33.332 48.6606 33.4334 48.7232 33.5232C48.7857 33.613 48.8657 33.6893 48.9584 33.7476C49.051 33.8058 49.1544 33.8449 49.2624 33.8624C49.4775 33.8897 49.695 33.8361 49.8728 33.7122C50.0506 33.5883 50.1761 33.4027 50.2249 33.1916C50.3999 32.5207 51.8291 27.4457 52.0624 26.5124Z" fill="white"/>
<path fill-rule="evenodd" clip-rule="evenodd" d="M60.1416 10.9083C59.9155 9.8379 59.4353 8.83757 58.7416 7.99161C58.0484 7.01535 57.098 6.25044 55.9961 5.78189C54.8942 5.31333 53.684 5.15949 52.5 5.33744L51.4208 5.13328C48.125 4.46244 45.7333 3.70411 42.4666 2.97494C41.3 2.71244 40.0166 2.50828 38.5583 2.24578C37.1 1.98328 35 1.72078 33.1625 1.51661C20.7083 0.204111 20.4166 -1.05006 17.0625 1.86661C16.6779 2.17067 16.3347 2.52365 16.0416 2.91661C15.7584 3.35104 15.5144 3.80979 15.3125 4.28744C15.0093 5.17438 14.7657 6.08056 14.5833 6.99994C13.1541 14.5833 11.4916 22.6041 9.1583 35.2624C8.83746 37.0124 7.72913 39.7833 7.37913 42.2333C7.15615 43.4443 7.20597 44.6898 7.52496 45.8791C7.76764 46.3791 8.12318 46.8159 8.56354 47.1551C9.0039 47.4942 9.51703 47.7264 10.0625 47.8333C13.3583 48.7666 21.0291 49.0874 27.1541 50.2833C27.3938 50.3357 27.6445 50.2916 27.8519 50.1606C28.0593 50.0296 28.2068 49.8222 28.2625 49.5833C28.2927 49.4626 28.2986 49.337 28.2796 49.214C28.2606 49.091 28.2173 48.9731 28.152 48.8671C28.0868 48.7611 28.0011 48.6692 27.8998 48.5969C27.7986 48.5245 27.6839 48.4731 27.5625 48.4458C23.3333 47.3374 18.1708 46.6666 14.5833 45.9374C12.5416 45.5583 9.82913 45.3541 10.325 44.7124C10.325 44.7124 10.5 44.9458 10.5291 45.0624C10.3699 43.9695 10.4495 42.855 10.7625 41.7958C11.2583 39.6958 12.0458 37.4499 12.3958 35.9624C12.95 33.4833 13.6208 31.0041 13.9708 28.4958C16.8875 8.80828 16.4208 10.2374 18.025 6.09578C18.3458 5.27911 19.1916 3.17911 20.4166 2.71244C23.6282 2.73563 26.8272 3.11716 29.9541 3.84994C32.6083 4.37494 35.2916 4.78328 38.0625 5.33744C42.2041 5.86244 44.8583 6.41661 47.8041 6.85411L49.0291 7.02911C45.5 9.94578 45.5875 11.5499 42.8166 21.6124C42.5541 22.4874 42.3791 23.3916 42.2041 24.2958C42.0291 25.1999 41.8833 26.0749 41.7666 26.9791C41.5041 29.1083 41.3291 31.2374 41.1541 33.3666C41.1334 33.4894 41.1375 33.615 41.166 33.7362C41.1946 33.8573 41.2471 33.9716 41.3205 34.0721C41.3939 34.1727 41.4866 34.2575 41.5933 34.3217C41.7 34.3859 41.8184 34.4281 41.9416 34.4458C42.1853 34.4881 42.4358 34.4321 42.6381 34.2899C42.8404 34.1477 42.9781 33.931 43.0208 33.6874C43.5458 31.6166 44.1583 29.6041 44.6833 27.5624C44.9166 26.6583 45.1208 25.7833 45.325 24.9083C45.5291 24.0333 45.6458 23.1291 45.7625 22.2249C46.0712 18.7666 46.8666 15.3692 48.125 12.1333C48.4802 10.8125 49.3113 9.66982 50.4583 8.92494C50.8967 8.55445 51.4087 8.28126 51.9606 8.12345C52.5124 7.96564 53.0915 7.92681 53.6595 8.00953C54.2275 8.09224 54.7714 8.29462 55.2553 8.60327C55.7393 8.91192 56.1521 9.3198 56.4666 9.79994C56.9303 10.4753 57.2116 11.2589 57.2833 12.0749C57.3828 13.0446 57.3828 14.0219 57.2833 14.9916C57.2833 16.7416 57.0208 18.5499 56.7875 20.3583C56.5541 22.1666 56.2625 23.9749 55.8833 25.6958L54.9791 29.2833C54.8908 29.5002 54.8225 29.7248 54.775 29.9541C54.5339 29.9979 54.2869 29.9979 54.0458 29.9541C53.6568 29.9357 53.2731 29.8569 52.9083 29.7208C51.8291 29.7208 51.3041 31.1208 52.2958 31.5583C52.9355 31.8651 53.6291 32.0435 54.3375 32.0833C55.011 32.1332 55.6856 32.0023 56.2916 31.7041C56.5546 31.5644 56.7609 31.3375 56.875 31.0624C57.019 30.6624 57.1359 30.2532 57.225 29.8374L58.3333 26.4249C58.8996 24.6164 59.3574 22.7756 59.7041 20.9124C60.0437 19.0498 60.2871 17.1709 60.4333 15.2833C60.5398 13.8185 60.4416 12.346 60.1416 10.9083Z" fill="white"/>
<path fill-rule="evenodd" clip-rule="evenodd" d="M42.7292 14.9625C42.7846 14.7193 42.7463 14.4641 42.622 14.2479C42.4976 14.0317 42.2964 13.8703 42.0584 13.7958C39.4042 12.8916 36.75 12.0166 33.9792 11.3458C32.8125 11.0541 31.6167 10.8208 30.4209 10.6166C29.225 10.4125 28.0584 10.2666 26.8334 10.15C23.9167 9.9458 21.2042 9.97497 18.4042 10.15C18.1876 10.15 17.9799 10.236 17.8267 10.3892C17.6736 10.5423 17.5875 10.75 17.5875 10.9666C17.5875 11.1832 17.6736 11.3909 17.8267 11.5441C17.9799 11.6973 18.1876 11.7833 18.4042 11.7833C21.525 12.2208 24.5875 12.9208 27.7084 13.475C29.575 13.825 31.4417 14.0583 33.3084 14.35C36.225 14.7875 38.9084 15.1666 41.6792 15.75C41.9201 15.7692 42.1598 15.6998 42.3531 15.5548C42.5465 15.4098 42.6802 15.1991 42.7292 14.9625Z" fill="white"/>
<path fill-rule="evenodd" clip-rule="evenodd" d="M37.0416 24.4125C37.1417 24.1837 37.149 23.925 37.0619 23.691C36.9748 23.457 36.8002 23.266 36.575 23.1583C35.9424 22.8214 35.278 22.5479 34.5916 22.3416C33.6 22.05 32.5791 21.8458 31.675 21.6125C30.7708 21.3791 30.1875 21.2625 29.4291 21.175C28.3075 21.0302 27.1764 20.9717 26.0458 21C24.1409 21.1231 22.2542 21.4457 20.4166 21.9625C20.2001 22.005 20.0076 22.1279 19.8778 22.3064C19.748 22.4849 19.6904 22.7058 19.7166 22.925C19.7526 23.1392 19.8696 23.3313 20.0433 23.4616C20.2171 23.5919 20.4343 23.6504 20.65 23.625H22.8083C24.2666 23.625 25.725 23.975 27.0666 24.1208C28.4083 24.2666 29.9833 24.1208 31.3541 24.4125H34.2708C34.8352 24.4575 35.3927 24.5651 35.9333 24.7333C36.1279 24.8068 36.3411 24.8152 36.5409 24.7574C36.7407 24.6995 36.9164 24.5785 37.0416 24.4125Z" fill="white"/>
<path fill-rule="evenodd" clip-rule="evenodd" d="M29.4 31.6457C28.6035 31.4101 27.7955 31.2154 26.9791 31.0624C26.1679 30.9302 25.35 30.8425 24.5291 30.7999C22.5801 30.7486 20.63 30.8461 18.6958 31.0916C18.502 31.128 18.327 31.231 18.2011 31.3828C18.0752 31.5346 18.0063 31.7256 18.0063 31.9228C18.0063 32.12 18.0752 32.311 18.2011 32.4628C18.327 32.6146 18.502 32.7176 18.6958 32.7541C20.825 33.0457 22.8083 33.5707 24.85 33.9499C26.075 34.1832 27.2708 34.3291 28.525 34.5332C30.3916 34.7957 32.2291 35.0291 34.0958 35.4374C34.3356 35.5114 34.5949 35.4887 34.8183 35.3743C35.0417 35.2599 35.2115 35.0627 35.2916 34.8249C35.3656 34.5851 35.343 34.3258 35.2286 34.1024C35.1141 33.879 34.917 33.7092 34.6791 33.6291C32.9582 32.869 31.1957 32.2068 29.4 31.6457Z" fill="white"/>
</svg>
