<svg width="35" height="25" viewBox="0 0 35 25" fill="none" xmlns="http://www.w3.org/2000/svg">
<g filter="url(#filter0_dd_1_7709)">
<g clip-path="url(#clip0_1_7709)">
<rect x="2" y="1" width="31" height="21" rx="3" fill="white"/>
<path d="M2 15H33V22H2V15Z" fill="#1EB53A"/>
<path d="M2 1H33V8H2V1Z" fill="#0099B5"/>
<path d="M2 7.72021H33V15.2802H2V7.72021Z" fill="#CE1126"/>
<path d="M2 8.14014H33V14.8601H2V8.14014Z" fill="white"/>
<path d="M8.0836 6.76101C9.38882 6.76101 10.4469 5.68341 10.4469 4.35414C10.4469 3.02486 9.38882 1.94727 8.0836 1.94727C6.77838 1.94727 5.72029 3.02486 5.72029 4.35414C5.72029 5.68341 6.77838 6.76101 8.0836 6.76101Z" fill="white"/>
<path d="M8.87081 6.76149C10.176 6.76149 11.2341 5.6839 11.2341 4.35462C11.2341 3.02535 10.176 1.94775 8.87081 1.94775C7.5656 1.94775 6.50751 3.02535 6.50751 4.35462C6.50751 5.6839 7.5656 6.76149 8.87081 6.76149Z" fill="#0099B5"/>
<path d="M13.2819 5.79932L13.1322 6.25662L13.3606 6.33685" fill="white"/>
<path d="M13.2815 5.79932L13.4312 6.25662L13.2027 6.33685" fill="white"/>
<path d="M13.7295 6.13742L13.2572 6.12194L13.2588 6.37469" fill="white"/>
<path d="M13.7278 6.13455L13.3548 6.4193L13.2049 6.21379" fill="white"/>
<path d="M12.8355 6.13455L13.2085 6.4193L13.3584 6.21379" fill="white"/>
<path d="M12.8339 6.13742L13.3062 6.12194L13.3046 6.37469" fill="white"/>
<path d="M13.5622 6.67182L13.4138 6.21157L13.1858 6.27947" fill="white"/>
<path d="M13.561 6.67291L13.1752 6.38736L13.3095 6.18862" fill="white"/>
<path d="M13.0048 6.66834L13.3893 6.39224L13.2472 6.18822" fill="white"/>
<path d="M13.0059 6.66908L13.1441 6.21007L13.3778 6.28515" fill="white"/>
<path d="M13.2819 3.87305L13.1322 4.33035L13.3607 4.41058" fill="white"/>
<path d="M13.2816 3.87305L13.4312 4.33035L13.2028 4.41058" fill="white"/>
<path d="M13.7295 4.21067L13.2572 4.19518L13.2588 4.44793" fill="white"/>
<path d="M13.7278 4.20828L13.3548 4.49303L13.2049 4.28752" fill="white"/>
<path d="M12.8354 4.20828L13.2084 4.49303L13.3583 4.28752" fill="white"/>
<path d="M12.8339 4.21067L13.3062 4.19518L13.3046 4.44793" fill="white"/>
<path d="M13.5621 4.74555L13.4137 4.28531L13.1857 4.3532" fill="white"/>
<path d="M13.5609 4.74615L13.1752 4.4606L13.3094 4.26187" fill="white"/>
<path d="M13.0047 4.74207L13.3892 4.46597L13.2471 4.26195" fill="white"/>
<path d="M13.0058 4.7433L13.144 4.28428L13.3777 4.35937" fill="white"/>
<path d="M13.282 1.94775L13.1323 2.40506L13.3607 2.48529" fill="white"/>
<path d="M13.2816 1.94775L13.4313 2.40506L13.2028 2.48529" fill="white"/>
<path d="M13.7295 2.28586L13.2572 2.27038L13.2588 2.52313" fill="white"/>
<path d="M13.7278 2.28299L13.3548 2.56774L13.2049 2.36223" fill="white"/>
<path d="M12.8358 2.28299L13.2088 2.56774L13.3587 2.36223" fill="white"/>
<path d="M12.8341 2.28586L13.3064 2.27038L13.3048 2.52313" fill="white"/>
<path d="M13.5623 2.82025L13.4139 2.36001L13.1859 2.4279" fill="white"/>
<path d="M13.5611 2.82086L13.1753 2.53531L13.3096 2.33657" fill="white"/>
<path d="M13.0049 2.81678L13.3894 2.54068L13.2473 2.33666" fill="white"/>
<path d="M13.006 2.81752L13.1442 2.3585L13.3779 2.43359" fill="white"/>
<path d="M15.1723 5.79932L15.0227 6.25662L15.2511 6.33685" fill="white"/>
<path d="M15.1721 5.79932L15.3217 6.25662L15.0933 6.33685" fill="white"/>
<path d="M15.6199 6.13742L15.1476 6.12194L15.1493 6.37469" fill="white"/>
<path d="M15.6182 6.13455L15.2452 6.4193L15.0953 6.21379" fill="white"/>
<path d="M14.7261 6.13455L15.0991 6.4193L15.2491 6.21379" fill="white"/>
<path d="M14.7244 6.13742L15.1967 6.12194L15.1951 6.37469" fill="white"/>
<path d="M15.4526 6.6723L15.3042 6.21206L15.0762 6.27995" fill="white"/>
<path d="M15.4514 6.67291L15.0656 6.38736L15.1999 6.18862" fill="white"/>
<path d="M14.8952 6.66834L15.2797 6.39224L15.1376 6.18822" fill="white"/>
<path d="M14.8963 6.66908L15.0345 6.21007L15.2682 6.28515" fill="white"/>
<path d="M15.1722 3.87305L15.0226 4.33035L15.251 4.41058" fill="white"/>
<path d="M15.172 3.87305L15.3217 4.33035L15.0932 4.41058" fill="white"/>
<path d="M15.6199 4.21067L15.1476 4.19518L15.1492 4.44793" fill="white"/>
<path d="M15.6182 4.20828L15.2452 4.49303L15.0953 4.28752" fill="white"/>
<path d="M14.7261 4.20828L15.0991 4.49303L15.249 4.28752" fill="white"/>
<path d="M14.7244 4.21067L15.1967 4.19518L15.195 4.44793" fill="white"/>
<path d="M15.4526 4.74506L15.3042 4.28482L15.0762 4.35271" fill="white"/>
<path d="M15.4514 4.74615L15.0656 4.4606L15.1999 4.26187" fill="white"/>
<path d="M14.8951 4.74207L15.2796 4.46597L15.1376 4.26195" fill="white"/>
<path d="M14.8962 4.7433L15.0344 4.28428L15.2682 4.35937" fill="white"/>
<path d="M15.1724 1.94775L15.0227 2.40506L15.2512 2.48529" fill="white"/>
<path d="M15.1721 1.94775L15.3218 2.40506L15.0934 2.48529" fill="white"/>
<path d="M15.62 2.28586L15.1477 2.27038L15.1493 2.52313" fill="white"/>
<path d="M15.6184 2.28299L15.2453 2.56774L15.0954 2.36223" fill="white"/>
<path d="M14.7264 2.28347L15.0994 2.56823L15.2493 2.36272" fill="white"/>
<path d="M14.7247 2.28586L15.197 2.27038L15.1953 2.52313" fill="white"/>
<path d="M15.4527 2.82025L15.3042 2.36001L15.0763 2.4279" fill="white"/>
<path d="M15.4514 2.82135L15.0657 2.53579L15.2 2.33706" fill="white"/>
<path d="M14.8952 2.81678L15.2797 2.54068L15.1376 2.33666" fill="white"/>
<path d="M14.8964 2.81752L15.0345 2.3585L15.2683 2.43359" fill="white"/>
<path d="M17.0627 5.79932L16.913 6.25662L17.1414 6.33685" fill="white"/>
<path d="M17.063 5.79932L17.2127 6.25662L16.9842 6.33685" fill="white"/>
<path d="M17.5104 6.13742L17.0381 6.12194L17.0397 6.37469" fill="white"/>
<path d="M17.5087 6.13455L17.1357 6.4193L16.9858 6.21379" fill="white"/>
<path d="M16.6163 6.13504L16.9893 6.41979L17.1392 6.21428" fill="white"/>
<path d="M16.6148 6.13791L17.0871 6.12243L17.0855 6.37518" fill="white"/>
<path d="M17.3429 6.67133L17.1945 6.21109L16.9665 6.27898" fill="white"/>
<path d="M17.3416 6.67242L16.9559 6.38687L17.0902 6.18813" fill="white"/>
<path d="M16.7855 6.66834L17.17 6.39224L17.0279 6.18822" fill="white"/>
<path d="M16.7866 6.66908L16.9248 6.21007L17.1585 6.28515" fill="white"/>
<path d="M17.0627 3.87305L16.913 4.33035L17.1414 4.41058" fill="white"/>
<path d="M17.063 3.87305L17.2127 4.33035L16.9842 4.41058" fill="white"/>
<path d="M17.5103 4.21067L17.038 4.19518L17.0396 4.44793" fill="white"/>
<path d="M17.5086 4.20828L17.1356 4.49303L16.9857 4.28752" fill="white"/>
<path d="M16.6161 4.20828L16.9891 4.49303L17.1391 4.28752" fill="white"/>
<path d="M16.6147 4.21067L17.087 4.19518L17.0854 4.44793" fill="white"/>
<path d="M17.3429 4.74555L17.1945 4.28531L16.9665 4.3532" fill="white"/>
<path d="M17.3417 4.74615L16.9559 4.4606L17.0902 4.26187" fill="white"/>
<path d="M16.7855 4.74207L17.17 4.46597L17.0279 4.26195" fill="white"/>
<path d="M16.7866 4.7433L16.9248 4.28428L17.1585 4.35937" fill="white"/>
<path d="M17.0627 1.94775L16.913 2.40506L17.1415 2.48529" fill="white"/>
<path d="M17.063 1.94775L17.2127 2.40506L16.9842 2.48529" fill="white"/>
<path d="M17.5103 2.28586L17.038 2.27038L17.0396 2.52313" fill="white"/>
<path d="M17.5086 2.28299L17.1356 2.56774L16.9857 2.36223" fill="white"/>
<path d="M16.6164 2.28299L16.9894 2.56774L17.1393 2.36223" fill="white"/>
<path d="M16.6146 2.28586L17.0869 2.27038L17.0853 2.52313" fill="white"/>
<path d="M17.3429 2.82025L17.1945 2.36001L16.9665 2.4279" fill="white"/>
<path d="M17.3417 2.82135L16.9559 2.53579L17.0902 2.33706" fill="white"/>
<path d="M16.7854 2.81678L17.1699 2.54068L17.0278 2.33666" fill="white"/>
<path d="M16.7865 2.81752L16.9247 2.3585L17.1584 2.43359" fill="white"/>
<path d="M9.50034 5.79932L9.35066 6.25662L9.57912 6.33685" fill="white"/>
<path d="M9.50006 5.79932L9.64973 6.25662L9.42128 6.33685" fill="white"/>
<path d="M9.9479 6.13742L9.4756 6.12194L9.47722 6.37469" fill="white"/>
<path d="M9.94627 6.13455L9.57326 6.4193L9.42334 6.21379" fill="white"/>
<path d="M9.05413 6.13455L9.42714 6.4193L9.57705 6.21379" fill="white"/>
<path d="M9.05245 6.13742L9.52475 6.12194L9.52313 6.37469" fill="white"/>
<path d="M9.78062 6.67182L9.63221 6.21157L9.40423 6.27947" fill="white"/>
<path d="M9.7794 6.67291L9.39366 6.38736L9.52793 6.18862" fill="white"/>
<path d="M9.22317 6.66834L9.60768 6.39224L9.4656 6.18822" fill="white"/>
<path d="M9.22432 6.66908L9.36252 6.21007L9.59627 6.28515" fill="white"/>
<path d="M11.3908 5.79932L11.2412 6.25662L11.4696 6.33685" fill="white"/>
<path d="M11.3911 5.79932L11.5408 6.25662L11.3124 6.33685" fill="white"/>
<path d="M11.8384 6.13742L11.3662 6.12194L11.3678 6.37469" fill="white"/>
<path d="M11.8368 6.13455L11.4638 6.4193L11.3138 6.21379" fill="white"/>
<path d="M10.9446 6.13504L11.3176 6.41979L11.4675 6.21428" fill="white"/>
<path d="M10.943 6.13791L11.4153 6.12243L11.4137 6.37518" fill="white"/>
<path d="M11.6711 6.67182L11.5227 6.21157L11.2947 6.27947" fill="white"/>
<path d="M11.6699 6.67242L11.2842 6.38687L11.4184 6.18813" fill="white"/>
<path d="M11.1137 6.66834L11.4982 6.39224L11.3561 6.18822" fill="white"/>
<path d="M11.1148 6.66908L11.253 6.21007L11.4868 6.28515" fill="white"/>
<path d="M11.3909 3.87402L11.2412 4.33133L11.4697 4.41156" fill="white"/>
<path d="M11.3912 3.87402L11.5408 4.33133L11.3124 4.41156" fill="white"/>
<path d="M11.8384 4.21213L11.3661 4.19665L11.3678 4.4494" fill="white"/>
<path d="M11.8368 4.20925L11.4637 4.49401L11.3138 4.2885" fill="white"/>
<path d="M10.9447 4.20925L11.3177 4.49401L11.4676 4.2885" fill="white"/>
<path d="M10.943 4.21213L11.4153 4.19665L11.4136 4.4494" fill="white"/>
<path d="M11.671 4.74652L11.5226 4.28628L11.2946 4.35417" fill="white"/>
<path d="M11.6698 4.74713L11.284 4.46157L11.4183 4.26284" fill="white"/>
<path d="M11.1136 4.74305L11.4981 4.46694L11.356 4.26293" fill="white"/>
<path d="M11.1146 4.74428L11.2528 4.28526L11.4866 4.36035" fill="white"/>
</g>
<rect x="2" y="1" width="31" height="21" rx="3" stroke="#A8B7D4" stroke-width="0.0697298" stroke-linejoin="round"/>
</g>
<defs>
<filter id="filter0_dd_1_7709" x="0.286327" y="0.40573" width="34.4273" height="24.427" filterUnits="userSpaceOnUse" color-interpolation-filters="sRGB">
<feFlood flood-opacity="0" result="BackgroundImageFix"/>
<feColorMatrix in="SourceAlpha" type="matrix" values="0 0 0 0 0 0 0 0 0 0 0 0 0 0 0 0 0 0 127 0" result="hardAlpha"/>
<feOffset dy="1.1192"/>
<feGaussianBlur stdDeviation="0.839404"/>
<feComposite in2="hardAlpha" operator="out"/>
<feColorMatrix type="matrix" values="0 0 0 0 0.258824 0 0 0 0 0.278431 0 0 0 0 0.298039 0 0 0 0.08 0"/>
<feBlend mode="normal" in2="BackgroundImageFix" result="effect1_dropShadow_1_7709"/>
<feColorMatrix in="SourceAlpha" type="matrix" values="0 0 0 0 0 0 0 0 0 0 0 0 0 0 0 0 0 0 127 0" result="hardAlpha"/>
<feOffset/>
<feGaussianBlur stdDeviation="0.0699503"/>
<feComposite in2="hardAlpha" operator="out"/>
<feColorMatrix type="matrix" values="0 0 0 0 0.258824 0 0 0 0 0.278431 0 0 0 0 0.298039 0 0 0 0.32 0"/>
<feBlend mode="normal" in2="effect1_dropShadow_1_7709" result="effect2_dropShadow_1_7709"/>
<feBlend mode="normal" in="SourceGraphic" in2="effect2_dropShadow_1_7709" result="shape"/>
</filter>
<clipPath id="clip0_1_7709">
<rect x="2" y="1" width="31" height="21" rx="3" fill="white"/>
</clipPath>
</defs>
</svg>
