<svg xmlns="http://www.w3.org/2000/svg" width="107" height="83" fill="none"><path fill="#DDD" d="M9.81 75.205C3.67 68.688.374 61.375.374 49.52.375 28.669 15.012 9.977 36.307.738l5.32 8.209C21.753 19.699 17.87 33.645 16.316 42.44c3.2-1.655 7.388-2.237 11.494-1.856 10.751.996 19.225 9.822 19.225 20.791 0 11.518-9.337 20.854-20.855 20.854-6.393 0-12.507-2.922-16.372-7.024Zm59.583 0c-6.139-6.517-9.435-13.83-9.435-25.685 0-20.851 14.637-39.543 35.933-48.782l5.319 8.209C81.337 19.699 77.453 33.645 75.9 42.44c3.2-1.655 7.389-2.237 11.495-1.856 10.75.996 19.224 9.822 19.224 20.791 0 11.518-9.337 20.854-20.854 20.854-6.394 0-12.508-2.922-16.372-7.024Z"/></svg>