<svg viewBox="0 0 7 13" fill="none" xmlns="http://www.w3.org/2000/svg">
    <path d="M5.0932 2.52078H6.70158C6.84955 2.52078 6.96964 2.40762 6.96964 2.26819V0.752598C6.96964 0.613164 6.84955 0.5 6.70158 0.5H5.0932C3.46766 0.5 2.1445 1.74632 2.1445 3.27858V5.04676H0.268063C0.120092 5.04676 0 5.15993 0 5.29936V6.81495C0 6.95438 0.120092 7.06755 0.268063 7.06755H2.1445V12.3721C2.1445 12.5115 2.2646 12.6247 2.41257 12.6247H4.02095C4.16892 12.6247 4.28901 12.5115 4.28901 12.3721V7.06755H6.16545C6.28072 7.06755 6.38312 6.99783 6.42011 6.89477L6.95624 5.37918C6.98358 5.30239 6.96964 5.21752 6.91924 5.15134C6.86831 5.08566 6.78789 5.04676 6.70158 5.04676H4.28901V3.27858C4.28901 2.86078 4.64982 2.52078 5.0932 2.52078Z" fill="white" fill-opacity="0.6"/>
</svg>