<svg viewBox="0 0 12 13" fill="none" xmlns="http://www.w3.org/2000/svg">
    <path d="M1.48355 3.4671C2.30289 3.4671 2.9671 2.80289 2.9671 1.98355C2.9671 1.16421 2.30289 0.5 1.48355 0.5C0.664208 0.5 0 1.16421 0 1.98355C0 2.80289 0.664208 3.4671 1.48355 3.4671Z" fill="white" fill-opacity="0.6"/>
    <path d="M2.71984 4.45703H0.247258C0.110772 4.45703 0 4.5678 0 4.70429V12.122C0 12.2585 0.110772 12.3693 0.247258 12.3693H2.71984C2.85633 12.3693 2.9671 12.2585 2.9671 12.122V4.70429C2.9671 4.5678 2.85633 4.45703 2.71984 4.45703Z" fill="white" fill-opacity="0.6"/>
    <path d="M10.0876 4.0464C9.03077 3.68442 7.70893 4.00239 6.91622 4.57257C6.88902 4.46625 6.7921 4.38712 6.67687 4.38712H4.20429C4.0678 4.38712 3.95703 4.4979 3.95703 4.63438V12.0521C3.95703 12.1886 4.0678 12.2994 4.20429 12.2994H6.67687C6.81336 12.2994 6.92413 12.1886 6.92413 12.0521V6.72124C7.3237 6.37706 7.83849 6.26728 8.25982 6.44629C8.66829 6.61888 8.9022 7.0402 8.9022 7.60148V12.0521C8.9022 12.1886 9.01297 12.2994 9.14946 12.2994H11.622C11.7585 12.2994 11.8693 12.1886 11.8693 12.0521V7.1035C11.8411 5.07153 10.8852 4.31937 10.0876 4.0464Z" fill="white" fill-opacity="0.6"/>
</svg>