<?xml version="1.0" standalone="no"?>
<!DOCTYPE svg PUBLIC "-//W3C//DTD SVG 20010904//EN"
 "http://www.w3.org/TR/2001/REC-SVG-20010904/DTD/svg10.dtd">
<svg version="1.0" xmlns="http://www.w3.org/2000/svg"
 width="512.000000pt" height="512.000000pt" viewBox="0 0 512.000000 512.000000"
 preserveAspectRatio="xMidYMid meet">

<g transform="translate(0.000000,512.000000) scale(0.100000,-0.100000)"
fill="#003366" stroke="none">
<path d="M2400 4953 c-587 -57 -1096 -354 -1419 -828 -149 -218 -253 -462
-301 -706 l-11 -56 -103 -5 c-88 -4 -112 -9 -169 -35 -91 -43 -150 -100 -195
-191 l-37 -76 0 -496 0 -496 37 -76 c45 -91 103 -147 196 -191 l67 -32 197 0
c216 0 222 2 272 69 21 27 21 41 26 714 6 662 7 691 28 795 136 651 621 1134
1272 1268 161 33 433 34 595 1 653 -130 1145 -621 1277 -1275 23 -110 23 -125
23 -772 0 -742 0 -747 -76 -978 -161 -494 -549 -879 -1039 -1031 -144 -44
-250 -64 -413 -74 -137 -9 -157 -17 -201 -76 -29 -39 -29 -133 0 -172 54 -73
109 -84 310 -65 240 24 444 81 659 186 370 180 656 456 858 826 78 144 154
355 187 520 l11 56 103 5 c88 4 112 9 169 35 91 43 150 100 195 191 l37 76 0
496 0 496 -37 76 c-45 91 -104 148 -195 191 -57 26 -81 31 -169 35 l-103 5
-11 56 c-81 408 -322 817 -639 1082 -361 303 -802 463 -1256 457 -60 -1 -126
-3 -145 -5z"/>
<path d="M2420 4314 c-298 -38 -551 -162 -761 -373 -151 -151 -239 -290 -307
-481 -66 -189 -67 -196 -67 -820 0 -515 2 -573 19 -650 57 -259 169 -466 355
-651 185 -186 394 -300 651 -355 119 -26 381 -26 500 0 259 56 462 167 651
355 185 185 298 392 355 651 17 77 19 135 19 650 0 515 -2 573 -19 650 -57
259 -170 466 -355 651 -185 185 -380 293 -631 350 -83 19 -331 33 -410 23z"/>
</g>
</svg>
