<?xml version="1.0" encoding="UTF-8"?> <svg xmlns="http://www.w3.org/2000/svg" width="36" height="36" viewBox="0 0 36 36" fill="none"> <path d="M33.6846 7.83001C33.6687 7.5787 33.5689 7.33999 33.4013 7.15209C33.2337 6.96419 33.0078 6.83796 32.76 6.7936C26.6779 5.70235 24.139 4.91345 18.4633 2.34985C18.3177 2.28404 18.1598 2.25 18 2.25C17.8402 2.25 17.6822 2.28404 17.5366 2.34985C11.861 4.91345 9.322 5.70235 3.23997 6.7936C2.9921 6.83796 2.76627 6.96419 2.59863 7.15209C2.431 7.33999 2.33125 7.5787 2.31536 7.83001C2.04466 12.1268 2.62192 16.1304 4.03309 19.7297C5.18869 22.6656 6.8989 25.3515 9.07028 27.6406C12.8299 31.6294 16.8215 33.3619 17.583 33.6684C17.8536 33.7779 18.1562 33.7779 18.4268 33.6684C19.1883 33.3619 23.1799 31.6294 26.9395 27.6406C29.1074 25.3506 30.8142 22.6648 31.9668 19.7297C33.378 16.1304 33.9553 12.1268 33.6846 7.83001ZM24.4736 13.1112L16.683 22.1112C16.5828 22.2272 16.46 22.3216 16.322 22.3885C16.1841 22.4553 16.0339 22.4933 15.8808 22.5H15.8343C15.5399 22.5001 15.2572 22.3847 15.0468 22.1787L11.5875 18.7896C11.4819 18.6862 11.3978 18.563 11.3399 18.4271C11.2819 18.2911 11.2513 18.1451 11.2498 17.9974C11.2468 17.699 11.3624 17.4116 11.5713 17.1984C11.7802 16.9853 12.0651 16.8639 12.3635 16.8608C12.6619 16.8578 12.9493 16.9734 13.1625 17.1823L15.764 19.7339L22.7742 11.6388C22.9694 11.4132 23.2463 11.2744 23.5439 11.2529C23.8415 11.2314 24.1355 11.329 24.3611 11.5242C24.5868 11.7195 24.7256 11.9964 24.7471 12.294C24.7686 12.5916 24.671 12.8855 24.4758 13.1112H24.4736Z" fill="currentColor"></path> </svg> 