<?xml version="1.0" standalone="no"?>
<!DOCTYPE svg PUBLIC "-//W3C//DTD SVG 20010904//EN"
 "http://www.w3.org/TR/2001/REC-SVG-20010904/DTD/svg10.dtd">
<svg version="1.0" xmlns="http://www.w3.org/2000/svg"
 width="512.000000pt" height="512.000000pt" viewBox="0 0 512.000000 512.000000"
 preserveAspectRatio="xMidYMid meet">

<g transform="translate(0.000000,512.000000) scale(0.100000,-0.100000)"
fill="#003366" stroke="none">
<path d="M2320 4679 c-219 -23 -461 -83 -616 -154 -44 -20 -68 -34 -54 -31 14
3 83 11 154 17 557 50 1001 -262 1160 -814 48 -167 76 -402 76 -652 0 -209 39
-386 118 -540 120 -233 349 -365 636 -366 207 -1 368 71 527 238 170 178 260
390 260 615 0 120 -11 196 -47 316 -200 666 -971 1261 -1773 1367 -116 16
-308 17 -441 4z"/>
<path d="M1590 4260 c-216 -22 -391 -99 -573 -255 -246 -208 -447 -580 -530
-980 -41 -194 -51 -298 -51 -510 0 -444 98 -787 324 -1129 93 -141 170 -234
296 -357 97 -93 250 -219 267 -219 4 0 -21 35 -56 78 -79 97 -127 170 -171
258 -192 385 -115 859 194 1197 120 131 255 228 530 381 96 54 204 119 240
144 95 67 230 206 279 289 136 229 143 495 19 753 -96 199 -296 320 -578 350
-52 5 -99 9 -105 8 -5 0 -44 -4 -85 -8z"/>
<path d="M4655 2347 c-164 -461 -517 -750 -945 -774 -307 -17 -635 77 -985
282 -197 116 -322 155 -519 163 -201 7 -333 -22 -485 -105 -79 -44 -196 -154
-239 -225 -121 -201 -117 -456 10 -715 180 -365 579 -560 1107 -540 530 20
1081 260 1483 645 130 125 220 238 312 392 158 265 255 553 285 855 6 54 9
100 8 102 -2 1 -16 -35 -32 -80z"/>
</g>
</svg>
