<svg viewBox="0 0 13 11" fill="none" xmlns="http://www.w3.org/2000/svg">
    <path d="M12.2202 1.76468C12.139 1.67289 12.0081 1.64981 11.9007 1.70642C11.8339 1.7416 11.7083 1.78776 11.5592 1.83338C11.7473 1.57616 11.8985 1.28817 11.9653 1.0293C11.9942 0.917733 11.952 0.800117 11.8601 0.733614C11.7682 0.667661 11.6458 0.667661 11.5539 0.733614C11.4091 0.83749 10.7102 1.14967 10.2683 1.2508C9.26957 0.351087 8.10738 0.257654 6.89924 0.983136C5.91712 1.57287 5.70338 2.77211 5.74506 3.50309C3.49709 3.2805 2.09979 2.05927 1.31324 1.04854C1.2582 0.97764 1.1695 0.940267 1.08614 0.945763C0.998509 0.952358 0.919427 1.00237 0.874542 1.07987C0.502641 1.72566 0.399513 2.4396 0.577449 3.14474C0.674699 3.52947 0.844619 3.86858 1.04179 4.14338C0.947213 4.09557 0.85584 4.03566 0.769811 3.96421C0.690729 3.89716 0.58012 3.88452 0.486611 3.92904C0.393635 3.97465 0.334323 4.07138 0.334323 4.17746C0.334323 5.38825 1.07065 6.19617 1.75834 6.61827C1.6472 6.60453 1.53125 6.57925 1.41423 6.54242C1.31377 6.51109 1.20476 6.54242 1.1353 6.62376C1.06584 6.70456 1.04927 6.81997 1.09255 6.91835C1.47888 7.79718 2.21093 8.40175 3.11664 8.62104C2.32581 9.09865 1.26728 9.33278 0.297988 9.21791C0.172418 9.19978 0.0527257 9.28167 0.0131845 9.40588C-0.0263567 9.53009 0.0254743 9.66639 0.136083 9.73015C1.60659 10.5793 2.93603 10.8827 4.08486 10.8827C5.75682 10.8827 7.04725 10.2407 7.83273 9.70377C9.95032 8.2583 11.2701 5.66305 11.0863 3.34096C11.4256 3.08319 11.9333 2.60723 12.248 2.09554C12.3132 1.99222 12.3014 1.85591 12.2202 1.76468Z" fill="white" fill-opacity="0.6"/>
</svg>