<?xml version="1.0" standalone="no"?>
<!DOCTYPE svg PUBLIC "-//W3C//DTD SVG 20010904//EN"
 "http://www.w3.org/TR/2001/REC-SVG-20010904/DTD/svg10.dtd">
<svg version="1.0" xmlns="http://www.w3.org/2000/svg"
 width="512.000000pt" height="512.000000pt" viewBox="0 0 512.000000 512.000000"
 preserveAspectRatio="xMidYMid meet">

<g transform="translate(0.000000,512.000000) scale(0.100000,-0.100000)"
fill="#003366" stroke="none">
<path d="M2371 4950 c-175 -47 -327 -152 -421 -290 -59 -87 -1870 -3427 -1901
-3505 -158 -406 87 -875 516 -985 77 -20 108 -20 1990 -20 1877 0 1913 0 1991
20 221 56 403 203 499 405 85 178 97 390 31 570 -28 76 -1854 3439 -1912 3521
-87 124 -222 223 -369 271 -111 36 -314 43 -424 13z m311 -1228 c58 -25 124
-91 152 -151 21 -46 21 -51 21 -726 l0 -680 -27 -51 c-54 -103 -154 -164 -268
-164 -114 0 -214 61 -268 164 l-27 51 0 681 0 680 30 59 c35 68 103 127 175
150 58 19 153 13 212 -13z m-52 -2083 c177 -28 319 -158 365 -334 28 -109 13
-226 -42 -327 -37 -69 -130 -153 -210 -191 -64 -30 -74 -32 -184 -32 -113 0
-117 1 -190 37 -425 210 -295 822 181 857 8 0 44 -4 80 -10z"/>
</g>
</svg>
